<mxfile host="app.diagrams.net" agent="Mozilla/5.0 (Macintosh; Intel Mac OS X 10_15_7) AppleWebKit/537.36 (KHTML, like Gecko) Chrome/136.0.0.0 Safari/537.36" version="27.0.6">
  <diagram name="Page-1" id="aHhGx1MRTltwxzgM8MS3">
    <mxGraphModel dx="1805" dy="1195" grid="1" gridSize="10" guides="1" tooltips="1" connect="1" arrows="1" fold="1" page="1" pageScale="1" pageWidth="827" pageHeight="1169" math="0" shadow="0">
      <root>
        <mxCell id="0" />
        <mxCell id="1" parent="0" />
        <mxCell id="ra2lqkI8AQWUZ4xN18l0-25" value="Gateway" style="rounded=1;whiteSpace=wrap;html=1;" parent="1" vertex="1">
          <mxGeometry x="420" y="130" width="66" height="800" as="geometry" />
        </mxCell>
        <mxCell id="ra2lqkI8AQWUZ4xN18l0-23" value="" style="rounded=1;whiteSpace=wrap;html=1;" parent="1" vertex="1">
          <mxGeometry x="680.5" y="410" width="309.5" height="240" as="geometry" />
        </mxCell>
        <mxCell id="ra2lqkI8AQWUZ4xN18l0-22" value="" style="rounded=1;whiteSpace=wrap;html=1;" parent="1" vertex="1">
          <mxGeometry x="560" y="130" width="425" height="240" as="geometry" />
        </mxCell>
        <mxCell id="ra2lqkI8AQWUZ4xN18l0-1" value="" style="rounded=1;whiteSpace=wrap;html=1;" parent="1" vertex="1">
          <mxGeometry x="570" y="690" width="280" height="240" as="geometry" />
        </mxCell>
        <mxCell id="ra2lqkI8AQWUZ4xN18l0-2" value="ECS" style="sketch=0;points=[[0,0,0],[0.25,0,0],[0.5,0,0],[0.75,0,0],[1,0,0],[0,1,0],[0.25,1,0],[0.5,1,0],[0.75,1,0],[1,1,0],[0,0.25,0],[0,0.5,0],[0,0.75,0],[1,0.25,0],[1,0.5,0],[1,0.75,0]];outlineConnect=0;fontColor=#232F3E;fillColor=#ED7100;strokeColor=#ffffff;dashed=0;verticalLabelPosition=bottom;verticalAlign=top;align=center;html=1;fontSize=12;fontStyle=0;aspect=fixed;shape=mxgraph.aws4.resourceIcon;resIcon=mxgraph.aws4.ecs;" parent="1" vertex="1">
          <mxGeometry x="585" y="705" width="50" height="50" as="geometry" />
        </mxCell>
        <mxCell id="ra2lqkI8AQWUZ4xN18l0-3" value="GameLift" style="sketch=0;points=[[0,0,0],[0.25,0,0],[0.5,0,0],[0.75,0,0],[1,0,0],[0,1,0],[0.25,1,0],[0.5,1,0],[0.75,1,0],[1,1,0],[0,0.25,0],[0,0.5,0],[0,0.75,0],[1,0.25,0],[1,0.5,0],[1,0.75,0]];outlineConnect=0;fontColor=#232F3E;fillColor=#8C4FFF;strokeColor=#ffffff;dashed=0;verticalLabelPosition=bottom;verticalAlign=top;align=center;html=1;fontSize=12;fontStyle=0;aspect=fixed;shape=mxgraph.aws4.resourceIcon;resIcon=mxgraph.aws4.gamelift_2;" parent="1" vertex="1">
          <mxGeometry x="700.5" y="420" width="50" height="50" as="geometry" />
        </mxCell>
        <mxCell id="ra2lqkI8AQWUZ4xN18l0-4" value="EC2" style="sketch=0;points=[[0,0,0],[0.25,0,0],[0.5,0,0],[0.75,0,0],[1,0,0],[0,1,0],[0.25,1,0],[0.5,1,0],[0.75,1,0],[1,1,0],[0,0.25,0],[0,0.5,0],[0,0.75,0],[1,0.25,0],[1,0.5,0],[1,0.75,0]];outlineConnect=0;fontColor=#232F3E;fillColor=#ED7100;strokeColor=#ffffff;dashed=0;verticalLabelPosition=bottom;verticalAlign=top;align=center;html=1;fontSize=12;fontStyle=0;aspect=fixed;shape=mxgraph.aws4.resourceIcon;resIcon=mxgraph.aws4.ec2;" parent="1" vertex="1">
          <mxGeometry x="575" y="142.14" width="50" height="50" as="geometry" />
        </mxCell>
        <mxCell id="ra2lqkI8AQWUZ4xN18l0-5" value="Proxy" style="shape=rect;fillColor=#1192E8;aspect=fixed;resizable=0;labelPosition=center;verticalLabelPosition=bottom;align=center;verticalAlign=top;strokeColor=none;fontSize=14;" parent="1" vertex="1">
          <mxGeometry x="429" y="219.17" width="48" height="48" as="geometry" />
        </mxCell>
        <mxCell id="ra2lqkI8AQWUZ4xN18l0-6" value="" style="fillColor=#ffffff;strokeColor=none;dashed=0;outlineConnect=0;html=1;labelPosition=center;verticalLabelPosition=bottom;verticalAlign=top;part=1;movable=0;resizable=0;rotatable=0;shape=mxgraph.ibm_cloud.server--proxy" parent="ra2lqkI8AQWUZ4xN18l0-5" vertex="1">
          <mxGeometry width="24" height="24" relative="1" as="geometry">
            <mxPoint x="12" y="12" as="offset" />
          </mxGeometry>
        </mxCell>
        <mxCell id="ra2lqkI8AQWUZ4xN18l0-7" value="" style="verticalLabelPosition=bottom;html=1;verticalAlign=top;align=center;strokeColor=none;fillColor=#00BEF2;shape=mxgraph.azure.mobile;pointerEvents=1;" parent="1" vertex="1">
          <mxGeometry x="190" y="510" width="30" height="50" as="geometry" />
        </mxCell>
        <mxCell id="ra2lqkI8AQWUZ4xN18l0-8" value="" style="verticalLabelPosition=bottom;html=1;verticalAlign=top;align=center;strokeColor=none;fillColor=#00BEF2;shape=mxgraph.azure.laptop;pointerEvents=1;" parent="1" vertex="1">
          <mxGeometry x="250" y="520" width="50" height="30" as="geometry" />
        </mxCell>
        <mxCell id="ra2lqkI8AQWUZ4xN18l0-9" value="" style="verticalLabelPosition=bottom;html=1;verticalAlign=top;align=center;strokeColor=none;fillColor=#00BEF2;shape=mxgraph.azure.mobile;pointerEvents=1;" parent="1" vertex="1">
          <mxGeometry x="200" y="500" width="30" height="50" as="geometry" />
        </mxCell>
        <mxCell id="ra2lqkI8AQWUZ4xN18l0-11" value="" style="verticalLabelPosition=bottom;html=1;verticalAlign=top;align=center;strokeColor=none;fillColor=#00BEF2;shape=mxgraph.azure.laptop;pointerEvents=1;" parent="1" vertex="1">
          <mxGeometry x="240" y="530" width="50" height="30" as="geometry" />
        </mxCell>
        <mxCell id="ra2lqkI8AQWUZ4xN18l0-12" value="" style="verticalLabelPosition=bottom;html=1;verticalAlign=top;align=center;strokeColor=none;fillColor=#00BEF2;shape=mxgraph.azure.laptop;pointerEvents=1;" parent="1" vertex="1">
          <mxGeometry x="260" y="510" width="50" height="30" as="geometry" />
        </mxCell>
        <mxCell id="ra2lqkI8AQWUZ4xN18l0-13" value="" style="verticalLabelPosition=bottom;html=1;verticalAlign=top;align=center;strokeColor=none;fillColor=#00BEF2;shape=mxgraph.azure.mobile;pointerEvents=1;" parent="1" vertex="1">
          <mxGeometry x="180" y="520" width="30" height="50" as="geometry" />
        </mxCell>
        <mxCell id="ra2lqkI8AQWUZ4xN18l0-17" value="&lt;div&gt;&lt;span style=&quot;background-color: transparent; color: light-dark(rgb(0, 0, 0), rgb(255, 255, 255));&quot;&gt;Gestionnaire&lt;/span&gt;&lt;/div&gt;&lt;div&gt;de salle&lt;/div&gt;" style="shape=hexagon;perimeter=hexagonPerimeter2;whiteSpace=wrap;html=1;fixedSize=1;" parent="1" vertex="1">
          <mxGeometry x="680.5" y="762.5" width="90" height="77.5" as="geometry" />
        </mxCell>
        <mxCell id="ra2lqkI8AQWUZ4xN18l0-19" value="&lt;div&gt;&lt;span style=&quot;background-color: transparent; color: light-dark(rgb(0, 0, 0), rgb(255, 255, 255));&quot;&gt;Gestionnaire&lt;/span&gt;&lt;/div&gt;&lt;div&gt;de salle&lt;/div&gt;" style="shape=hexagon;perimeter=hexagonPerimeter2;whiteSpace=wrap;html=1;fixedSize=1;" parent="1" vertex="1">
          <mxGeometry x="660.5" y="787.5" width="90" height="80" as="geometry" />
        </mxCell>
        <mxCell id="ra2lqkI8AQWUZ4xN18l0-21" value="&lt;div&gt;&lt;span style=&quot;background-color: transparent; color: light-dark(rgb(0, 0, 0), rgb(255, 255, 255));&quot;&gt;Gestionnaire&lt;/span&gt;&lt;/div&gt;&lt;div&gt;de salle&lt;/div&gt;" style="shape=hexagon;perimeter=hexagonPerimeter2;whiteSpace=wrap;html=1;fixedSize=1;" parent="1" vertex="1">
          <mxGeometry x="690.5" y="797.5" width="90" height="80" as="geometry" />
        </mxCell>
        <mxCell id="ra2lqkI8AQWUZ4xN18l0-24" value="Fleet" style="ellipse;whiteSpace=wrap;html=1;aspect=fixed;" parent="1" vertex="1">
          <mxGeometry x="760" y="490" width="80" height="80" as="geometry" />
        </mxCell>
        <mxCell id="ra2lqkI8AQWUZ4xN18l0-26" value="FlexMatch" style="ellipse;whiteSpace=wrap;html=1;aspect=fixed;" parent="1" vertex="1">
          <mxGeometry x="880" y="490" width="80" height="80" as="geometry" />
        </mxCell>
        <mxCell id="ra2lqkI8AQWUZ4xN18l0-32" value="instance" style="swimlane;whiteSpace=wrap;html=1;fillColor=#60a917;fontColor=#ffffff;strokeColor=light-dark(#009900,#009900);fillStyle=solid;strokeWidth=2;" parent="1" vertex="1">
          <mxGeometry x="670" y="150" width="133" height="200" as="geometry" />
        </mxCell>
        <mxCell id="vlCZbG9oBxgesIhF5QOp-1" value="" style="shape=image;verticalLabelPosition=bottom;labelBackgroundColor=default;verticalAlign=top;aspect=fixed;imageAspect=0;image=data:image/jpeg,/9j/4AAQSkZJRgABAQEBLAEsAAD/4QDGRXhpZgAASUkqAAgAAAAHABIBAwABAAAAAQAAABoBBQABAAAAYgAAABsBBQABAAAAagAAACgBAwABAAAAAgAAADEBAgANAAAAcgAAADIBAgAUAAAAgAAAAGmHBAABAAAAlAAAAAAAAAAsAQAAAQAAACwBAAABAAAAR0lNUCAyLjEwLjM4AAAyMDI1OjA1OjE2IDIyOjI1OjM5AAMAAaADAAEAAAABAAAAAqAEAAEAAABlAAAAA6AEAAEAAACxAAAAAAAAAP/hDNFodHRwOi8vbnMuYWRvYmUuY29tL3hhcC8xLjAvADw/eHBhY2tldCBiZWdpbj0i77u/IiBpZD0iVzVNME1wQ2VoaUh6cmVTek5UY3prYzlkIj8+IDx4OnhtcG1ldGEgeG1sbnM6eD0iYWRvYmU6bnM6bWV0YS8iIHg6eG1wdGs9IlhNUCBDb3JlIDQuNC4wLUV4aXYyIj4gPHJkZjpSREYgeG1sbnM6cmRmPSJodHRwOi8vd3d3LnczLm9yZy8xOTk5LzAyLzIyLXJkZi1zeW50YXgtbnMjIj4gPHJkZjpEZXNjcmlwdGlvbiByZGY6YWJvdXQ9IiIgeG1sbnM6eG1wTU09Imh0dHA6Ly9ucy5hZG9iZS5jb20veGFwLzEuMC9tbS8iIHhtbG5zOnN0RXZ0PSJodHRwOi8vbnMuYWRvYmUuY29tL3hhcC8xLjAvc1R5cGUvUmVzb3VyY2VFdmVudCMiIHhtbG5zOmRjPSJodHRwOi8vcHVybC5vcmcvZGMvZWxlbWVudHMvMS4xLyIgeG1sbnM6R0lNUD0iaHR0cDovL3d3dy5naW1wLm9yZy94bXAvIiB4bWxuczp4bXA9Imh0dHA6Ly9ucy5hZG9iZS5jb20veGFwLzEuMC8iIHhtcE1NOkRvY3VtZW50SUQ9ImdpbXA6ZG9jaWQ6Z2ltcDo5YmY3ZTUyZC1lNDliLTQ1Y2EtYmY4Yi0xNjM4NjQyOGM2ZDIiIHhtcE1NOkluc3RhbmNlSUQ9InhtcC5paWQ6NWIwZTdhZjMtNzE2My00ZmYyLTlkMDYtODg5YjA3ZDYwNWRmIiB4bXBNTTpPcmlnaW5hbERvY3VtZW50SUQ9InhtcC5kaWQ6NDhkNzE1NGYtZDZlMS00NzVhLThmOGQtMzNmNWMxZGM3MWU3IiBkYzpGb3JtYXQ9ImltYWdlL2pwZWciIEdJTVA6QVBJPSIyLjAiIEdJTVA6UGxhdGZvcm09Ik1hYyBPUyIgR0lNUDpUaW1lU3RhbXA9IjE3NDc0MjcxNDM4OTk2ODQiIEdJTVA6VmVyc2lvbj0iMi4xMC4zOCIgeG1wOkNyZWF0b3JUb29sPSJHSU1QIDIuMTAiIHhtcDpNZXRhZGF0YURhdGU9IjIwMjU6MDU6MTZUMjI6MjU6MzkrMDI6MDAiIHhtcDpNb2RpZnlEYXRlPSIyMDI1OjA1OjE2VDIyOjI1OjM5KzAyOjAwIj4gPHhtcE1NOkhpc3Rvcnk+IDxyZGY6U2VxPiA8cmRmOmxpIHN0RXZ0OmFjdGlvbj0ic2F2ZWQiIHN0RXZ0OmNoYW5nZWQ9Ii8iIHN0RXZ0Omluc3RhbmNlSUQ9InhtcC5paWQ6YjVlNWE5NTctNWUzOC00MjVmLTg5NzItNTEyOTU2MjZkMjg1IiBzdEV2dDpzb2Z0d2FyZUFnZW50PSJHaW1wIDIuMTAgKE1hYyBPUykiIHN0RXZ0OndoZW49IjIwMjUtMDUtMTZUMjI6MjU6NDMrMDI6MDAiLz4gPC9yZGY6U2VxPiA8L3htcE1NOkhpc3Rvcnk+IDwvcmRmOkRlc2NyaXB0aW9uPiA8L3JkZjpSREY+IDwveDp4bXBtZXRhPiAgICAgICAgICAgICAgICAgICAgICAgICAgICAgICAgICAgICAgICAgICAgICAgICAgICAgICAgICAgICAgICAgICAgICAgICAgICAgICAgICAgICAgICAgICAgICAgICAgICAgICAgICAgICAgICAgICAgICAgICAgICAgICAgICAgICAgICAgICAgICAgICAgICAgICAgICAgICAgICAgICAgICAgICAgICAgICAgICAgICAgICAgICAgICAgICAgICAgICAgICAgICAgICAgICAgICAgICAgICAgICAgICAgICAgICAgICAgICAgICAgICAgICAgICAgICAgICAgICAgICAgICAgICAgICAgICAgICAgICAgICAgICAgICAgICAgICAgICAgICAgICAgICAgICAgICAgICAgICAgICAgICAgICAgICAgICAgICAgICAgICAgICAgICAgICAgICAgICAgICAgICAgICAgICAgICAgICAgICAgICAgICAgICAgICAgICAgICAgICAgICAgICAgICAgICAgICAgICAgICAgICAgICAgICAgICAgICAgICAgICAgICAgICAgICAgICAgICAgICAgICAgICAgICAgICAgICAgICAgICAgICAgICAgICAgICAgICAgICAgICAgICAgICAgICAgICAgICAgICAgICAgICAgICAgICAgICAgICAgICAgICAgICAgICAgICAgICAgICAgICAgICAgICAgICAgICAgICAgICAgICAgICAgICAgICAgICAgICAgICAgICAgICAgICAgICAgICAgICAgICAgICAgICAgICAgICAgICAgICAgICAgICAgICAgICAgICAgICAgICAgICAgICAgICAgICAgICAgICAgICAgICAgICAgICAgICAgICAgICAgICAgICAgICAgICAgICAgICAgICAgICAgICAgICAgICAgICAgICAgICAgICAgICAgICAgICAgICAgICAgICAgICAgICAgICAgICAgICAgICAgICAgICAgICAgICAgICAgICAgICAgICAgICAgICAgICAgICAgICAgICAgICAgICAgICAgICAgICAgICAgICAgICAgICAgICAgICAgICAgICAgICAgICAgICAgICAgICAgICAgICAgICAgICAgICAgICAgICAgICAgICAgICAgICAgICAgICAgICAgICAgICAgICAgICAgICAgICAgICAgICAgICAgICAgICAgICAgICAgICAgICAgICAgICAgICAgICAgICAgICAgICAgICAgICAgICAgICAgICAgICAgICAgICAgICAgICAgICAgICAgICAgICAgICAgICAgICAgICAgICAgICAgICAgICAgICAgICAgICAgICAgICAgICAgICAgICAgICAgICAgICAgICAgICAgICAgICAgICAgICAgICAgICAgICAgICAgICAgICAgICAgICAgICAgICAgICAgICAgICAgICAgICAgICAgICAgICAgICAgICAgICAgICAgICAgICAgICAgICAgICAgICAgICAgICAgICAgICAgICAgICAgICAgICAgICAgICAgICAgICAgICAgICAgICAgICAgICAgICAgICAgICAgICAgICAgICAgICAgICAgICAgICAgICAgICAgICAgICAgICAgICAgICAgICAgICAgICAgICAgICAgICAgICAgICAgICAgICAgICAgICAgICAgICAgICAgICAgICAgICAgICAgICAgICAgICAgICAgICAgICAgICAgICAgICAgICAgICAgICAgICAgICAgICAgICAgICAgICAgICAgICAgICAgICAgICAgICAgICAgICAgICAgICAgICAgICAgICAgICAgICAgICAgICAgICAgICAgICAgICAgICAgICAgICAgICAgICAgICAgICAgICAgICAgICAgICAgICAgICAgICAgICAgICAgICAgICAgICAgICAgICAgICAgICAgICAgICAgICAgICAgICAgICAgICAgICAgICAgICAgICAgICAgICAgICAgICAgICAgICAgICAgICAgICAgICAgICAgICAgICAgICAgICAgICAgICAgICAgICAgICAgICAgICAgICAgICAgICAgICAgICAgICAgICAgICAgICAgICAgICAgICAgICAgICAgICAgICAgICAgICAgICAgICAgICAgICAgICAgICAgICAgICAgICAgICAgICAgICAgICAgICAgICAgICAgICAgICAgICAgICAgICAgICAgICAgICAgICAgICAgICAgICAgICAgICAgICAgICAgICAgICAgICAgICAgICAgICAgICAgICAgICAgICAgICAgICAgICAgICAgICAgICAgICAgICAgICAgICAgICAgICAgICAgICAgICAgICAgICAgICAgICAgICAgICAgICAgICAgICAgICAgICAgICAgICAgICAgICAgICAgICAgICAgICAgICAgICAgICAgICAgICAgICAgICAgICAgICAgICAgICAgICAgICAgICAgICAgICAgICAgICAgICAgICAgICAgICAgICAgICAgICAgICAgICAgICAgICAgICAgICAgICAgICAgICAgICAgICAgICAgICAgICAgICAgICAgICAgICAgICAgICAgIDw/eHBhY2tldCBlbmQ9InciPz7/4gKwSUNDX1BST0ZJTEUAAQEAAAKgbGNtcwRAAABtbnRyUkdCIFhZWiAH6QAFABAAFAAXACthY3NwQVBQTAAAAAAAAAAAAAAAAAAAAAAAAAAAAAAAAAAA9tYAAQAAAADTLWxjbXMAAAAAAAAAAAAAAAAAAAAAAAAAAAAAAAAAAAAAAAAAAAAAAAAAAAAAAAAAAAAAAA1kZXNjAAABIAAAAEBjcHJ0AAABYAAAADZ3dHB0AAABmAAAABRjaGFkAAABrAAAACxyWFlaAAAB2AAAABRiWFlaAAAB7AAAABRnWFlaAAACAAAAABRyVFJDAAACFAAAACBnVFJDAAACFAAAACBiVFJDAAACFAAAACBjaHJtAAACNAAAACRkbW5kAAACWAAAACRkbWRkAAACfAAAACRtbHVjAAAAAAAAAAEAAAAMZW5VUwAAACQAAAAcAEcASQBNAFAAIABiAHUAaQBsAHQALQBpAG4AIABzAFIARwBCbWx1YwAAAAAAAAABAAAADGVuVVMAAAAaAAAAHABQAHUAYgBsAGkAYwAgAEQAbwBtAGEAaQBuAABYWVogAAAAAAAA9tYAAQAAAADTLXNmMzIAAAAAAAEMQgAABd7///MlAAAHkwAA/ZD///uh///9ogAAA9wAAMBuWFlaIAAAAAAAAG+gAAA49QAAA5BYWVogAAAAAAAAJJ8AAA+EAAC2xFhZWiAAAAAAAABilwAAt4cAABjZcGFyYQAAAAAAAwAAAAJmZgAA8qcAAA1ZAAAT0AAACltjaHJtAAAAAAADAAAAAKPXAABUfAAATM0AAJmaAAAmZwAAD1xtbHVjAAAAAAAAAAEAAAAMZW5VUwAAAAgAAAAcAEcASQBNAFBtbHVjAAAAAAAAAAEAAAAMZW5VUwAAAAgAAAAcAHMAUgBHAEL/2wBDAAkGBwgHBgkIBwgKCgkLDRYPDQwMDRsUFRAWIB0iIiAdHx8kKDQsJCYxJx8fLT0tMTU3Ojo6Iys/RD84QzQ5Ojf/2wBDAQoKCg0MDRoPDxo3JR8lNzc3Nzc3Nzc3Nzc3Nzc3Nzc3Nzc3Nzc3Nzc3Nzc3Nzc3Nzc3Nzc3Nzc3Nzc3Nzc3Nzf/wgARCACxAGUDAREAAhEBAxEB/8QAGgAAAgMBAQAAAAAAAAAAAAAAAgQBAwUGAP/EABkBAAMBAQEAAAAAAAAAAAAAAAABAgMEBf/aAAwDAQACEAMQAAAB5S5uMzCSZCo18Pw20Ph4PBlMqMjFoJeBJ6XldJL46jXRsoEDDlmVPmIQlVG0FaAtGbxamQuRUKVEO6XjWawUSRp7rDTzGk0TRISEgmG0kI0VNd42rbQRj1FiRTtqzvmXjLSYaaIkT15DJNzICAKrZ308+xa8lGqA0kQCVc1jxkmUQ2CoF1az6ElnSCbGEEIHzMGBJeDwwdKnVrTqiysKAZly8JfNaSSnwQ2BVRevPWrVZASG3npn3xS8bVBJeF4YOqXpvLqXL55mshtURmprytYZ1E6U9WLfGFVJtoLrArEpC11EPGof6Off4p54wNibiuqUfTvrpEObo8jYjT00/r52kRkNV7Ozm1HPpCufyMq9l6og6rDrjPrtvxZjmX9G6O62/K6y5fQ9fkXRzc3t052t2I1ub0uvvDlJ87qrrkPRx6A2weDv6+Dk54Oqs4lvN1thFhHiCeFqiLXm/Z3C0rqICZ6U6t2Sm+eXnKTqdDy8EDAoG4bsz6VXbUg1mF85INV1UdIdcY/Tnm+flDYjZx6kbbSIkXBjXmEXT4dk3pR3cfPc2Ijuz3FaK0Oo1ct2o6+d14g25Oj5ejYx05z0+bIzzvjWFadoQcQUWE701jZebTHUY7V0sAXoEPA0klLJVUDWkmDaM5ki8BCMyMi2enORQqIrQuAZAQEB4TJzeEI//8QAKRAAAgIBAwIHAAIDAAAAAAAAAQIDBAAQERITFAUVICEiMTIjMzBBQv/aAAgBAQABBQIaBGK7aHWKvJJnllvPLLWHw20Bi/Ek8mistHW7qXjNM0polVnlmgePILSKPNIN/Mq+3mkQx2LttoWAwnfSvLIBJZc5I5dkcpgmbCxJ5HTnm5OvHK9yaXI0sxGxZew3qqcQloI2fnDucrtGhWxUDf8AW5GiGJYta0nASvyPqhZkk68ixzO7Lkb8GaSSQdV4k5cj6DnUK4IrAWZ5Ym0DR8JDFxT69Bw/syUt7LQMQw2xI2xvsYPQcOVKgnjvUzW1QjoN+x6TpW4jLfAjKqQBZZIeTtXfIoTJnauI0T+V1g6eHIkV3kStGEgqvFIvB0bg7xyjL2/Pw8OxWuWXk0cvczaHJcjEhq3InSDStR7gGlsaULcpZJAyQmWR4ijQ1zMzVyDHSacyeHGPJo+m2D78N5FpCxeiXLzFmeqT3ErFpKJbnOWMtIv153dss/rE/UR45LejNWM40tXtSfk9iqaCnbO+j7VD7iWr2s3vpGPcseXI4GOcjrvnI5yOcmxfcYMP60cRCP1R433/ALkGx0Q7NN2vTrdE13/GhwfFdHfgOs2520rRJcSOBlXxCt2+qLkra+HV1mD00JKcT75QjkgPW5ZdEu/Fjix7Y7+itZeHBYkDROWlm+6wifFqrxmMe8bbRs/ob6b4sW+KnbD8sjZ4nW5ZUba7E5w0P9bf14Po/wCH/8QAKhEAAgIBAgUEAQUBAAAAAAAAAAECEQMQEgQTICExFDAyQSIFM0JRUnH/2gAIAQMBAT8Bb1b0S9hss39qNzEvtjG+3Tem7RRbFFLRj6GrOXESoWMUUvflKjf3N0TdElJV2I5DybY0PVeSTG9L0vTGxQuNj6cip9KMfxI5HFV1ZX36UY2q6aMox9CEQ7roXgyv8h9KEQr6PvXdRKKkbGxwaVkVcu5txbH276IhHcyEVHqi6s/F/Y24y7HNnojB0rHcbPSTf8jJiak4/wBGSTf4sjjczkmPhd8XKxfpz87h45Y5uKHklHyRe5XrCuVbI0lRmvnySJW3ZiGcMly23/ZjSUTiL9RKidsx/DXhVeMjw8uZRxP70i4baIFqj9P+Ev8Ap6eXM2nF/vyPw20Y/jrLNOHaLPU5v9Em27ZbLZuZDNkh8Weqzf6HJt29MfjXJ51lGNdtaK1x+Nci+9YfI7HYeqQlS6KJxpkPkRg5eCXByS7E47dKIQroxxVdyEI/ZxWKpUhQaZCVeTdAnFybYsbFFLpjJoXENeCcnJ2/cXsOSQ8jL91H/8QAKREAAgIABQMEAQUAAAAAAAAAAAECEQMQEiExBCAwEzNBUSIFMkBhgf/aAAgBAgEBPwHwWWWX21mk7yooory13WUbHBfcz4ErKGU8nE4N77Hx4JFOyqzorwKVfwWxeB7CzfIvB8HxkzTeUYalZOWlidod32bm/YjDaULZKEpOxcdiyWerc9Uhj6eRdRhwfBCGuOoXS2rsmtEtJ6hrHi0Rleb/AHDyZgV6O5FJKkdR7rHyfQzD4yZPkc1Q/g2o6P2xYeJ6tnV+6a1R8I2ohxkxRT5NEfo0o0oUnHg9Sf2Nat2aI/RpRpQ1WTI8eKWTIvN5flt/hiL8X2PfssTsZPEjBXIh+pYG2/BHF9TDecpCzkNkJF2Y0JOnAcOo/ohi6cPRRqHKyuxmnKIy8nyV2PsXhfYvD//EADQQAAEDAgMGBAQFBQAAAAAAAAEAAhESIQMQMRMgIkFRYQQwMnEjM0KRUmKBkqFygqKx8P/aAAgBAQAGPwLIuDTA1O8KYvpLgJXyx+4L5Y/cF8v/ACGQI1RPVPwABDuaAnRS5AviO6oeZB7aZNGIHWjSLwp2L0RssSD3UtwXzykouOpM71LRLRc2UMBqUu1Vly+ynyDhMZ4drY0LSpA8O6nSeSjEZh1A+po35jinWFI9XPN22wy8QjPhiRNrdlYQMrK7KjF9y4sqotvy0SvS37KHNbHYZTSHe6aQxluiM4TI591IEdt6AiAxrp7o4boB7ZxSaoXAxwO/fRN+DiRN/t7puwY5trzmCB5NTnEDoAg4GWHNuo/VHyKcLGdTP4UWPxz1inKrGcJ6FCC2D/Cu5s9U6COFNfIhyAcCRzhPDMF9XK2mcPxBhjqU3Z47XD6lx+Ja13JFocHAcwmu6GUHOwfDy5wF0A5jWnqDMotZzb1hUOdFOhq16J0GDojx67gds8IsDefZOc/CwektzNJiOqipPIcAG2MotfEoioT3RadQqWlEF2icARwoS8foozIbT/cU4n3T2sDXSbhyL3NIkqGtBJ6mE5zhEnknNw6anc3JxIv2TtnFR6q7KQCZ90chlUPU61KPutntOFFBoZf8PQ9cq/q0pRWy2nD/ACnbmq1Wu7qtSr5nNpY4l/Mb5RynMTdOp2Xp5G9VkKtnoap17QjvgalcV1LdDkHYgbhsZw8P1FHDhpn6jyXC6WuFuuclQM3vcAbxdECLdgnMGVZEtcLCV6P9IvxIuY1ykqBuOa0pzp11Rc5BBmzc5/8A3dfJxTrdq+CHAfm8qVWwgOHZQ3Et/SPIHmf/xAAmEAEAAgICAgIBBQEBAAAAAAABABEhMUFREGFxgSCRobHB8NHh/9oACAEBAAE/IRbERpKSIAagwQp4VspAUc68YH637gn+A/uf5L+4katdf9IiNJmX1A2RmTKuPpratkqo6px1CaWhWIFaA/aX5YZe3vwgAZg+hvU7w+Tu5ivME8dKvYZsPSr3DyBfDIoGq1f6pTOMsaGz1iJ6uGCpfY53ZB6Ja0v14lXcRxmPM8AupovUJKHCE+oQWCqF+krMUMJZSflnQ+QSUeMNYVcUGreoxy/UflFArmJby44lD+bZVtSzA8Q2MkwlxRGoKuquOGvLZ1S1LMqncM5dsCVKiRIbEqSkuZJe3RvB4lrGvwV3Gway5qyLZgY7RCGCb0gfiz6/c9OCV/n4hkEOVwbBjDZtosv6jqXLbeoeXLD8WFgts4lqK/bkt/KpWWnLy/qwQPXhdinc0nRNpp+LSZzRWUstL112PT59eqxGXz8+B+J1MqgKqVx2L3ne6ffgLcdNqIN2Jpg76g5j5xS5d1FA4KFVC6+JShtkrhHwxTW5XbBq7n5lqY5px6SGs5jWypQUqPNRCt4vm35iIyHKcMvOmXrcjiPb38TDADgp8XEXnMuYAUWVuDLVRmk2IVXFq9oPiHs5Myz9vFRKChn9EBlemoXJoFRxAEqcwpj2VRDaWmVcD7lLRVOJ/Y7cTPIKnLWyHQdeBYPc2DNuQ66gp5WyGIQUu0MQdhRrB6mTXUaH3CyJb4XL5DAQN12dX3KkNDoY3Ba0uXVtzNfZ4NyUWdxLUl8T/wAlG0PpVDHd7lCe5sCaLZ9iZidw15U+/wD5KF9zNFhn23M3g11OIRAoT3oTlDsS5cscx7JkaUf/AGo17W3Gbz914GIZG7iXLlxfDNflP3UGi/U+RQ8AoUHJ3MzzV0KUD1uDeGFvxCunjyoc7xnwlkxgRCwAlleogwPq579jKTJhVkdkLV5h4LHX9AlnV45iQpeG6qOn6NH7TYhGyVyKlUd2H+dwqKdWjnDfv1MvhU3orH7Q0D7gcj3CCDnysJSqYgk+RzFEyx6upb2XWvr04uKutVWYq/fUScFzbNwAtPuX6jnztgQRw8zQa+pmPcOAYS0wUNfrAZQXR7L6l/UCjwSA5zKrXmDqf0zh8fibPLP/2gAMAwEAAgADAAAAENuACObZz3ZhbQiKAZK/0cn7DwAEwXu1Bgn7oL08EShXEwgN7f0IkFxw3JiMg5tUo9qOBW52lXAhFPaEG2INZUJILaz1tpYi8Y8T4Lv6yu1kSlSJxVjxZWtMaXz+coFPN+lsOEI+xkQSEl6rFXDIJIT/AP/EACcRAQACAwAABQQCAwAAAAAAAAEAERAhMSBBUWGRcaGx4YHB0fDx/9oACAEDAQE/EKDHlcshKi3wVKlYtbj5mWtSHKKvmRVUDYxcuXKYfRFXGcnCQ1BQV4AFM1VUHiI9nOMVKly2XcrxCXTPOoMrRcPWJ7xO4iHYILIAfWCmst08pRbGW2LhcIGPdTeZo1m4sDTFly5cUqCIQRfAodgusZcvClKXNRyKrj2E4i3Lly4otxUx01k3aXLBcXhSt7gvTiebBUOE60GoPIQXGGBxNEL+Dd/WGGuuoiVGlvwMBWa3NaJ17/GoutuBXvv0hOp5sOejrdcgCz7P3EK6W75LISKrcWNXLwqDXL/uOAfZ+42d1/2InZBEHc0bHfLf5gCIEINvnChkuWESts3Vo8n0IEB+fxKA6/RFoqg/MOmCWh7v9Q9vDdwfPFNmppcdeG/9HCPtnb9v8w/Ifgg9OoNcESshPefMWJax9SAcZ7sBRS/Rh6v5iZ7WDFeJBvhIAq3KlQgwMhL4TA0lRW38zhlYsZqM9lUqc7k4RuhGihv5nBgtOhjl14EXxCeV0lRD30gHL+09SkteHXk5rDwi3G4wlYOS83GDKVeExcrPcjORTtj2EOQ5HvheRy//xAAlEQEAAgMAAQQBBQEAAAAAAAABABEQITFBIFFhcTCBkaGx8NH/2gAIAQIBAT8QxfqQSkpKehLblIFSrGaBwxeX/AAXcAtGBUS5UqVgV6FCb8iCVCUsh7/UHxLS0SAkD4wB7wHkFVMtaQbMkYq6IFHqGo0AOzZWEuU94D3holy5cvCWwoN7wYHFy5cvO/eF+c2anObly87LiszpHOGXLg5V2TUF4MJ8TosBIux5qWgnFP2mwICadQhLi0SoI8Q3OkPvFp4H2vx/txyhLVhoGCGDVxbjhZSPwhaixJ0Gz5P+QV5L5VxiGr8Rl7qaaqXqwjeH8xjeHktoRKrNtB7S62kNqqB+/wCIRTxL1EaqF8e0a+JyxxHU7Gc/SLquDb7hUnXv8e07Tpj/AK+5eq5oMcwaxGT4J8cKp0T5n7wl1cTw1PjhLXqhd4rIY7hzHxYqcQuARA8pXPm4HLxKxyK1wiXOQpKk4liKI6iin6PiXyt1+mbNEO8puJKi2UETQWPm65XiK61+mGJ4Kv8AtiCJBaBWHkAxD2ABRBLGAPmCD3w1njDhajuUS/V1hnmc/h//xAAmEAEAAgICAgICAgMBAAAAAAABABEhMUFRYXGBkaGxEMHR4fDx/9oACAEBAAE/EKo45ipyKRKRibvBVV1bouMNNsSt4mMNETAAtJh9Qi4GumjJChC5EO6eoXVCGXg3BREcGL6NoiUBpEpGNjASVdJk3CsCWF0K3zEZ2CcgDXDgN6zDCDAUrSstgVMjFWWv9sU6YAKaY3FpmUAA0M4zyfMPEZnFyUS5C9gavWKbW95L7tu+8wIIKgGc3u7/ADKFlWSFFZ3ig44gGBSCi1bX3OxgAYJgLt6JsMHRCXN0kFYMq4DCC14gYC8MoB4YIoYK18ThZWlmtQGgG9N9ywqeDwH9Qvuy/UregBCYKu+JjGh0QjtC5YbbRUIvALWWarKnZd1uEsGrQMjojmr8fdhrrGhYiq2cx2C/UIQhCM+XE6xXqVlev7W/xChklnXyxKM4wMH1HDzO8e1ley5iHXg0yr60efERffIGxwTCfK2fM2LDC6KQ+IT+yAW10/wQpZBgA6ur27hEnF5Jw1Cpe0tZrxmHfLKdSk1jqVRkxuAUiOD3DYQ0La8XnuUSaCUq8XwZf44+kKw2ZqOdIWFBHCOIpQ2lyLOUvz1E2DwTHEzP1KlRIMfMxIB5G4GcQrsXkBH9G8XK1dkpU/P4Z5kLiqnP1LpSCoX8s16iJNKDTDW3mPoTRZDYvcqVEhw/EIVMmibMXqv2RVLFFnHUZ99dDniO4ZC095f9ETS2C6ISwfcKrUDc8n3Bh4zBhKlRId+oMoLOW66Onj6YystBre8ns6dRhL+tVlgYcp7pjsUlUrYqHPww4IEqJB+n9Q5VE/Ioo2NXjx11KAPWh1LcLsz8xinKriQNWnOR3GS9oChuq/6oHMJRQHzz8w6ZUxUya+oe7Ze28d49/UqmWhF7OMxm1QVVGn7YIMnuV5hIb6wFlufxDFhtYhMAMAIRa2b1aW8r41TKuwFWNWJHNVmiwafqWQmYgK80LrVFtmBiHzrtG+O0JZ8xly1HW4PAF9o9XeFIYGfC/uU9pUo9jN9Q15Xs0LZOgPj+G6fmMW7VBgLUaW1d3Xkhx1ZefCJY4xv/AGc+5RbtPTMnbEmtjj3BNpkg018yxFabK0v/ABCa6FCwwVT1X7gVEq1zr7c6gRlTM0mI8v1yMAFqvEIMoXFGnmWjgttp2YLzFVdYVLVJnCRY5tS3vAwK1PNQJmNNAFC2HK+fQyz69Vs7PHUZ6IFa0Ra8/uKJQm1hijXFR7YsXsobAiOOPMpk0BjyCsMaY9zAFCgIitVkmTLKRasIelLvzLTgpU0O6uqjDIIKtbL5NQ+IT8H8eoNwRVZenT4ZbTMPLRm/C783LzsW7TeiMncGDiwxXb687iCKOYjKp9wdZlcjO+dV04QjmJ6Iez2yx/8AV/G44ijRE9QeQ8VPwK7+OLh+Ff0EYdEByIHcBgfEIFlQZtp3E/5JdbVVloakEwZeomg76dyn/clolgVbuClHiPM8XHt3AxBsgVpK2Mc1jhxtvxAP8HjzPPnmLFAqcNJwtW/csrTl8xAJjB9xXBgDRVVAdYgZZGgNAt32VZu5eYFsRuQ/15iwBvxFizBRuWewW9xy3LgeYqjJp0eWXDmoRGh4js8fmUI9Ss0+NNLyXgsebVzEfa1gT+TqUGSthTGbOnhiwyGSz/ww6JYypyxhp7hcPDjOl4PqBNAbpHtVorkKAxQ3/ibx15laCiXQ2jXFIhEA7iIV25/cFoSNmYMFY/SM1j7ambRHLRFfLt5f9RqVjFrPUNSK0JccEt7ZHt+ZYwAzVY1/ctsY6vmEN5u8JaKaABty7gYFMIASkY3pVZby8U/rQqt4xVVG0jbleYrq75Y1WtsZS6Jgt1jdamkIoO4LWDatKX/W5nvp6mEQJzL7AbxFaCQKjAKAbPtnxxPJDULcZrCjthctX4gBQA8T++fnTZ6n7v2/iOoxjPyv4Zxn/9k=;" vertex="1" parent="1">
          <mxGeometry x="675.75" y="178.34000000000003" width="51" height="89.38" as="geometry" />
        </mxCell>
        <mxCell id="vlCZbG9oBxgesIhF5QOp-2" value="" style="shape=image;verticalLabelPosition=bottom;labelBackgroundColor=default;verticalAlign=top;aspect=fixed;imageAspect=0;image=data:image/jpeg,/9j/4AAQSkZJRgABAQEBLAEsAAD/4QDGRXhpZgAASUkqAAgAAAAHABIBAwABAAAAAQAAABoBBQABAAAAYgAAABsBBQABAAAAagAAACgBAwABAAAAAgAAADEBAgANAAAAcgAAADIBAgAUAAAAgAAAAGmHBAABAAAAlAAAAAAAAAAsAQAAAQAAACwBAAABAAAAR0lNUCAyLjEwLjM4AAAyMDI1OjA1OjE2IDIyOjI1OjM5AAMAAaADAAEAAAABAAAAAqAEAAEAAABlAAAAA6AEAAEAAACxAAAAAAAAAP/hDNFodHRwOi8vbnMuYWRvYmUuY29tL3hhcC8xLjAvADw/eHBhY2tldCBiZWdpbj0i77u/IiBpZD0iVzVNME1wQ2VoaUh6cmVTek5UY3prYzlkIj8+IDx4OnhtcG1ldGEgeG1sbnM6eD0iYWRvYmU6bnM6bWV0YS8iIHg6eG1wdGs9IlhNUCBDb3JlIDQuNC4wLUV4aXYyIj4gPHJkZjpSREYgeG1sbnM6cmRmPSJodHRwOi8vd3d3LnczLm9yZy8xOTk5LzAyLzIyLXJkZi1zeW50YXgtbnMjIj4gPHJkZjpEZXNjcmlwdGlvbiByZGY6YWJvdXQ9IiIgeG1sbnM6eG1wTU09Imh0dHA6Ly9ucy5hZG9iZS5jb20veGFwLzEuMC9tbS8iIHhtbG5zOnN0RXZ0PSJodHRwOi8vbnMuYWRvYmUuY29tL3hhcC8xLjAvc1R5cGUvUmVzb3VyY2VFdmVudCMiIHhtbG5zOmRjPSJodHRwOi8vcHVybC5vcmcvZGMvZWxlbWVudHMvMS4xLyIgeG1sbnM6R0lNUD0iaHR0cDovL3d3dy5naW1wLm9yZy94bXAvIiB4bWxuczp4bXA9Imh0dHA6Ly9ucy5hZG9iZS5jb20veGFwLzEuMC8iIHhtcE1NOkRvY3VtZW50SUQ9ImdpbXA6ZG9jaWQ6Z2ltcDo5YmY3ZTUyZC1lNDliLTQ1Y2EtYmY4Yi0xNjM4NjQyOGM2ZDIiIHhtcE1NOkluc3RhbmNlSUQ9InhtcC5paWQ6NWIwZTdhZjMtNzE2My00ZmYyLTlkMDYtODg5YjA3ZDYwNWRmIiB4bXBNTTpPcmlnaW5hbERvY3VtZW50SUQ9InhtcC5kaWQ6NDhkNzE1NGYtZDZlMS00NzVhLThmOGQtMzNmNWMxZGM3MWU3IiBkYzpGb3JtYXQ9ImltYWdlL2pwZWciIEdJTVA6QVBJPSIyLjAiIEdJTVA6UGxhdGZvcm09Ik1hYyBPUyIgR0lNUDpUaW1lU3RhbXA9IjE3NDc0MjcxNDM4OTk2ODQiIEdJTVA6VmVyc2lvbj0iMi4xMC4zOCIgeG1wOkNyZWF0b3JUb29sPSJHSU1QIDIuMTAiIHhtcDpNZXRhZGF0YURhdGU9IjIwMjU6MDU6MTZUMjI6MjU6MzkrMDI6MDAiIHhtcDpNb2RpZnlEYXRlPSIyMDI1OjA1OjE2VDIyOjI1OjM5KzAyOjAwIj4gPHhtcE1NOkhpc3Rvcnk+IDxyZGY6U2VxPiA8cmRmOmxpIHN0RXZ0OmFjdGlvbj0ic2F2ZWQiIHN0RXZ0OmNoYW5nZWQ9Ii8iIHN0RXZ0Omluc3RhbmNlSUQ9InhtcC5paWQ6YjVlNWE5NTctNWUzOC00MjVmLTg5NzItNTEyOTU2MjZkMjg1IiBzdEV2dDpzb2Z0d2FyZUFnZW50PSJHaW1wIDIuMTAgKE1hYyBPUykiIHN0RXZ0OndoZW49IjIwMjUtMDUtMTZUMjI6MjU6NDMrMDI6MDAiLz4gPC9yZGY6U2VxPiA8L3htcE1NOkhpc3Rvcnk+IDwvcmRmOkRlc2NyaXB0aW9uPiA8L3JkZjpSREY+IDwveDp4bXBtZXRhPiAgICAgICAgICAgICAgICAgICAgICAgICAgICAgICAgICAgICAgICAgICAgICAgICAgICAgICAgICAgICAgICAgICAgICAgICAgICAgICAgICAgICAgICAgICAgICAgICAgICAgICAgICAgICAgICAgICAgICAgICAgICAgICAgICAgICAgICAgICAgICAgICAgICAgICAgICAgICAgICAgICAgICAgICAgICAgICAgICAgICAgICAgICAgICAgICAgICAgICAgICAgICAgICAgICAgICAgICAgICAgICAgICAgICAgICAgICAgICAgICAgICAgICAgICAgICAgICAgICAgICAgICAgICAgICAgICAgICAgICAgICAgICAgICAgICAgICAgICAgICAgICAgICAgICAgICAgICAgICAgICAgICAgICAgICAgICAgICAgICAgICAgICAgICAgICAgICAgICAgICAgICAgICAgICAgICAgICAgICAgICAgICAgICAgICAgICAgICAgICAgICAgICAgICAgICAgICAgICAgICAgICAgICAgICAgICAgICAgICAgICAgICAgICAgICAgICAgICAgICAgICAgICAgICAgICAgICAgICAgICAgICAgICAgICAgICAgICAgICAgICAgICAgICAgICAgICAgICAgICAgICAgICAgICAgICAgICAgICAgICAgICAgICAgICAgICAgICAgICAgICAgICAgICAgICAgICAgICAgICAgICAgICAgICAgICAgICAgICAgICAgICAgICAgICAgICAgICAgICAgICAgICAgICAgICAgICAgICAgICAgICAgICAgICAgICAgICAgICAgICAgICAgICAgICAgICAgICAgICAgICAgICAgICAgICAgICAgICAgICAgICAgICAgICAgICAgICAgICAgICAgICAgICAgICAgICAgICAgICAgICAgICAgICAgICAgICAgICAgICAgICAgICAgICAgICAgICAgICAgICAgICAgICAgICAgICAgICAgICAgICAgICAgICAgICAgICAgICAgICAgICAgICAgICAgICAgICAgICAgICAgICAgICAgICAgICAgICAgICAgICAgICAgICAgICAgICAgICAgICAgICAgICAgICAgICAgICAgICAgICAgICAgICAgICAgICAgICAgICAgICAgICAgICAgICAgICAgICAgICAgICAgICAgICAgICAgICAgICAgICAgICAgICAgICAgICAgICAgICAgICAgICAgICAgICAgICAgICAgICAgICAgICAgICAgICAgICAgICAgICAgICAgICAgICAgICAgICAgICAgICAgICAgICAgICAgICAgICAgICAgICAgICAgICAgICAgICAgICAgICAgICAgICAgICAgICAgICAgICAgICAgICAgICAgICAgICAgICAgICAgICAgICAgICAgICAgICAgICAgICAgICAgICAgICAgICAgICAgICAgICAgICAgICAgICAgICAgICAgICAgICAgICAgICAgICAgICAgICAgICAgICAgICAgICAgICAgICAgICAgICAgICAgICAgICAgICAgICAgICAgICAgICAgICAgICAgICAgICAgICAgICAgICAgICAgICAgICAgICAgICAgICAgICAgICAgICAgICAgICAgICAgICAgICAgICAgICAgICAgICAgICAgICAgICAgICAgICAgICAgICAgICAgICAgICAgICAgICAgICAgICAgICAgICAgICAgICAgICAgICAgICAgICAgICAgICAgICAgICAgICAgICAgICAgICAgICAgICAgICAgICAgICAgICAgICAgICAgICAgICAgICAgICAgICAgICAgICAgICAgICAgICAgICAgICAgICAgICAgICAgICAgICAgICAgICAgICAgICAgICAgICAgICAgICAgICAgICAgICAgICAgICAgICAgICAgICAgICAgICAgICAgICAgICAgICAgICAgICAgICAgICAgICAgICAgICAgICAgICAgICAgICAgICAgICAgICAgICAgICAgICAgICAgICAgICAgICAgICAgICAgICAgICAgICAgICAgICAgICAgICAgICAgICAgICAgICAgICAgICAgICAgICAgICAgICAgICAgICAgICAgICAgICAgICAgICAgICAgICAgICAgICAgICAgICAgICAgICAgICAgICAgICAgICAgICAgICAgICAgICAgICAgICAgICAgICAgICAgICAgICAgICAgICAgICAgICAgICAgICAgICAgICAgICAgICAgICAgICAgICAgICAgICAgICAgICAgICAgICAgICAgICAgICAgICAgICAgICAgICAgICAgICAgICAgICAgICAgICAgICAgICAgICAgICAgICAgICAgICAgICAgICAgICAgICAgICAgICAgICAgICAgICAgICAgICAgICAgICAgICAgICAgICAgICAgICAgICAgICAgICAgICAgICAgICAgICAgICAgICAgICAgICAgICAgICAgICAgICAgICAgICAgICAgICAgICAgICAgICAgICAgICAgICAgICAgICAgICAgICAgICAgICAgICAgICAgICAgICAgICAgICAgICAgIDw/eHBhY2tldCBlbmQ9InciPz7/4gKwSUNDX1BST0ZJTEUAAQEAAAKgbGNtcwRAAABtbnRyUkdCIFhZWiAH6QAFABAAFAAXACthY3NwQVBQTAAAAAAAAAAAAAAAAAAAAAAAAAAAAAAAAAAA9tYAAQAAAADTLWxjbXMAAAAAAAAAAAAAAAAAAAAAAAAAAAAAAAAAAAAAAAAAAAAAAAAAAAAAAAAAAAAAAA1kZXNjAAABIAAAAEBjcHJ0AAABYAAAADZ3dHB0AAABmAAAABRjaGFkAAABrAAAACxyWFlaAAAB2AAAABRiWFlaAAAB7AAAABRnWFlaAAACAAAAABRyVFJDAAACFAAAACBnVFJDAAACFAAAACBiVFJDAAACFAAAACBjaHJtAAACNAAAACRkbW5kAAACWAAAACRkbWRkAAACfAAAACRtbHVjAAAAAAAAAAEAAAAMZW5VUwAAACQAAAAcAEcASQBNAFAAIABiAHUAaQBsAHQALQBpAG4AIABzAFIARwBCbWx1YwAAAAAAAAABAAAADGVuVVMAAAAaAAAAHABQAHUAYgBsAGkAYwAgAEQAbwBtAGEAaQBuAABYWVogAAAAAAAA9tYAAQAAAADTLXNmMzIAAAAAAAEMQgAABd7///MlAAAHkwAA/ZD///uh///9ogAAA9wAAMBuWFlaIAAAAAAAAG+gAAA49QAAA5BYWVogAAAAAAAAJJ8AAA+EAAC2xFhZWiAAAAAAAABilwAAt4cAABjZcGFyYQAAAAAAAwAAAAJmZgAA8qcAAA1ZAAAT0AAACltjaHJtAAAAAAADAAAAAKPXAABUfAAATM0AAJmaAAAmZwAAD1xtbHVjAAAAAAAAAAEAAAAMZW5VUwAAAAgAAAAcAEcASQBNAFBtbHVjAAAAAAAAAAEAAAAMZW5VUwAAAAgAAAAcAHMAUgBHAEL/2wBDAAkGBwgHBgkIBwgKCgkLDRYPDQwMDRsUFRAWIB0iIiAdHx8kKDQsJCYxJx8fLT0tMTU3Ojo6Iys/RD84QzQ5Ojf/2wBDAQoKCg0MDRoPDxo3JR8lNzc3Nzc3Nzc3Nzc3Nzc3Nzc3Nzc3Nzc3Nzc3Nzc3Nzc3Nzc3Nzc3Nzc3Nzc3Nzc3Nzf/wgARCACxAGUDAREAAhEBAxEB/8QAGgAAAgMBAQAAAAAAAAAAAAAAAgQBAwUGAP/EABkBAAMBAQEAAAAAAAAAAAAAAAABAgMEBf/aAAwDAQACEAMQAAAB5S5uMzCSZCo18Pw20Ph4PBlMqMjFoJeBJ6XldJL46jXRsoEDDlmVPmIQlVG0FaAtGbxamQuRUKVEO6XjWawUSRp7rDTzGk0TRISEgmG0kI0VNd42rbQRj1FiRTtqzvmXjLSYaaIkT15DJNzICAKrZ308+xa8lGqA0kQCVc1jxkmUQ2CoF1az6ElnSCbGEEIHzMGBJeDwwdKnVrTqiysKAZly8JfNaSSnwQ2BVRevPWrVZASG3npn3xS8bVBJeF4YOqXpvLqXL55mshtURmprytYZ1E6U9WLfGFVJtoLrArEpC11EPGof6Off4p54wNibiuqUfTvrpEObo8jYjT00/r52kRkNV7Ozm1HPpCufyMq9l6og6rDrjPrtvxZjmX9G6O62/K6y5fQ9fkXRzc3t052t2I1ub0uvvDlJ87qrrkPRx6A2weDv6+Dk54Oqs4lvN1thFhHiCeFqiLXm/Z3C0rqICZ6U6t2Sm+eXnKTqdDy8EDAoG4bsz6VXbUg1mF85INV1UdIdcY/Tnm+flDYjZx6kbbSIkXBjXmEXT4dk3pR3cfPc2Ijuz3FaK0Oo1ct2o6+d14g25Oj5ejYx05z0+bIzzvjWFadoQcQUWE701jZebTHUY7V0sAXoEPA0klLJVUDWkmDaM5ki8BCMyMi2enORQqIrQuAZAQEB4TJzeEI//8QAKRAAAgIBAwIHAAIDAAAAAAAAAQIDBAAQERITFAUVICEiMTIjMzBBQv/aAAgBAQABBQIaBGK7aHWKvJJnllvPLLWHw20Bi/Ek8mistHW7qXjNM0polVnlmgePILSKPNIN/Mq+3mkQx2LttoWAwnfSvLIBJZc5I5dkcpgmbCxJ5HTnm5OvHK9yaXI0sxGxZew3qqcQloI2fnDucrtGhWxUDf8AW5GiGJYta0nASvyPqhZkk68ixzO7Lkb8GaSSQdV4k5cj6DnUK4IrAWZ5Ym0DR8JDFxT69Bw/syUt7LQMQw2xI2xvsYPQcOVKgnjvUzW1QjoN+x6TpW4jLfAjKqQBZZIeTtXfIoTJnauI0T+V1g6eHIkV3kStGEgqvFIvB0bg7xyjL2/Pw8OxWuWXk0cvczaHJcjEhq3InSDStR7gGlsaULcpZJAyQmWR4ijQ1zMzVyDHSacyeHGPJo+m2D78N5FpCxeiXLzFmeqT3ErFpKJbnOWMtIv153dss/rE/UR45LejNWM40tXtSfk9iqaCnbO+j7VD7iWr2s3vpGPcseXI4GOcjrvnI5yOcmxfcYMP60cRCP1R433/ALkGx0Q7NN2vTrdE13/GhwfFdHfgOs2520rRJcSOBlXxCt2+qLkra+HV1mD00JKcT75QjkgPW5ZdEu/Fjix7Y7+itZeHBYkDROWlm+6wifFqrxmMe8bbRs/ob6b4sW+KnbD8sjZ4nW5ZUba7E5w0P9bf14Po/wCH/8QAKhEAAgIBAgUEAQUBAAAAAAAAAAECEQMQEgQTICExFDAyQSIFM0JRUnH/2gAIAQMBAT8Bb1b0S9hss39qNzEvtjG+3Tem7RRbFFLRj6GrOXESoWMUUvflKjf3N0TdElJV2I5DybY0PVeSTG9L0vTGxQuNj6cip9KMfxI5HFV1ZX36UY2q6aMox9CEQ7roXgyv8h9KEQr6PvXdRKKkbGxwaVkVcu5txbH276IhHcyEVHqi6s/F/Y24y7HNnojB0rHcbPSTf8jJiak4/wBGSTf4sjjczkmPhd8XKxfpz87h45Y5uKHklHyRe5XrCuVbI0lRmvnySJW3ZiGcMly23/ZjSUTiL9RKidsx/DXhVeMjw8uZRxP70i4baIFqj9P+Ev8Ap6eXM2nF/vyPw20Y/jrLNOHaLPU5v9Em27ZbLZuZDNkh8Weqzf6HJt29MfjXJ51lGNdtaK1x+Nci+9YfI7HYeqQlS6KJxpkPkRg5eCXByS7E47dKIQroxxVdyEI/ZxWKpUhQaZCVeTdAnFybYsbFFLpjJoXENeCcnJ2/cXsOSQ8jL91H/8QAKREAAgIABQMEAQUAAAAAAAAAAAECEQMQEiExBCAwEzNBUSIFMkBhgf/aAAgBAgEBPwHwWWWX21mk7yooory13WUbHBfcz4ErKGU8nE4N77Hx4JFOyqzorwKVfwWxeB7CzfIvB8HxkzTeUYalZOWlidod32bm/YjDaULZKEpOxcdiyWerc9Uhj6eRdRhwfBCGuOoXS2rsmtEtJ6hrHi0Rleb/AHDyZgV6O5FJKkdR7rHyfQzD4yZPkc1Q/g2o6P2xYeJ6tnV+6a1R8I2ohxkxRT5NEfo0o0oUnHg9Sf2Nat2aI/RpRpQ1WTI8eKWTIvN5flt/hiL8X2PfssTsZPEjBXIh+pYG2/BHF9TDecpCzkNkJF2Y0JOnAcOo/ohi6cPRRqHKyuxmnKIy8nyV2PsXhfYvD//EADQQAAEDAgMGBAQFBQAAAAAAAAEAAhESIQMQMRMgIkFRYQQwMnEjM0KRUmKBkqFygqKx8P/aAAgBAQAGPwLIuDTA1O8KYvpLgJXyx+4L5Y/cF8v/ACGQI1RPVPwABDuaAnRS5AviO6oeZB7aZNGIHWjSLwp2L0RssSD3UtwXzykouOpM71LRLRc2UMBqUu1Vly+ynyDhMZ4drY0LSpA8O6nSeSjEZh1A+po35jinWFI9XPN22wy8QjPhiRNrdlYQMrK7KjF9y4sqotvy0SvS37KHNbHYZTSHe6aQxluiM4TI591IEdt6AiAxrp7o4boB7ZxSaoXAxwO/fRN+DiRN/t7puwY5trzmCB5NTnEDoAg4GWHNuo/VHyKcLGdTP4UWPxz1inKrGcJ6FCC2D/Cu5s9U6COFNfIhyAcCRzhPDMF9XK2mcPxBhjqU3Z47XD6lx+Ja13JFocHAcwmu6GUHOwfDy5wF0A5jWnqDMotZzb1hUOdFOhq16J0GDojx67gds8IsDefZOc/CwektzNJiOqipPIcAG2MotfEoioT3RadQqWlEF2icARwoS8foozIbT/cU4n3T2sDXSbhyL3NIkqGtBJ6mE5zhEnknNw6anc3JxIv2TtnFR6q7KQCZ90chlUPU61KPutntOFFBoZf8PQ9cq/q0pRWy2nD/ACnbmq1Wu7qtSr5nNpY4l/Mb5RynMTdOp2Xp5G9VkKtnoap17QjvgalcV1LdDkHYgbhsZw8P1FHDhpn6jyXC6WuFuuclQM3vcAbxdECLdgnMGVZEtcLCV6P9IvxIuY1ykqBuOa0pzp11Rc5BBmzc5/8A3dfJxTrdq+CHAfm8qVWwgOHZQ3Et/SPIHmf/xAAmEAEAAgICAgIBBQEBAAAAAAABABEhMUFREGFxgSCRobHB8NHh/9oACAEBAAE/IRbERpKSIAagwQp4VspAUc68YH637gn+A/uf5L+4katdf9IiNJmX1A2RmTKuPpratkqo6px1CaWhWIFaA/aX5YZe3vwgAZg+hvU7w+Tu5ivME8dKvYZsPSr3DyBfDIoGq1f6pTOMsaGz1iJ6uGCpfY53ZB6Ja0v14lXcRxmPM8AupovUJKHCE+oQWCqF+krMUMJZSflnQ+QSUeMNYVcUGreoxy/UflFArmJby44lD+bZVtSzA8Q2MkwlxRGoKuquOGvLZ1S1LMqncM5dsCVKiRIbEqSkuZJe3RvB4lrGvwV3Gway5qyLZgY7RCGCb0gfiz6/c9OCV/n4hkEOVwbBjDZtosv6jqXLbeoeXLD8WFgts4lqK/bkt/KpWWnLy/qwQPXhdinc0nRNpp+LSZzRWUstL112PT59eqxGXz8+B+J1MqgKqVx2L3ne6ffgLcdNqIN2Jpg76g5j5xS5d1FA4KFVC6+JShtkrhHwxTW5XbBq7n5lqY5px6SGs5jWypQUqPNRCt4vm35iIyHKcMvOmXrcjiPb38TDADgp8XEXnMuYAUWVuDLVRmk2IVXFq9oPiHs5Myz9vFRKChn9EBlemoXJoFRxAEqcwpj2VRDaWmVcD7lLRVOJ/Y7cTPIKnLWyHQdeBYPc2DNuQ66gp5WyGIQUu0MQdhRrB6mTXUaH3CyJb4XL5DAQN12dX3KkNDoY3Ba0uXVtzNfZ4NyUWdxLUl8T/wAlG0PpVDHd7lCe5sCaLZ9iZidw15U+/wD5KF9zNFhn23M3g11OIRAoT3oTlDsS5cscx7JkaUf/AGo17W3Gbz914GIZG7iXLlxfDNflP3UGi/U+RQ8AoUHJ3MzzV0KUD1uDeGFvxCunjyoc7xnwlkxgRCwAlleogwPq579jKTJhVkdkLV5h4LHX9AlnV45iQpeG6qOn6NH7TYhGyVyKlUd2H+dwqKdWjnDfv1MvhU3orH7Q0D7gcj3CCDnysJSqYgk+RzFEyx6upb2XWvr04uKutVWYq/fUScFzbNwAtPuX6jnztgQRw8zQa+pmPcOAYS0wUNfrAZQXR7L6l/UCjwSA5zKrXmDqf0zh8fibPLP/2gAMAwEAAgADAAAAENuACObZz3ZhbQiKAZK/0cn7DwAEwXu1Bgn7oL08EShXEwgN7f0IkFxw3JiMg5tUo9qOBW52lXAhFPaEG2INZUJILaz1tpYi8Y8T4Lv6yu1kSlSJxVjxZWtMaXz+coFPN+lsOEI+xkQSEl6rFXDIJIT/AP/EACcRAQACAwAABQQCAwAAAAAAAAEAERAhMSBBUWGRcaGx4YHB0fDx/9oACAEDAQE/EKDHlcshKi3wVKlYtbj5mWtSHKKvmRVUDYxcuXKYfRFXGcnCQ1BQV4AFM1VUHiI9nOMVKly2XcrxCXTPOoMrRcPWJ7xO4iHYILIAfWCmst08pRbGW2LhcIGPdTeZo1m4sDTFly5cUqCIQRfAodgusZcvClKXNRyKrj2E4i3Lly4otxUx01k3aXLBcXhSt7gvTiebBUOE60GoPIQXGGBxNEL+Dd/WGGuuoiVGlvwMBWa3NaJ17/GoutuBXvv0hOp5sOejrdcgCz7P3EK6W75LISKrcWNXLwqDXL/uOAfZ+42d1/2InZBEHc0bHfLf5gCIEINvnChkuWESts3Vo8n0IEB+fxKA6/RFoqg/MOmCWh7v9Q9vDdwfPFNmppcdeG/9HCPtnb9v8w/Ifgg9OoNcESshPefMWJax9SAcZ7sBRS/Rh6v5iZ7WDFeJBvhIAq3KlQgwMhL4TA0lRW38zhlYsZqM9lUqc7k4RuhGihv5nBgtOhjl14EXxCeV0lRD30gHL+09SkteHXk5rDwi3G4wlYOS83GDKVeExcrPcjORTtj2EOQ5HvheRy//xAAlEQEAAgMAAQQBBQEAAAAAAAABABEQITFBIFFhcTCBkaGx8NH/2gAIAQIBAT8QxfqQSkpKehLblIFSrGaBwxeX/AAXcAtGBUS5UqVgV6FCb8iCVCUsh7/UHxLS0SAkD4wB7wHkFVMtaQbMkYq6IFHqGo0AOzZWEuU94D3holy5cvCWwoN7wYHFy5cvO/eF+c2anObly87LiszpHOGXLg5V2TUF4MJ8TosBIux5qWgnFP2mwICadQhLi0SoI8Q3OkPvFp4H2vx/txyhLVhoGCGDVxbjhZSPwhaixJ0Gz5P+QV5L5VxiGr8Rl7qaaqXqwjeH8xjeHktoRKrNtB7S62kNqqB+/wCIRTxL1EaqF8e0a+JyxxHU7Gc/SLquDb7hUnXv8e07Tpj/AK+5eq5oMcwaxGT4J8cKp0T5n7wl1cTw1PjhLXqhd4rIY7hzHxYqcQuARA8pXPm4HLxKxyK1wiXOQpKk4liKI6iin6PiXyt1+mbNEO8puJKi2UETQWPm65XiK61+mGJ4Kv8AtiCJBaBWHkAxD2ABRBLGAPmCD3w1njDhajuUS/V1hnmc/h//xAAmEAEAAgICAgICAgMBAAAAAAABABEhMUFRYXGBkaGxEMHR4fDx/9oACAEBAAE/EKo45ipyKRKRibvBVV1bouMNNsSt4mMNETAAtJh9Qi4GumjJChC5EO6eoXVCGXg3BREcGL6NoiUBpEpGNjASVdJk3CsCWF0K3zEZ2CcgDXDgN6zDCDAUrSstgVMjFWWv9sU6YAKaY3FpmUAA0M4zyfMPEZnFyUS5C9gavWKbW95L7tu+8wIIKgGc3u7/ADKFlWSFFZ3ig44gGBSCi1bX3OxgAYJgLt6JsMHRCXN0kFYMq4DCC14gYC8MoB4YIoYK18ThZWlmtQGgG9N9ywqeDwH9Qvuy/UregBCYKu+JjGh0QjtC5YbbRUIvALWWarKnZd1uEsGrQMjojmr8fdhrrGhYiq2cx2C/UIQhCM+XE6xXqVlev7W/xChklnXyxKM4wMH1HDzO8e1ley5iHXg0yr60efERffIGxwTCfK2fM2LDC6KQ+IT+yAW10/wQpZBgA6ur27hEnF5Jw1Cpe0tZrxmHfLKdSk1jqVRkxuAUiOD3DYQ0La8XnuUSaCUq8XwZf44+kKw2ZqOdIWFBHCOIpQ2lyLOUvz1E2DwTHEzP1KlRIMfMxIB5G4GcQrsXkBH9G8XK1dkpU/P4Z5kLiqnP1LpSCoX8s16iJNKDTDW3mPoTRZDYvcqVEhw/EIVMmibMXqv2RVLFFnHUZ99dDniO4ZC095f9ETS2C6ISwfcKrUDc8n3Bh4zBhKlRId+oMoLOW66Onj6YystBre8ns6dRhL+tVlgYcp7pjsUlUrYqHPww4IEqJB+n9Q5VE/Ioo2NXjx11KAPWh1LcLsz8xinKriQNWnOR3GS9oChuq/6oHMJRQHzz8w6ZUxUya+oe7Ze28d49/UqmWhF7OMxm1QVVGn7YIMnuV5hIb6wFlufxDFhtYhMAMAIRa2b1aW8r41TKuwFWNWJHNVmiwafqWQmYgK80LrVFtmBiHzrtG+O0JZ8xly1HW4PAF9o9XeFIYGfC/uU9pUo9jN9Q15Xs0LZOgPj+G6fmMW7VBgLUaW1d3Xkhx1ZefCJY4xv/AGc+5RbtPTMnbEmtjj3BNpkg018yxFabK0v/ABCa6FCwwVT1X7gVEq1zr7c6gRlTM0mI8v1yMAFqvEIMoXFGnmWjgttp2YLzFVdYVLVJnCRY5tS3vAwK1PNQJmNNAFC2HK+fQyz69Vs7PHUZ6IFa0Ra8/uKJQm1hijXFR7YsXsobAiOOPMpk0BjyCsMaY9zAFCgIitVkmTLKRasIelLvzLTgpU0O6uqjDIIKtbL5NQ+IT8H8eoNwRVZenT4ZbTMPLRm/C783LzsW7TeiMncGDiwxXb687iCKOYjKp9wdZlcjO+dV04QjmJ6Iez2yx/8AV/G44ijRE9QeQ8VPwK7+OLh+Ff0EYdEByIHcBgfEIFlQZtp3E/5JdbVVloakEwZeomg76dyn/clolgVbuClHiPM8XHt3AxBsgVpK2Mc1jhxtvxAP8HjzPPnmLFAqcNJwtW/csrTl8xAJjB9xXBgDRVVAdYgZZGgNAt32VZu5eYFsRuQ/15iwBvxFizBRuWewW9xy3LgeYqjJp0eWXDmoRGh4js8fmUI9Ss0+NNLyXgsebVzEfa1gT+TqUGSthTGbOnhiwyGSz/ww6JYypyxhp7hcPDjOl4PqBNAbpHtVorkKAxQ3/ibx15laCiXQ2jXFIhEA7iIV25/cFoSNmYMFY/SM1j7ambRHLRFfLt5f9RqVjFrPUNSK0JccEt7ZHt+ZYwAzVY1/ctsY6vmEN5u8JaKaABty7gYFMIASkY3pVZby8U/rQqt4xVVG0jbleYrq75Y1WtsZS6Jgt1jdamkIoO4LWDatKX/W5nvp6mEQJzL7AbxFaCQKjAKAbPtnxxPJDULcZrCjthctX4gBQA8T++fnTZ6n7v2/iOoxjPyv4Zxn/9k=;" vertex="1" parent="1">
          <mxGeometry x="696.25" y="198.34000000000003" width="51" height="89.38" as="geometry" />
        </mxCell>
        <mxCell id="vlCZbG9oBxgesIhF5QOp-3" value="" style="shape=image;verticalLabelPosition=bottom;labelBackgroundColor=default;verticalAlign=top;aspect=fixed;imageAspect=0;image=data:image/jpeg,/9j/4AAQSkZJRgABAQEBLAEsAAD/4QDGRXhpZgAASUkqAAgAAAAHABIBAwABAAAAAQAAABoBBQABAAAAYgAAABsBBQABAAAAagAAACgBAwABAAAAAgAAADEBAgANAAAAcgAAADIBAgAUAAAAgAAAAGmHBAABAAAAlAAAAAAAAAAsAQAAAQAAACwBAAABAAAAR0lNUCAyLjEwLjM4AAAyMDI1OjA1OjE2IDIyOjI1OjM5AAMAAaADAAEAAAABAAAAAqAEAAEAAABlAAAAA6AEAAEAAACxAAAAAAAAAP/hDNFodHRwOi8vbnMuYWRvYmUuY29tL3hhcC8xLjAvADw/eHBhY2tldCBiZWdpbj0i77u/IiBpZD0iVzVNME1wQ2VoaUh6cmVTek5UY3prYzlkIj8+IDx4OnhtcG1ldGEgeG1sbnM6eD0iYWRvYmU6bnM6bWV0YS8iIHg6eG1wdGs9IlhNUCBDb3JlIDQuNC4wLUV4aXYyIj4gPHJkZjpSREYgeG1sbnM6cmRmPSJodHRwOi8vd3d3LnczLm9yZy8xOTk5LzAyLzIyLXJkZi1zeW50YXgtbnMjIj4gPHJkZjpEZXNjcmlwdGlvbiByZGY6YWJvdXQ9IiIgeG1sbnM6eG1wTU09Imh0dHA6Ly9ucy5hZG9iZS5jb20veGFwLzEuMC9tbS8iIHhtbG5zOnN0RXZ0PSJodHRwOi8vbnMuYWRvYmUuY29tL3hhcC8xLjAvc1R5cGUvUmVzb3VyY2VFdmVudCMiIHhtbG5zOmRjPSJodHRwOi8vcHVybC5vcmcvZGMvZWxlbWVudHMvMS4xLyIgeG1sbnM6R0lNUD0iaHR0cDovL3d3dy5naW1wLm9yZy94bXAvIiB4bWxuczp4bXA9Imh0dHA6Ly9ucy5hZG9iZS5jb20veGFwLzEuMC8iIHhtcE1NOkRvY3VtZW50SUQ9ImdpbXA6ZG9jaWQ6Z2ltcDo5YmY3ZTUyZC1lNDliLTQ1Y2EtYmY4Yi0xNjM4NjQyOGM2ZDIiIHhtcE1NOkluc3RhbmNlSUQ9InhtcC5paWQ6NWIwZTdhZjMtNzE2My00ZmYyLTlkMDYtODg5YjA3ZDYwNWRmIiB4bXBNTTpPcmlnaW5hbERvY3VtZW50SUQ9InhtcC5kaWQ6NDhkNzE1NGYtZDZlMS00NzVhLThmOGQtMzNmNWMxZGM3MWU3IiBkYzpGb3JtYXQ9ImltYWdlL2pwZWciIEdJTVA6QVBJPSIyLjAiIEdJTVA6UGxhdGZvcm09Ik1hYyBPUyIgR0lNUDpUaW1lU3RhbXA9IjE3NDc0MjcxNDM4OTk2ODQiIEdJTVA6VmVyc2lvbj0iMi4xMC4zOCIgeG1wOkNyZWF0b3JUb29sPSJHSU1QIDIuMTAiIHhtcDpNZXRhZGF0YURhdGU9IjIwMjU6MDU6MTZUMjI6MjU6MzkrMDI6MDAiIHhtcDpNb2RpZnlEYXRlPSIyMDI1OjA1OjE2VDIyOjI1OjM5KzAyOjAwIj4gPHhtcE1NOkhpc3Rvcnk+IDxyZGY6U2VxPiA8cmRmOmxpIHN0RXZ0OmFjdGlvbj0ic2F2ZWQiIHN0RXZ0OmNoYW5nZWQ9Ii8iIHN0RXZ0Omluc3RhbmNlSUQ9InhtcC5paWQ6YjVlNWE5NTctNWUzOC00MjVmLTg5NzItNTEyOTU2MjZkMjg1IiBzdEV2dDpzb2Z0d2FyZUFnZW50PSJHaW1wIDIuMTAgKE1hYyBPUykiIHN0RXZ0OndoZW49IjIwMjUtMDUtMTZUMjI6MjU6NDMrMDI6MDAiLz4gPC9yZGY6U2VxPiA8L3htcE1NOkhpc3Rvcnk+IDwvcmRmOkRlc2NyaXB0aW9uPiA8L3JkZjpSREY+IDwveDp4bXBtZXRhPiAgICAgICAgICAgICAgICAgICAgICAgICAgICAgICAgICAgICAgICAgICAgICAgICAgICAgICAgICAgICAgICAgICAgICAgICAgICAgICAgICAgICAgICAgICAgICAgICAgICAgICAgICAgICAgICAgICAgICAgICAgICAgICAgICAgICAgICAgICAgICAgICAgICAgICAgICAgICAgICAgICAgICAgICAgICAgICAgICAgICAgICAgICAgICAgICAgICAgICAgICAgICAgICAgICAgICAgICAgICAgICAgICAgICAgICAgICAgICAgICAgICAgICAgICAgICAgICAgICAgICAgICAgICAgICAgICAgICAgICAgICAgICAgICAgICAgICAgICAgICAgICAgICAgICAgICAgICAgICAgICAgICAgICAgICAgICAgICAgICAgICAgICAgICAgICAgICAgICAgICAgICAgICAgICAgICAgICAgICAgICAgICAgICAgICAgICAgICAgICAgICAgICAgICAgICAgICAgICAgICAgICAgICAgICAgICAgICAgICAgICAgICAgICAgICAgICAgICAgICAgICAgICAgICAgICAgICAgICAgICAgICAgICAgICAgICAgICAgICAgICAgICAgICAgICAgICAgICAgICAgICAgICAgICAgICAgICAgICAgICAgICAgICAgICAgICAgICAgICAgICAgICAgICAgICAgICAgICAgICAgICAgICAgICAgICAgICAgICAgICAgICAgICAgICAgICAgICAgICAgICAgICAgICAgICAgICAgICAgICAgICAgICAgICAgICAgICAgICAgICAgICAgICAgICAgICAgICAgICAgICAgICAgICAgICAgICAgICAgICAgICAgICAgICAgICAgICAgICAgICAgICAgICAgICAgICAgICAgICAgICAgICAgICAgICAgICAgICAgICAgICAgICAgICAgICAgICAgICAgICAgICAgICAgICAgICAgICAgICAgICAgICAgICAgICAgICAgICAgICAgICAgICAgICAgICAgICAgICAgICAgICAgICAgICAgICAgICAgICAgICAgICAgICAgICAgICAgICAgICAgICAgICAgICAgICAgICAgICAgICAgICAgICAgICAgICAgICAgICAgICAgICAgICAgICAgICAgICAgICAgICAgICAgICAgICAgICAgICAgICAgICAgICAgICAgICAgICAgICAgICAgICAgICAgICAgICAgICAgICAgICAgICAgICAgICAgICAgICAgICAgICAgICAgICAgICAgICAgICAgICAgICAgICAgICAgICAgICAgICAgICAgICAgICAgICAgICAgICAgICAgICAgICAgICAgICAgICAgICAgICAgICAgICAgICAgICAgICAgICAgICAgICAgICAgICAgICAgICAgICAgICAgICAgICAgICAgICAgICAgICAgICAgICAgICAgICAgICAgICAgICAgICAgICAgICAgICAgICAgICAgICAgICAgICAgICAgICAgICAgICAgICAgICAgICAgICAgICAgICAgICAgICAgICAgICAgICAgICAgICAgICAgICAgICAgICAgICAgICAgICAgICAgICAgICAgICAgICAgICAgICAgICAgICAgICAgICAgICAgICAgICAgICAgICAgICAgICAgICAgICAgICAgICAgICAgICAgICAgICAgICAgICAgICAgICAgICAgICAgICAgICAgICAgICAgICAgICAgICAgICAgICAgICAgICAgICAgICAgICAgICAgICAgICAgICAgICAgICAgICAgICAgICAgICAgICAgICAgICAgICAgICAgICAgICAgICAgICAgICAgICAgICAgICAgICAgICAgICAgICAgICAgICAgICAgICAgICAgICAgICAgICAgICAgICAgICAgICAgICAgICAgICAgICAgICAgICAgICAgICAgICAgICAgICAgICAgICAgICAgICAgICAgICAgICAgICAgICAgICAgICAgICAgICAgICAgICAgICAgICAgICAgICAgICAgICAgICAgICAgICAgICAgICAgICAgICAgICAgICAgICAgICAgICAgICAgICAgICAgICAgICAgICAgICAgICAgICAgICAgICAgICAgICAgICAgICAgICAgICAgICAgICAgICAgICAgICAgICAgICAgICAgICAgICAgICAgICAgICAgICAgICAgICAgICAgICAgICAgICAgICAgICAgICAgICAgICAgICAgICAgICAgICAgICAgICAgICAgICAgICAgICAgICAgICAgICAgICAgICAgICAgICAgICAgICAgICAgICAgICAgICAgICAgICAgICAgICAgICAgICAgICAgICAgICAgICAgICAgICAgICAgICAgICAgICAgICAgICAgICAgICAgICAgICAgICAgICAgICAgICAgICAgICAgICAgICAgICAgICAgICAgICAgICAgICAgICAgICAgICAgICAgICAgICAgICAgICAgICAgICAgICAgICAgICAgICAgICAgICAgICAgICAgICAgICAgICAgICAgICAgICAgICAgIDw/eHBhY2tldCBlbmQ9InciPz7/4gKwSUNDX1BST0ZJTEUAAQEAAAKgbGNtcwRAAABtbnRyUkdCIFhZWiAH6QAFABAAFAAXACthY3NwQVBQTAAAAAAAAAAAAAAAAAAAAAAAAAAAAAAAAAAA9tYAAQAAAADTLWxjbXMAAAAAAAAAAAAAAAAAAAAAAAAAAAAAAAAAAAAAAAAAAAAAAAAAAAAAAAAAAAAAAA1kZXNjAAABIAAAAEBjcHJ0AAABYAAAADZ3dHB0AAABmAAAABRjaGFkAAABrAAAACxyWFlaAAAB2AAAABRiWFlaAAAB7AAAABRnWFlaAAACAAAAABRyVFJDAAACFAAAACBnVFJDAAACFAAAACBiVFJDAAACFAAAACBjaHJtAAACNAAAACRkbW5kAAACWAAAACRkbWRkAAACfAAAACRtbHVjAAAAAAAAAAEAAAAMZW5VUwAAACQAAAAcAEcASQBNAFAAIABiAHUAaQBsAHQALQBpAG4AIABzAFIARwBCbWx1YwAAAAAAAAABAAAADGVuVVMAAAAaAAAAHABQAHUAYgBsAGkAYwAgAEQAbwBtAGEAaQBuAABYWVogAAAAAAAA9tYAAQAAAADTLXNmMzIAAAAAAAEMQgAABd7///MlAAAHkwAA/ZD///uh///9ogAAA9wAAMBuWFlaIAAAAAAAAG+gAAA49QAAA5BYWVogAAAAAAAAJJ8AAA+EAAC2xFhZWiAAAAAAAABilwAAt4cAABjZcGFyYQAAAAAAAwAAAAJmZgAA8qcAAA1ZAAAT0AAACltjaHJtAAAAAAADAAAAAKPXAABUfAAATM0AAJmaAAAmZwAAD1xtbHVjAAAAAAAAAAEAAAAMZW5VUwAAAAgAAAAcAEcASQBNAFBtbHVjAAAAAAAAAAEAAAAMZW5VUwAAAAgAAAAcAHMAUgBHAEL/2wBDAAkGBwgHBgkIBwgKCgkLDRYPDQwMDRsUFRAWIB0iIiAdHx8kKDQsJCYxJx8fLT0tMTU3Ojo6Iys/RD84QzQ5Ojf/2wBDAQoKCg0MDRoPDxo3JR8lNzc3Nzc3Nzc3Nzc3Nzc3Nzc3Nzc3Nzc3Nzc3Nzc3Nzc3Nzc3Nzc3Nzc3Nzc3Nzc3Nzf/wgARCACxAGUDAREAAhEBAxEB/8QAGgAAAgMBAQAAAAAAAAAAAAAAAgQBAwUGAP/EABkBAAMBAQEAAAAAAAAAAAAAAAABAgMEBf/aAAwDAQACEAMQAAAB5S5uMzCSZCo18Pw20Ph4PBlMqMjFoJeBJ6XldJL46jXRsoEDDlmVPmIQlVG0FaAtGbxamQuRUKVEO6XjWawUSRp7rDTzGk0TRISEgmG0kI0VNd42rbQRj1FiRTtqzvmXjLSYaaIkT15DJNzICAKrZ308+xa8lGqA0kQCVc1jxkmUQ2CoF1az6ElnSCbGEEIHzMGBJeDwwdKnVrTqiysKAZly8JfNaSSnwQ2BVRevPWrVZASG3npn3xS8bVBJeF4YOqXpvLqXL55mshtURmprytYZ1E6U9WLfGFVJtoLrArEpC11EPGof6Off4p54wNibiuqUfTvrpEObo8jYjT00/r52kRkNV7Ozm1HPpCufyMq9l6og6rDrjPrtvxZjmX9G6O62/K6y5fQ9fkXRzc3t052t2I1ub0uvvDlJ87qrrkPRx6A2weDv6+Dk54Oqs4lvN1thFhHiCeFqiLXm/Z3C0rqICZ6U6t2Sm+eXnKTqdDy8EDAoG4bsz6VXbUg1mF85INV1UdIdcY/Tnm+flDYjZx6kbbSIkXBjXmEXT4dk3pR3cfPc2Ijuz3FaK0Oo1ct2o6+d14g25Oj5ejYx05z0+bIzzvjWFadoQcQUWE701jZebTHUY7V0sAXoEPA0klLJVUDWkmDaM5ki8BCMyMi2enORQqIrQuAZAQEB4TJzeEI//8QAKRAAAgIBAwIHAAIDAAAAAAAAAQIDBAAQERITFAUVICEiMTIjMzBBQv/aAAgBAQABBQIaBGK7aHWKvJJnllvPLLWHw20Bi/Ek8mistHW7qXjNM0polVnlmgePILSKPNIN/Mq+3mkQx2LttoWAwnfSvLIBJZc5I5dkcpgmbCxJ5HTnm5OvHK9yaXI0sxGxZew3qqcQloI2fnDucrtGhWxUDf8AW5GiGJYta0nASvyPqhZkk68ixzO7Lkb8GaSSQdV4k5cj6DnUK4IrAWZ5Ym0DR8JDFxT69Bw/syUt7LQMQw2xI2xvsYPQcOVKgnjvUzW1QjoN+x6TpW4jLfAjKqQBZZIeTtXfIoTJnauI0T+V1g6eHIkV3kStGEgqvFIvB0bg7xyjL2/Pw8OxWuWXk0cvczaHJcjEhq3InSDStR7gGlsaULcpZJAyQmWR4ijQ1zMzVyDHSacyeHGPJo+m2D78N5FpCxeiXLzFmeqT3ErFpKJbnOWMtIv153dss/rE/UR45LejNWM40tXtSfk9iqaCnbO+j7VD7iWr2s3vpGPcseXI4GOcjrvnI5yOcmxfcYMP60cRCP1R433/ALkGx0Q7NN2vTrdE13/GhwfFdHfgOs2520rRJcSOBlXxCt2+qLkra+HV1mD00JKcT75QjkgPW5ZdEu/Fjix7Y7+itZeHBYkDROWlm+6wifFqrxmMe8bbRs/ob6b4sW+KnbD8sjZ4nW5ZUba7E5w0P9bf14Po/wCH/8QAKhEAAgIBAgUEAQUBAAAAAAAAAAECEQMQEgQTICExFDAyQSIFM0JRUnH/2gAIAQMBAT8Bb1b0S9hss39qNzEvtjG+3Tem7RRbFFLRj6GrOXESoWMUUvflKjf3N0TdElJV2I5DybY0PVeSTG9L0vTGxQuNj6cip9KMfxI5HFV1ZX36UY2q6aMox9CEQ7roXgyv8h9KEQr6PvXdRKKkbGxwaVkVcu5txbH276IhHcyEVHqi6s/F/Y24y7HNnojB0rHcbPSTf8jJiak4/wBGSTf4sjjczkmPhd8XKxfpz87h45Y5uKHklHyRe5XrCuVbI0lRmvnySJW3ZiGcMly23/ZjSUTiL9RKidsx/DXhVeMjw8uZRxP70i4baIFqj9P+Ev8Ap6eXM2nF/vyPw20Y/jrLNOHaLPU5v9Em27ZbLZuZDNkh8Weqzf6HJt29MfjXJ51lGNdtaK1x+Nci+9YfI7HYeqQlS6KJxpkPkRg5eCXByS7E47dKIQroxxVdyEI/ZxWKpUhQaZCVeTdAnFybYsbFFLpjJoXENeCcnJ2/cXsOSQ8jL91H/8QAKREAAgIABQMEAQUAAAAAAAAAAAECEQMQEiExBCAwEzNBUSIFMkBhgf/aAAgBAgEBPwHwWWWX21mk7yooory13WUbHBfcz4ErKGU8nE4N77Hx4JFOyqzorwKVfwWxeB7CzfIvB8HxkzTeUYalZOWlidod32bm/YjDaULZKEpOxcdiyWerc9Uhj6eRdRhwfBCGuOoXS2rsmtEtJ6hrHi0Rleb/AHDyZgV6O5FJKkdR7rHyfQzD4yZPkc1Q/g2o6P2xYeJ6tnV+6a1R8I2ohxkxRT5NEfo0o0oUnHg9Sf2Nat2aI/RpRpQ1WTI8eKWTIvN5flt/hiL8X2PfssTsZPEjBXIh+pYG2/BHF9TDecpCzkNkJF2Y0JOnAcOo/ohi6cPRRqHKyuxmnKIy8nyV2PsXhfYvD//EADQQAAEDAgMGBAQFBQAAAAAAAAEAAhESIQMQMRMgIkFRYQQwMnEjM0KRUmKBkqFygqKx8P/aAAgBAQAGPwLIuDTA1O8KYvpLgJXyx+4L5Y/cF8v/ACGQI1RPVPwABDuaAnRS5AviO6oeZB7aZNGIHWjSLwp2L0RssSD3UtwXzykouOpM71LRLRc2UMBqUu1Vly+ynyDhMZ4drY0LSpA8O6nSeSjEZh1A+po35jinWFI9XPN22wy8QjPhiRNrdlYQMrK7KjF9y4sqotvy0SvS37KHNbHYZTSHe6aQxluiM4TI591IEdt6AiAxrp7o4boB7ZxSaoXAxwO/fRN+DiRN/t7puwY5trzmCB5NTnEDoAg4GWHNuo/VHyKcLGdTP4UWPxz1inKrGcJ6FCC2D/Cu5s9U6COFNfIhyAcCRzhPDMF9XK2mcPxBhjqU3Z47XD6lx+Ja13JFocHAcwmu6GUHOwfDy5wF0A5jWnqDMotZzb1hUOdFOhq16J0GDojx67gds8IsDefZOc/CwektzNJiOqipPIcAG2MotfEoioT3RadQqWlEF2icARwoS8foozIbT/cU4n3T2sDXSbhyL3NIkqGtBJ6mE5zhEnknNw6anc3JxIv2TtnFR6q7KQCZ90chlUPU61KPutntOFFBoZf8PQ9cq/q0pRWy2nD/ACnbmq1Wu7qtSr5nNpY4l/Mb5RynMTdOp2Xp5G9VkKtnoap17QjvgalcV1LdDkHYgbhsZw8P1FHDhpn6jyXC6WuFuuclQM3vcAbxdECLdgnMGVZEtcLCV6P9IvxIuY1ykqBuOa0pzp11Rc5BBmzc5/8A3dfJxTrdq+CHAfm8qVWwgOHZQ3Et/SPIHmf/xAAmEAEAAgICAgIBBQEBAAAAAAABABEhMUFREGFxgSCRobHB8NHh/9oACAEBAAE/IRbERpKSIAagwQp4VspAUc68YH637gn+A/uf5L+4katdf9IiNJmX1A2RmTKuPpratkqo6px1CaWhWIFaA/aX5YZe3vwgAZg+hvU7w+Tu5ivME8dKvYZsPSr3DyBfDIoGq1f6pTOMsaGz1iJ6uGCpfY53ZB6Ja0v14lXcRxmPM8AupovUJKHCE+oQWCqF+krMUMJZSflnQ+QSUeMNYVcUGreoxy/UflFArmJby44lD+bZVtSzA8Q2MkwlxRGoKuquOGvLZ1S1LMqncM5dsCVKiRIbEqSkuZJe3RvB4lrGvwV3Gway5qyLZgY7RCGCb0gfiz6/c9OCV/n4hkEOVwbBjDZtosv6jqXLbeoeXLD8WFgts4lqK/bkt/KpWWnLy/qwQPXhdinc0nRNpp+LSZzRWUstL112PT59eqxGXz8+B+J1MqgKqVx2L3ne6ffgLcdNqIN2Jpg76g5j5xS5d1FA4KFVC6+JShtkrhHwxTW5XbBq7n5lqY5px6SGs5jWypQUqPNRCt4vm35iIyHKcMvOmXrcjiPb38TDADgp8XEXnMuYAUWVuDLVRmk2IVXFq9oPiHs5Myz9vFRKChn9EBlemoXJoFRxAEqcwpj2VRDaWmVcD7lLRVOJ/Y7cTPIKnLWyHQdeBYPc2DNuQ66gp5WyGIQUu0MQdhRrB6mTXUaH3CyJb4XL5DAQN12dX3KkNDoY3Ba0uXVtzNfZ4NyUWdxLUl8T/wAlG0PpVDHd7lCe5sCaLZ9iZidw15U+/wD5KF9zNFhn23M3g11OIRAoT3oTlDsS5cscx7JkaUf/AGo17W3Gbz914GIZG7iXLlxfDNflP3UGi/U+RQ8AoUHJ3MzzV0KUD1uDeGFvxCunjyoc7xnwlkxgRCwAlleogwPq579jKTJhVkdkLV5h4LHX9AlnV45iQpeG6qOn6NH7TYhGyVyKlUd2H+dwqKdWjnDfv1MvhU3orH7Q0D7gcj3CCDnysJSqYgk+RzFEyx6upb2XWvr04uKutVWYq/fUScFzbNwAtPuX6jnztgQRw8zQa+pmPcOAYS0wUNfrAZQXR7L6l/UCjwSA5zKrXmDqf0zh8fibPLP/2gAMAwEAAgADAAAAENuACObZz3ZhbQiKAZK/0cn7DwAEwXu1Bgn7oL08EShXEwgN7f0IkFxw3JiMg5tUo9qOBW52lXAhFPaEG2INZUJILaz1tpYi8Y8T4Lv6yu1kSlSJxVjxZWtMaXz+coFPN+lsOEI+xkQSEl6rFXDIJIT/AP/EACcRAQACAwAABQQCAwAAAAAAAAEAERAhMSBBUWGRcaGx4YHB0fDx/9oACAEDAQE/EKDHlcshKi3wVKlYtbj5mWtSHKKvmRVUDYxcuXKYfRFXGcnCQ1BQV4AFM1VUHiI9nOMVKly2XcrxCXTPOoMrRcPWJ7xO4iHYILIAfWCmst08pRbGW2LhcIGPdTeZo1m4sDTFly5cUqCIQRfAodgusZcvClKXNRyKrj2E4i3Lly4otxUx01k3aXLBcXhSt7gvTiebBUOE60GoPIQXGGBxNEL+Dd/WGGuuoiVGlvwMBWa3NaJ17/GoutuBXvv0hOp5sOejrdcgCz7P3EK6W75LISKrcWNXLwqDXL/uOAfZ+42d1/2InZBEHc0bHfLf5gCIEINvnChkuWESts3Vo8n0IEB+fxKA6/RFoqg/MOmCWh7v9Q9vDdwfPFNmppcdeG/9HCPtnb9v8w/Ifgg9OoNcESshPefMWJax9SAcZ7sBRS/Rh6v5iZ7WDFeJBvhIAq3KlQgwMhL4TA0lRW38zhlYsZqM9lUqc7k4RuhGihv5nBgtOhjl14EXxCeV0lRD30gHL+09SkteHXk5rDwi3G4wlYOS83GDKVeExcrPcjORTtj2EOQ5HvheRy//xAAlEQEAAgMAAQQBBQEAAAAAAAABABEQITFBIFFhcTCBkaGx8NH/2gAIAQIBAT8QxfqQSkpKehLblIFSrGaBwxeX/AAXcAtGBUS5UqVgV6FCb8iCVCUsh7/UHxLS0SAkD4wB7wHkFVMtaQbMkYq6IFHqGo0AOzZWEuU94D3holy5cvCWwoN7wYHFy5cvO/eF+c2anObly87LiszpHOGXLg5V2TUF4MJ8TosBIux5qWgnFP2mwICadQhLi0SoI8Q3OkPvFp4H2vx/txyhLVhoGCGDVxbjhZSPwhaixJ0Gz5P+QV5L5VxiGr8Rl7qaaqXqwjeH8xjeHktoRKrNtB7S62kNqqB+/wCIRTxL1EaqF8e0a+JyxxHU7Gc/SLquDb7hUnXv8e07Tpj/AK+5eq5oMcwaxGT4J8cKp0T5n7wl1cTw1PjhLXqhd4rIY7hzHxYqcQuARA8pXPm4HLxKxyK1wiXOQpKk4liKI6iin6PiXyt1+mbNEO8puJKi2UETQWPm65XiK61+mGJ4Kv8AtiCJBaBWHkAxD2ABRBLGAPmCD3w1njDhajuUS/V1hnmc/h//xAAmEAEAAgICAgICAgMBAAAAAAABABEhMUFRYXGBkaGxEMHR4fDx/9oACAEBAAE/EKo45ipyKRKRibvBVV1bouMNNsSt4mMNETAAtJh9Qi4GumjJChC5EO6eoXVCGXg3BREcGL6NoiUBpEpGNjASVdJk3CsCWF0K3zEZ2CcgDXDgN6zDCDAUrSstgVMjFWWv9sU6YAKaY3FpmUAA0M4zyfMPEZnFyUS5C9gavWKbW95L7tu+8wIIKgGc3u7/ADKFlWSFFZ3ig44gGBSCi1bX3OxgAYJgLt6JsMHRCXN0kFYMq4DCC14gYC8MoB4YIoYK18ThZWlmtQGgG9N9ywqeDwH9Qvuy/UregBCYKu+JjGh0QjtC5YbbRUIvALWWarKnZd1uEsGrQMjojmr8fdhrrGhYiq2cx2C/UIQhCM+XE6xXqVlev7W/xChklnXyxKM4wMH1HDzO8e1ley5iHXg0yr60efERffIGxwTCfK2fM2LDC6KQ+IT+yAW10/wQpZBgA6ur27hEnF5Jw1Cpe0tZrxmHfLKdSk1jqVRkxuAUiOD3DYQ0La8XnuUSaCUq8XwZf44+kKw2ZqOdIWFBHCOIpQ2lyLOUvz1E2DwTHEzP1KlRIMfMxIB5G4GcQrsXkBH9G8XK1dkpU/P4Z5kLiqnP1LpSCoX8s16iJNKDTDW3mPoTRZDYvcqVEhw/EIVMmibMXqv2RVLFFnHUZ99dDniO4ZC095f9ETS2C6ISwfcKrUDc8n3Bh4zBhKlRId+oMoLOW66Onj6YystBre8ns6dRhL+tVlgYcp7pjsUlUrYqHPww4IEqJB+n9Q5VE/Ioo2NXjx11KAPWh1LcLsz8xinKriQNWnOR3GS9oChuq/6oHMJRQHzz8w6ZUxUya+oe7Ze28d49/UqmWhF7OMxm1QVVGn7YIMnuV5hIb6wFlufxDFhtYhMAMAIRa2b1aW8r41TKuwFWNWJHNVmiwafqWQmYgK80LrVFtmBiHzrtG+O0JZ8xly1HW4PAF9o9XeFIYGfC/uU9pUo9jN9Q15Xs0LZOgPj+G6fmMW7VBgLUaW1d3Xkhx1ZefCJY4xv/AGc+5RbtPTMnbEmtjj3BNpkg018yxFabK0v/ABCa6FCwwVT1X7gVEq1zr7c6gRlTM0mI8v1yMAFqvEIMoXFGnmWjgttp2YLzFVdYVLVJnCRY5tS3vAwK1PNQJmNNAFC2HK+fQyz69Vs7PHUZ6IFa0Ra8/uKJQm1hijXFR7YsXsobAiOOPMpk0BjyCsMaY9zAFCgIitVkmTLKRasIelLvzLTgpU0O6uqjDIIKtbL5NQ+IT8H8eoNwRVZenT4ZbTMPLRm/C783LzsW7TeiMncGDiwxXb687iCKOYjKp9wdZlcjO+dV04QjmJ6Iez2yx/8AV/G44ijRE9QeQ8VPwK7+OLh+Ff0EYdEByIHcBgfEIFlQZtp3E/5JdbVVloakEwZeomg76dyn/clolgVbuClHiPM8XHt3AxBsgVpK2Mc1jhxtvxAP8HjzPPnmLFAqcNJwtW/csrTl8xAJjB9xXBgDRVVAdYgZZGgNAt32VZu5eYFsRuQ/15iwBvxFizBRuWewW9xy3LgeYqjJp0eWXDmoRGh4js8fmUI9Ss0+NNLyXgsebVzEfa1gT+TqUGSthTGbOnhiwyGSz/ww6JYypyxhp7hcPDjOl4PqBNAbpHtVorkKAxQ3/ibx15laCiXQ2jXFIhEA7iIV25/cFoSNmYMFY/SM1j7ambRHLRFfLt5f9RqVjFrPUNSK0JccEt7ZHt+ZYwAzVY1/ctsY6vmEN5u8JaKaABty7gYFMIASkY3pVZby8U/rQqt4xVVG0jbleYrq75Y1WtsZS6Jgt1jdamkIoO4LWDatKX/W5nvp6mEQJzL7AbxFaCQKjAKAbPtnxxPJDULcZrCjthctX4gBQA8T++fnTZ6n7v2/iOoxjPyv4Zxn/9k=;" vertex="1" parent="1">
          <mxGeometry x="716.25" y="223.65000000000003" width="51" height="89.38" as="geometry" />
        </mxCell>
        <mxCell id="vlCZbG9oBxgesIhF5QOp-4" value="" style="shape=image;verticalLabelPosition=bottom;labelBackgroundColor=default;verticalAlign=top;aspect=fixed;imageAspect=0;image=data:image/jpeg,/9j/4AAQSkZJRgABAQEBLAEsAAD/4QDGRXhpZgAASUkqAAgAAAAHABIBAwABAAAAAQAAABoBBQABAAAAYgAAABsBBQABAAAAagAAACgBAwABAAAAAgAAADEBAgANAAAAcgAAADIBAgAUAAAAgAAAAGmHBAABAAAAlAAAAAAAAAAsAQAAAQAAACwBAAABAAAAR0lNUCAyLjEwLjM4AAAyMDI1OjA1OjE2IDIyOjI1OjM5AAMAAaADAAEAAAABAAAAAqAEAAEAAABlAAAAA6AEAAEAAACxAAAAAAAAAP/hDNFodHRwOi8vbnMuYWRvYmUuY29tL3hhcC8xLjAvADw/eHBhY2tldCBiZWdpbj0i77u/IiBpZD0iVzVNME1wQ2VoaUh6cmVTek5UY3prYzlkIj8+IDx4OnhtcG1ldGEgeG1sbnM6eD0iYWRvYmU6bnM6bWV0YS8iIHg6eG1wdGs9IlhNUCBDb3JlIDQuNC4wLUV4aXYyIj4gPHJkZjpSREYgeG1sbnM6cmRmPSJodHRwOi8vd3d3LnczLm9yZy8xOTk5LzAyLzIyLXJkZi1zeW50YXgtbnMjIj4gPHJkZjpEZXNjcmlwdGlvbiByZGY6YWJvdXQ9IiIgeG1sbnM6eG1wTU09Imh0dHA6Ly9ucy5hZG9iZS5jb20veGFwLzEuMC9tbS8iIHhtbG5zOnN0RXZ0PSJodHRwOi8vbnMuYWRvYmUuY29tL3hhcC8xLjAvc1R5cGUvUmVzb3VyY2VFdmVudCMiIHhtbG5zOmRjPSJodHRwOi8vcHVybC5vcmcvZGMvZWxlbWVudHMvMS4xLyIgeG1sbnM6R0lNUD0iaHR0cDovL3d3dy5naW1wLm9yZy94bXAvIiB4bWxuczp4bXA9Imh0dHA6Ly9ucy5hZG9iZS5jb20veGFwLzEuMC8iIHhtcE1NOkRvY3VtZW50SUQ9ImdpbXA6ZG9jaWQ6Z2ltcDo5YmY3ZTUyZC1lNDliLTQ1Y2EtYmY4Yi0xNjM4NjQyOGM2ZDIiIHhtcE1NOkluc3RhbmNlSUQ9InhtcC5paWQ6NWIwZTdhZjMtNzE2My00ZmYyLTlkMDYtODg5YjA3ZDYwNWRmIiB4bXBNTTpPcmlnaW5hbERvY3VtZW50SUQ9InhtcC5kaWQ6NDhkNzE1NGYtZDZlMS00NzVhLThmOGQtMzNmNWMxZGM3MWU3IiBkYzpGb3JtYXQ9ImltYWdlL2pwZWciIEdJTVA6QVBJPSIyLjAiIEdJTVA6UGxhdGZvcm09Ik1hYyBPUyIgR0lNUDpUaW1lU3RhbXA9IjE3NDc0MjcxNDM4OTk2ODQiIEdJTVA6VmVyc2lvbj0iMi4xMC4zOCIgeG1wOkNyZWF0b3JUb29sPSJHSU1QIDIuMTAiIHhtcDpNZXRhZGF0YURhdGU9IjIwMjU6MDU6MTZUMjI6MjU6MzkrMDI6MDAiIHhtcDpNb2RpZnlEYXRlPSIyMDI1OjA1OjE2VDIyOjI1OjM5KzAyOjAwIj4gPHhtcE1NOkhpc3Rvcnk+IDxyZGY6U2VxPiA8cmRmOmxpIHN0RXZ0OmFjdGlvbj0ic2F2ZWQiIHN0RXZ0OmNoYW5nZWQ9Ii8iIHN0RXZ0Omluc3RhbmNlSUQ9InhtcC5paWQ6YjVlNWE5NTctNWUzOC00MjVmLTg5NzItNTEyOTU2MjZkMjg1IiBzdEV2dDpzb2Z0d2FyZUFnZW50PSJHaW1wIDIuMTAgKE1hYyBPUykiIHN0RXZ0OndoZW49IjIwMjUtMDUtMTZUMjI6MjU6NDMrMDI6MDAiLz4gPC9yZGY6U2VxPiA8L3htcE1NOkhpc3Rvcnk+IDwvcmRmOkRlc2NyaXB0aW9uPiA8L3JkZjpSREY+IDwveDp4bXBtZXRhPiAgICAgICAgICAgICAgICAgICAgICAgICAgICAgICAgICAgICAgICAgICAgICAgICAgICAgICAgICAgICAgICAgICAgICAgICAgICAgICAgICAgICAgICAgICAgICAgICAgICAgICAgICAgICAgICAgICAgICAgICAgICAgICAgICAgICAgICAgICAgICAgICAgICAgICAgICAgICAgICAgICAgICAgICAgICAgICAgICAgICAgICAgICAgICAgICAgICAgICAgICAgICAgICAgICAgICAgICAgICAgICAgICAgICAgICAgICAgICAgICAgICAgICAgICAgICAgICAgICAgICAgICAgICAgICAgICAgICAgICAgICAgICAgICAgICAgICAgICAgICAgICAgICAgICAgICAgICAgICAgICAgICAgICAgICAgICAgICAgICAgICAgICAgICAgICAgICAgICAgICAgICAgICAgICAgICAgICAgICAgICAgICAgICAgICAgICAgICAgICAgICAgICAgICAgICAgICAgICAgICAgICAgICAgICAgICAgICAgICAgICAgICAgICAgICAgICAgICAgICAgICAgICAgICAgICAgICAgICAgICAgICAgICAgICAgICAgICAgICAgICAgICAgICAgICAgICAgICAgICAgICAgICAgICAgICAgICAgICAgICAgICAgICAgICAgICAgICAgICAgICAgICAgICAgICAgICAgICAgICAgICAgICAgICAgICAgICAgICAgICAgICAgICAgICAgICAgICAgICAgICAgICAgICAgICAgICAgICAgICAgICAgICAgICAgICAgICAgICAgICAgICAgICAgICAgICAgICAgICAgICAgICAgICAgICAgICAgICAgICAgICAgICAgICAgICAgICAgICAgICAgICAgICAgICAgICAgICAgICAgICAgICAgICAgICAgICAgICAgICAgICAgICAgICAgICAgICAgICAgICAgICAgICAgICAgICAgICAgICAgICAgICAgICAgICAgICAgICAgICAgICAgICAgICAgICAgICAgICAgICAgICAgICAgICAgICAgICAgICAgICAgICAgICAgICAgICAgICAgICAgICAgICAgICAgICAgICAgICAgICAgICAgICAgICAgICAgICAgICAgICAgICAgICAgICAgICAgICAgICAgICAgICAgICAgICAgICAgICAgICAgICAgICAgICAgICAgICAgICAgICAgICAgICAgICAgICAgICAgICAgICAgICAgICAgICAgICAgICAgICAgICAgICAgICAgICAgICAgICAgICAgICAgICAgICAgICAgICAgICAgICAgICAgICAgICAgICAgICAgICAgICAgICAgICAgICAgICAgICAgICAgICAgICAgICAgICAgICAgICAgICAgICAgICAgICAgICAgICAgICAgICAgICAgICAgICAgICAgICAgICAgICAgICAgICAgICAgICAgICAgICAgICAgICAgICAgICAgICAgICAgICAgICAgICAgICAgICAgICAgICAgICAgICAgICAgICAgICAgICAgICAgICAgICAgICAgICAgICAgICAgICAgICAgICAgICAgICAgICAgICAgICAgICAgICAgICAgICAgICAgICAgICAgICAgICAgICAgICAgICAgICAgICAgICAgICAgICAgICAgICAgICAgICAgICAgICAgICAgICAgICAgICAgICAgICAgICAgICAgICAgICAgICAgICAgICAgICAgICAgICAgICAgICAgICAgICAgICAgICAgICAgICAgICAgICAgICAgICAgICAgICAgICAgICAgICAgICAgICAgICAgICAgICAgICAgICAgICAgICAgICAgICAgICAgICAgICAgICAgICAgICAgICAgICAgICAgICAgICAgICAgICAgICAgICAgICAgICAgICAgICAgICAgICAgICAgICAgICAgICAgICAgICAgICAgICAgICAgICAgICAgICAgICAgICAgICAgICAgICAgICAgICAgICAgICAgICAgICAgICAgICAgICAgICAgICAgICAgICAgICAgICAgICAgICAgICAgICAgICAgICAgICAgICAgICAgICAgICAgICAgICAgICAgICAgICAgICAgICAgICAgICAgICAgICAgICAgICAgICAgICAgICAgICAgICAgICAgICAgICAgICAgICAgICAgICAgICAgICAgICAgICAgICAgICAgICAgICAgICAgICAgICAgICAgICAgICAgICAgICAgICAgICAgICAgICAgICAgICAgICAgICAgICAgICAgICAgICAgICAgICAgICAgICAgICAgICAgICAgICAgICAgICAgICAgICAgICAgICAgICAgICAgICAgICAgICAgICAgICAgICAgICAgICAgICAgICAgICAgICAgICAgICAgICAgICAgICAgICAgICAgICAgICAgICAgICAgICAgICAgICAgICAgICAgICAgICAgICAgICAgICAgICAgICAgICAgICAgICAgICAgICAgICAgICAgICAgICAgICAgICAgICAgICAgICAgICAgICAgICAgICAgICAgIDw/eHBhY2tldCBlbmQ9InciPz7/4gKwSUNDX1BST0ZJTEUAAQEAAAKgbGNtcwRAAABtbnRyUkdCIFhZWiAH6QAFABAAFAAXACthY3NwQVBQTAAAAAAAAAAAAAAAAAAAAAAAAAAAAAAAAAAA9tYAAQAAAADTLWxjbXMAAAAAAAAAAAAAAAAAAAAAAAAAAAAAAAAAAAAAAAAAAAAAAAAAAAAAAAAAAAAAAA1kZXNjAAABIAAAAEBjcHJ0AAABYAAAADZ3dHB0AAABmAAAABRjaGFkAAABrAAAACxyWFlaAAAB2AAAABRiWFlaAAAB7AAAABRnWFlaAAACAAAAABRyVFJDAAACFAAAACBnVFJDAAACFAAAACBiVFJDAAACFAAAACBjaHJtAAACNAAAACRkbW5kAAACWAAAACRkbWRkAAACfAAAACRtbHVjAAAAAAAAAAEAAAAMZW5VUwAAACQAAAAcAEcASQBNAFAAIABiAHUAaQBsAHQALQBpAG4AIABzAFIARwBCbWx1YwAAAAAAAAABAAAADGVuVVMAAAAaAAAAHABQAHUAYgBsAGkAYwAgAEQAbwBtAGEAaQBuAABYWVogAAAAAAAA9tYAAQAAAADTLXNmMzIAAAAAAAEMQgAABd7///MlAAAHkwAA/ZD///uh///9ogAAA9wAAMBuWFlaIAAAAAAAAG+gAAA49QAAA5BYWVogAAAAAAAAJJ8AAA+EAAC2xFhZWiAAAAAAAABilwAAt4cAABjZcGFyYQAAAAAAAwAAAAJmZgAA8qcAAA1ZAAAT0AAACltjaHJtAAAAAAADAAAAAKPXAABUfAAATM0AAJmaAAAmZwAAD1xtbHVjAAAAAAAAAAEAAAAMZW5VUwAAAAgAAAAcAEcASQBNAFBtbHVjAAAAAAAAAAEAAAAMZW5VUwAAAAgAAAAcAHMAUgBHAEL/2wBDAAkGBwgHBgkIBwgKCgkLDRYPDQwMDRsUFRAWIB0iIiAdHx8kKDQsJCYxJx8fLT0tMTU3Ojo6Iys/RD84QzQ5Ojf/2wBDAQoKCg0MDRoPDxo3JR8lNzc3Nzc3Nzc3Nzc3Nzc3Nzc3Nzc3Nzc3Nzc3Nzc3Nzc3Nzc3Nzc3Nzc3Nzc3Nzc3Nzf/wgARCACxAGUDAREAAhEBAxEB/8QAGgAAAgMBAQAAAAAAAAAAAAAAAgQBAwUGAP/EABkBAAMBAQEAAAAAAAAAAAAAAAABAgMEBf/aAAwDAQACEAMQAAAB5S5uMzCSZCo18Pw20Ph4PBlMqMjFoJeBJ6XldJL46jXRsoEDDlmVPmIQlVG0FaAtGbxamQuRUKVEO6XjWawUSRp7rDTzGk0TRISEgmG0kI0VNd42rbQRj1FiRTtqzvmXjLSYaaIkT15DJNzICAKrZ308+xa8lGqA0kQCVc1jxkmUQ2CoF1az6ElnSCbGEEIHzMGBJeDwwdKnVrTqiysKAZly8JfNaSSnwQ2BVRevPWrVZASG3npn3xS8bVBJeF4YOqXpvLqXL55mshtURmprytYZ1E6U9WLfGFVJtoLrArEpC11EPGof6Off4p54wNibiuqUfTvrpEObo8jYjT00/r52kRkNV7Ozm1HPpCufyMq9l6og6rDrjPrtvxZjmX9G6O62/K6y5fQ9fkXRzc3t052t2I1ub0uvvDlJ87qrrkPRx6A2weDv6+Dk54Oqs4lvN1thFhHiCeFqiLXm/Z3C0rqICZ6U6t2Sm+eXnKTqdDy8EDAoG4bsz6VXbUg1mF85INV1UdIdcY/Tnm+flDYjZx6kbbSIkXBjXmEXT4dk3pR3cfPc2Ijuz3FaK0Oo1ct2o6+d14g25Oj5ejYx05z0+bIzzvjWFadoQcQUWE701jZebTHUY7V0sAXoEPA0klLJVUDWkmDaM5ki8BCMyMi2enORQqIrQuAZAQEB4TJzeEI//8QAKRAAAgIBAwIHAAIDAAAAAAAAAQIDBAAQERITFAUVICEiMTIjMzBBQv/aAAgBAQABBQIaBGK7aHWKvJJnllvPLLWHw20Bi/Ek8mistHW7qXjNM0polVnlmgePILSKPNIN/Mq+3mkQx2LttoWAwnfSvLIBJZc5I5dkcpgmbCxJ5HTnm5OvHK9yaXI0sxGxZew3qqcQloI2fnDucrtGhWxUDf8AW5GiGJYta0nASvyPqhZkk68ixzO7Lkb8GaSSQdV4k5cj6DnUK4IrAWZ5Ym0DR8JDFxT69Bw/syUt7LQMQw2xI2xvsYPQcOVKgnjvUzW1QjoN+x6TpW4jLfAjKqQBZZIeTtXfIoTJnauI0T+V1g6eHIkV3kStGEgqvFIvB0bg7xyjL2/Pw8OxWuWXk0cvczaHJcjEhq3InSDStR7gGlsaULcpZJAyQmWR4ijQ1zMzVyDHSacyeHGPJo+m2D78N5FpCxeiXLzFmeqT3ErFpKJbnOWMtIv153dss/rE/UR45LejNWM40tXtSfk9iqaCnbO+j7VD7iWr2s3vpGPcseXI4GOcjrvnI5yOcmxfcYMP60cRCP1R433/ALkGx0Q7NN2vTrdE13/GhwfFdHfgOs2520rRJcSOBlXxCt2+qLkra+HV1mD00JKcT75QjkgPW5ZdEu/Fjix7Y7+itZeHBYkDROWlm+6wifFqrxmMe8bbRs/ob6b4sW+KnbD8sjZ4nW5ZUba7E5w0P9bf14Po/wCH/8QAKhEAAgIBAgUEAQUBAAAAAAAAAAECEQMQEgQTICExFDAyQSIFM0JRUnH/2gAIAQMBAT8Bb1b0S9hss39qNzEvtjG+3Tem7RRbFFLRj6GrOXESoWMUUvflKjf3N0TdElJV2I5DybY0PVeSTG9L0vTGxQuNj6cip9KMfxI5HFV1ZX36UY2q6aMox9CEQ7roXgyv8h9KEQr6PvXdRKKkbGxwaVkVcu5txbH276IhHcyEVHqi6s/F/Y24y7HNnojB0rHcbPSTf8jJiak4/wBGSTf4sjjczkmPhd8XKxfpz87h45Y5uKHklHyRe5XrCuVbI0lRmvnySJW3ZiGcMly23/ZjSUTiL9RKidsx/DXhVeMjw8uZRxP70i4baIFqj9P+Ev8Ap6eXM2nF/vyPw20Y/jrLNOHaLPU5v9Em27ZbLZuZDNkh8Weqzf6HJt29MfjXJ51lGNdtaK1x+Nci+9YfI7HYeqQlS6KJxpkPkRg5eCXByS7E47dKIQroxxVdyEI/ZxWKpUhQaZCVeTdAnFybYsbFFLpjJoXENeCcnJ2/cXsOSQ8jL91H/8QAKREAAgIABQMEAQUAAAAAAAAAAAECEQMQEiExBCAwEzNBUSIFMkBhgf/aAAgBAgEBPwHwWWWX21mk7yooory13WUbHBfcz4ErKGU8nE4N77Hx4JFOyqzorwKVfwWxeB7CzfIvB8HxkzTeUYalZOWlidod32bm/YjDaULZKEpOxcdiyWerc9Uhj6eRdRhwfBCGuOoXS2rsmtEtJ6hrHi0Rleb/AHDyZgV6O5FJKkdR7rHyfQzD4yZPkc1Q/g2o6P2xYeJ6tnV+6a1R8I2ohxkxRT5NEfo0o0oUnHg9Sf2Nat2aI/RpRpQ1WTI8eKWTIvN5flt/hiL8X2PfssTsZPEjBXIh+pYG2/BHF9TDecpCzkNkJF2Y0JOnAcOo/ohi6cPRRqHKyuxmnKIy8nyV2PsXhfYvD//EADQQAAEDAgMGBAQFBQAAAAAAAAEAAhESIQMQMRMgIkFRYQQwMnEjM0KRUmKBkqFygqKx8P/aAAgBAQAGPwLIuDTA1O8KYvpLgJXyx+4L5Y/cF8v/ACGQI1RPVPwABDuaAnRS5AviO6oeZB7aZNGIHWjSLwp2L0RssSD3UtwXzykouOpM71LRLRc2UMBqUu1Vly+ynyDhMZ4drY0LSpA8O6nSeSjEZh1A+po35jinWFI9XPN22wy8QjPhiRNrdlYQMrK7KjF9y4sqotvy0SvS37KHNbHYZTSHe6aQxluiM4TI591IEdt6AiAxrp7o4boB7ZxSaoXAxwO/fRN+DiRN/t7puwY5trzmCB5NTnEDoAg4GWHNuo/VHyKcLGdTP4UWPxz1inKrGcJ6FCC2D/Cu5s9U6COFNfIhyAcCRzhPDMF9XK2mcPxBhjqU3Z47XD6lx+Ja13JFocHAcwmu6GUHOwfDy5wF0A5jWnqDMotZzb1hUOdFOhq16J0GDojx67gds8IsDefZOc/CwektzNJiOqipPIcAG2MotfEoioT3RadQqWlEF2icARwoS8foozIbT/cU4n3T2sDXSbhyL3NIkqGtBJ6mE5zhEnknNw6anc3JxIv2TtnFR6q7KQCZ90chlUPU61KPutntOFFBoZf8PQ9cq/q0pRWy2nD/ACnbmq1Wu7qtSr5nNpY4l/Mb5RynMTdOp2Xp5G9VkKtnoap17QjvgalcV1LdDkHYgbhsZw8P1FHDhpn6jyXC6WuFuuclQM3vcAbxdECLdgnMGVZEtcLCV6P9IvxIuY1ykqBuOa0pzp11Rc5BBmzc5/8A3dfJxTrdq+CHAfm8qVWwgOHZQ3Et/SPIHmf/xAAmEAEAAgICAgIBBQEBAAAAAAABABEhMUFREGFxgSCRobHB8NHh/9oACAEBAAE/IRbERpKSIAagwQp4VspAUc68YH637gn+A/uf5L+4katdf9IiNJmX1A2RmTKuPpratkqo6px1CaWhWIFaA/aX5YZe3vwgAZg+hvU7w+Tu5ivME8dKvYZsPSr3DyBfDIoGq1f6pTOMsaGz1iJ6uGCpfY53ZB6Ja0v14lXcRxmPM8AupovUJKHCE+oQWCqF+krMUMJZSflnQ+QSUeMNYVcUGreoxy/UflFArmJby44lD+bZVtSzA8Q2MkwlxRGoKuquOGvLZ1S1LMqncM5dsCVKiRIbEqSkuZJe3RvB4lrGvwV3Gway5qyLZgY7RCGCb0gfiz6/c9OCV/n4hkEOVwbBjDZtosv6jqXLbeoeXLD8WFgts4lqK/bkt/KpWWnLy/qwQPXhdinc0nRNpp+LSZzRWUstL112PT59eqxGXz8+B+J1MqgKqVx2L3ne6ffgLcdNqIN2Jpg76g5j5xS5d1FA4KFVC6+JShtkrhHwxTW5XbBq7n5lqY5px6SGs5jWypQUqPNRCt4vm35iIyHKcMvOmXrcjiPb38TDADgp8XEXnMuYAUWVuDLVRmk2IVXFq9oPiHs5Myz9vFRKChn9EBlemoXJoFRxAEqcwpj2VRDaWmVcD7lLRVOJ/Y7cTPIKnLWyHQdeBYPc2DNuQ66gp5WyGIQUu0MQdhRrB6mTXUaH3CyJb4XL5DAQN12dX3KkNDoY3Ba0uXVtzNfZ4NyUWdxLUl8T/wAlG0PpVDHd7lCe5sCaLZ9iZidw15U+/wD5KF9zNFhn23M3g11OIRAoT3oTlDsS5cscx7JkaUf/AGo17W3Gbz914GIZG7iXLlxfDNflP3UGi/U+RQ8AoUHJ3MzzV0KUD1uDeGFvxCunjyoc7xnwlkxgRCwAlleogwPq579jKTJhVkdkLV5h4LHX9AlnV45iQpeG6qOn6NH7TYhGyVyKlUd2H+dwqKdWjnDfv1MvhU3orH7Q0D7gcj3CCDnysJSqYgk+RzFEyx6upb2XWvr04uKutVWYq/fUScFzbNwAtPuX6jnztgQRw8zQa+pmPcOAYS0wUNfrAZQXR7L6l/UCjwSA5zKrXmDqf0zh8fibPLP/2gAMAwEAAgADAAAAENuACObZz3ZhbQiKAZK/0cn7DwAEwXu1Bgn7oL08EShXEwgN7f0IkFxw3JiMg5tUo9qOBW52lXAhFPaEG2INZUJILaz1tpYi8Y8T4Lv6yu1kSlSJxVjxZWtMaXz+coFPN+lsOEI+xkQSEl6rFXDIJIT/AP/EACcRAQACAwAABQQCAwAAAAAAAAEAERAhMSBBUWGRcaGx4YHB0fDx/9oACAEDAQE/EKDHlcshKi3wVKlYtbj5mWtSHKKvmRVUDYxcuXKYfRFXGcnCQ1BQV4AFM1VUHiI9nOMVKly2XcrxCXTPOoMrRcPWJ7xO4iHYILIAfWCmst08pRbGW2LhcIGPdTeZo1m4sDTFly5cUqCIQRfAodgusZcvClKXNRyKrj2E4i3Lly4otxUx01k3aXLBcXhSt7gvTiebBUOE60GoPIQXGGBxNEL+Dd/WGGuuoiVGlvwMBWa3NaJ17/GoutuBXvv0hOp5sOejrdcgCz7P3EK6W75LISKrcWNXLwqDXL/uOAfZ+42d1/2InZBEHc0bHfLf5gCIEINvnChkuWESts3Vo8n0IEB+fxKA6/RFoqg/MOmCWh7v9Q9vDdwfPFNmppcdeG/9HCPtnb9v8w/Ifgg9OoNcESshPefMWJax9SAcZ7sBRS/Rh6v5iZ7WDFeJBvhIAq3KlQgwMhL4TA0lRW38zhlYsZqM9lUqc7k4RuhGihv5nBgtOhjl14EXxCeV0lRD30gHL+09SkteHXk5rDwi3G4wlYOS83GDKVeExcrPcjORTtj2EOQ5HvheRy//xAAlEQEAAgMAAQQBBQEAAAAAAAABABEQITFBIFFhcTCBkaGx8NH/2gAIAQIBAT8QxfqQSkpKehLblIFSrGaBwxeX/AAXcAtGBUS5UqVgV6FCb8iCVCUsh7/UHxLS0SAkD4wB7wHkFVMtaQbMkYq6IFHqGo0AOzZWEuU94D3holy5cvCWwoN7wYHFy5cvO/eF+c2anObly87LiszpHOGXLg5V2TUF4MJ8TosBIux5qWgnFP2mwICadQhLi0SoI8Q3OkPvFp4H2vx/txyhLVhoGCGDVxbjhZSPwhaixJ0Gz5P+QV5L5VxiGr8Rl7qaaqXqwjeH8xjeHktoRKrNtB7S62kNqqB+/wCIRTxL1EaqF8e0a+JyxxHU7Gc/SLquDb7hUnXv8e07Tpj/AK+5eq5oMcwaxGT4J8cKp0T5n7wl1cTw1PjhLXqhd4rIY7hzHxYqcQuARA8pXPm4HLxKxyK1wiXOQpKk4liKI6iin6PiXyt1+mbNEO8puJKi2UETQWPm65XiK61+mGJ4Kv8AtiCJBaBWHkAxD2ABRBLGAPmCD3w1njDhajuUS/V1hnmc/h//xAAmEAEAAgICAgICAgMBAAAAAAABABEhMUFRYXGBkaGxEMHR4fDx/9oACAEBAAE/EKo45ipyKRKRibvBVV1bouMNNsSt4mMNETAAtJh9Qi4GumjJChC5EO6eoXVCGXg3BREcGL6NoiUBpEpGNjASVdJk3CsCWF0K3zEZ2CcgDXDgN6zDCDAUrSstgVMjFWWv9sU6YAKaY3FpmUAA0M4zyfMPEZnFyUS5C9gavWKbW95L7tu+8wIIKgGc3u7/ADKFlWSFFZ3ig44gGBSCi1bX3OxgAYJgLt6JsMHRCXN0kFYMq4DCC14gYC8MoB4YIoYK18ThZWlmtQGgG9N9ywqeDwH9Qvuy/UregBCYKu+JjGh0QjtC5YbbRUIvALWWarKnZd1uEsGrQMjojmr8fdhrrGhYiq2cx2C/UIQhCM+XE6xXqVlev7W/xChklnXyxKM4wMH1HDzO8e1ley5iHXg0yr60efERffIGxwTCfK2fM2LDC6KQ+IT+yAW10/wQpZBgA6ur27hEnF5Jw1Cpe0tZrxmHfLKdSk1jqVRkxuAUiOD3DYQ0La8XnuUSaCUq8XwZf44+kKw2ZqOdIWFBHCOIpQ2lyLOUvz1E2DwTHEzP1KlRIMfMxIB5G4GcQrsXkBH9G8XK1dkpU/P4Z5kLiqnP1LpSCoX8s16iJNKDTDW3mPoTRZDYvcqVEhw/EIVMmibMXqv2RVLFFnHUZ99dDniO4ZC095f9ETS2C6ISwfcKrUDc8n3Bh4zBhKlRId+oMoLOW66Onj6YystBre8ns6dRhL+tVlgYcp7pjsUlUrYqHPww4IEqJB+n9Q5VE/Ioo2NXjx11KAPWh1LcLsz8xinKriQNWnOR3GS9oChuq/6oHMJRQHzz8w6ZUxUya+oe7Ze28d49/UqmWhF7OMxm1QVVGn7YIMnuV5hIb6wFlufxDFhtYhMAMAIRa2b1aW8r41TKuwFWNWJHNVmiwafqWQmYgK80LrVFtmBiHzrtG+O0JZ8xly1HW4PAF9o9XeFIYGfC/uU9pUo9jN9Q15Xs0LZOgPj+G6fmMW7VBgLUaW1d3Xkhx1ZefCJY4xv/AGc+5RbtPTMnbEmtjj3BNpkg018yxFabK0v/ABCa6FCwwVT1X7gVEq1zr7c6gRlTM0mI8v1yMAFqvEIMoXFGnmWjgttp2YLzFVdYVLVJnCRY5tS3vAwK1PNQJmNNAFC2HK+fQyz69Vs7PHUZ6IFa0Ra8/uKJQm1hijXFR7YsXsobAiOOPMpk0BjyCsMaY9zAFCgIitVkmTLKRasIelLvzLTgpU0O6uqjDIIKtbL5NQ+IT8H8eoNwRVZenT4ZbTMPLRm/C783LzsW7TeiMncGDiwxXb687iCKOYjKp9wdZlcjO+dV04QjmJ6Iez2yx/8AV/G44ijRE9QeQ8VPwK7+OLh+Ff0EYdEByIHcBgfEIFlQZtp3E/5JdbVVloakEwZeomg76dyn/clolgVbuClHiPM8XHt3AxBsgVpK2Mc1jhxtvxAP8HjzPPnmLFAqcNJwtW/csrTl8xAJjB9xXBgDRVVAdYgZZGgNAt32VZu5eYFsRuQ/15iwBvxFizBRuWewW9xy3LgeYqjJp0eWXDmoRGh4js8fmUI9Ss0+NNLyXgsebVzEfa1gT+TqUGSthTGbOnhiwyGSz/ww6JYypyxhp7hcPDjOl4PqBNAbpHtVorkKAxQ3/ibx15laCiXQ2jXFIhEA7iIV25/cFoSNmYMFY/SM1j7ambRHLRFfLt5f9RqVjFrPUNSK0JccEt7ZHt+ZYwAzVY1/ctsY6vmEN5u8JaKaABty7gYFMIASkY3pVZby8U/rQqt4xVVG0jbleYrq75Y1WtsZS6Jgt1jdamkIoO4LWDatKX/W5nvp6mEQJzL7AbxFaCQKjAKAbPtnxxPJDULcZrCjthctX4gBQA8T++fnTZ6n7v2/iOoxjPyv4Zxn/9k=;" vertex="1" parent="1">
          <mxGeometry x="732.25" y="238.34000000000003" width="51" height="89.38" as="geometry" />
        </mxCell>
        <mxCell id="vlCZbG9oBxgesIhF5QOp-6" value="" style="shape=image;verticalLabelPosition=bottom;labelBackgroundColor=default;verticalAlign=top;aspect=fixed;imageAspect=0;image=data:image/jpeg,/9j/4AAQSkZJRgABAQEBLAEsAAD/4QDGRXhpZgAASUkqAAgAAAAHABIBAwABAAAAAQAAABoBBQABAAAAYgAAABsBBQABAAAAagAAACgBAwABAAAAAgAAADEBAgANAAAAcgAAADIBAgAUAAAAgAAAAGmHBAABAAAAlAAAAAAAAAAsAQAAAQAAACwBAAABAAAAR0lNUCAyLjEwLjM4AAAyMDI1OjA1OjE2IDIyOjI1OjM5AAMAAaADAAEAAAABAAAAAqAEAAEAAABlAAAAA6AEAAEAAACxAAAAAAAAAP/hDNFodHRwOi8vbnMuYWRvYmUuY29tL3hhcC8xLjAvADw/eHBhY2tldCBiZWdpbj0i77u/IiBpZD0iVzVNME1wQ2VoaUh6cmVTek5UY3prYzlkIj8+IDx4OnhtcG1ldGEgeG1sbnM6eD0iYWRvYmU6bnM6bWV0YS8iIHg6eG1wdGs9IlhNUCBDb3JlIDQuNC4wLUV4aXYyIj4gPHJkZjpSREYgeG1sbnM6cmRmPSJodHRwOi8vd3d3LnczLm9yZy8xOTk5LzAyLzIyLXJkZi1zeW50YXgtbnMjIj4gPHJkZjpEZXNjcmlwdGlvbiByZGY6YWJvdXQ9IiIgeG1sbnM6eG1wTU09Imh0dHA6Ly9ucy5hZG9iZS5jb20veGFwLzEuMC9tbS8iIHhtbG5zOnN0RXZ0PSJodHRwOi8vbnMuYWRvYmUuY29tL3hhcC8xLjAvc1R5cGUvUmVzb3VyY2VFdmVudCMiIHhtbG5zOmRjPSJodHRwOi8vcHVybC5vcmcvZGMvZWxlbWVudHMvMS4xLyIgeG1sbnM6R0lNUD0iaHR0cDovL3d3dy5naW1wLm9yZy94bXAvIiB4bWxuczp4bXA9Imh0dHA6Ly9ucy5hZG9iZS5jb20veGFwLzEuMC8iIHhtcE1NOkRvY3VtZW50SUQ9ImdpbXA6ZG9jaWQ6Z2ltcDo5YmY3ZTUyZC1lNDliLTQ1Y2EtYmY4Yi0xNjM4NjQyOGM2ZDIiIHhtcE1NOkluc3RhbmNlSUQ9InhtcC5paWQ6NWIwZTdhZjMtNzE2My00ZmYyLTlkMDYtODg5YjA3ZDYwNWRmIiB4bXBNTTpPcmlnaW5hbERvY3VtZW50SUQ9InhtcC5kaWQ6NDhkNzE1NGYtZDZlMS00NzVhLThmOGQtMzNmNWMxZGM3MWU3IiBkYzpGb3JtYXQ9ImltYWdlL2pwZWciIEdJTVA6QVBJPSIyLjAiIEdJTVA6UGxhdGZvcm09Ik1hYyBPUyIgR0lNUDpUaW1lU3RhbXA9IjE3NDc0MjcxNDM4OTk2ODQiIEdJTVA6VmVyc2lvbj0iMi4xMC4zOCIgeG1wOkNyZWF0b3JUb29sPSJHSU1QIDIuMTAiIHhtcDpNZXRhZGF0YURhdGU9IjIwMjU6MDU6MTZUMjI6MjU6MzkrMDI6MDAiIHhtcDpNb2RpZnlEYXRlPSIyMDI1OjA1OjE2VDIyOjI1OjM5KzAyOjAwIj4gPHhtcE1NOkhpc3Rvcnk+IDxyZGY6U2VxPiA8cmRmOmxpIHN0RXZ0OmFjdGlvbj0ic2F2ZWQiIHN0RXZ0OmNoYW5nZWQ9Ii8iIHN0RXZ0Omluc3RhbmNlSUQ9InhtcC5paWQ6YjVlNWE5NTctNWUzOC00MjVmLTg5NzItNTEyOTU2MjZkMjg1IiBzdEV2dDpzb2Z0d2FyZUFnZW50PSJHaW1wIDIuMTAgKE1hYyBPUykiIHN0RXZ0OndoZW49IjIwMjUtMDUtMTZUMjI6MjU6NDMrMDI6MDAiLz4gPC9yZGY6U2VxPiA8L3htcE1NOkhpc3Rvcnk+IDwvcmRmOkRlc2NyaXB0aW9uPiA8L3JkZjpSREY+IDwveDp4bXBtZXRhPiAgICAgICAgICAgICAgICAgICAgICAgICAgICAgICAgICAgICAgICAgICAgICAgICAgICAgICAgICAgICAgICAgICAgICAgICAgICAgICAgICAgICAgICAgICAgICAgICAgICAgICAgICAgICAgICAgICAgICAgICAgICAgICAgICAgICAgICAgICAgICAgICAgICAgICAgICAgICAgICAgICAgICAgICAgICAgICAgICAgICAgICAgICAgICAgICAgICAgICAgICAgICAgICAgICAgICAgICAgICAgICAgICAgICAgICAgICAgICAgICAgICAgICAgICAgICAgICAgICAgICAgICAgICAgICAgICAgICAgICAgICAgICAgICAgICAgICAgICAgICAgICAgICAgICAgICAgICAgICAgICAgICAgICAgICAgICAgICAgICAgICAgICAgICAgICAgICAgICAgICAgICAgICAgICAgICAgICAgICAgICAgICAgICAgICAgICAgICAgICAgICAgICAgICAgICAgICAgICAgICAgICAgICAgICAgICAgICAgICAgICAgICAgICAgICAgICAgICAgICAgICAgICAgICAgICAgICAgICAgICAgICAgICAgICAgICAgICAgICAgICAgICAgICAgICAgICAgICAgICAgICAgICAgICAgICAgICAgICAgICAgICAgICAgICAgICAgICAgICAgICAgICAgICAgICAgICAgICAgICAgICAgICAgICAgICAgICAgICAgICAgICAgICAgICAgICAgICAgICAgICAgICAgICAgICAgICAgICAgICAgICAgICAgICAgICAgICAgICAgICAgICAgICAgICAgICAgICAgICAgICAgICAgICAgICAgICAgICAgICAgICAgICAgICAgICAgICAgICAgICAgICAgICAgICAgICAgICAgICAgICAgICAgICAgICAgICAgICAgICAgICAgICAgICAgICAgICAgICAgICAgICAgICAgICAgICAgICAgICAgICAgICAgICAgICAgICAgICAgICAgICAgICAgICAgICAgICAgICAgICAgICAgICAgICAgICAgICAgICAgICAgICAgICAgICAgICAgICAgICAgICAgICAgICAgICAgICAgICAgICAgICAgICAgICAgICAgICAgICAgICAgICAgICAgICAgICAgICAgICAgICAgICAgICAgICAgICAgICAgICAgICAgICAgICAgICAgICAgICAgICAgICAgICAgICAgICAgICAgICAgICAgICAgICAgICAgICAgICAgICAgICAgICAgICAgICAgICAgICAgICAgICAgICAgICAgICAgICAgICAgICAgICAgICAgICAgICAgICAgICAgICAgICAgICAgICAgICAgICAgICAgICAgICAgICAgICAgICAgICAgICAgICAgICAgICAgICAgICAgICAgICAgICAgICAgICAgICAgICAgICAgICAgICAgICAgICAgICAgICAgICAgICAgICAgICAgICAgICAgICAgICAgICAgICAgICAgICAgICAgICAgICAgICAgICAgICAgICAgICAgICAgICAgICAgICAgICAgICAgICAgICAgICAgICAgICAgICAgICAgICAgICAgICAgICAgICAgICAgICAgICAgICAgICAgICAgICAgICAgICAgICAgICAgICAgICAgICAgICAgICAgICAgICAgICAgICAgICAgICAgICAgICAgICAgICAgICAgICAgICAgICAgICAgICAgICAgICAgICAgICAgICAgICAgICAgICAgICAgICAgICAgICAgICAgICAgICAgICAgICAgICAgICAgICAgICAgICAgICAgICAgICAgICAgICAgICAgICAgICAgICAgICAgICAgICAgICAgICAgICAgICAgICAgICAgICAgICAgICAgICAgICAgICAgICAgICAgICAgICAgICAgICAgICAgICAgICAgICAgICAgICAgICAgICAgICAgICAgICAgICAgICAgICAgICAgICAgICAgICAgICAgICAgICAgICAgICAgICAgICAgICAgICAgICAgICAgICAgICAgICAgICAgICAgICAgICAgICAgICAgICAgICAgICAgICAgICAgICAgICAgICAgICAgICAgICAgICAgICAgICAgICAgICAgICAgICAgICAgICAgICAgICAgICAgICAgICAgICAgICAgICAgICAgICAgICAgICAgICAgICAgICAgICAgICAgICAgICAgICAgICAgICAgICAgICAgICAgICAgICAgICAgICAgICAgICAgICAgICAgICAgICAgICAgICAgICAgICAgICAgICAgICAgICAgICAgICAgICAgICAgICAgICAgICAgICAgICAgICAgICAgICAgICAgICAgICAgICAgICAgICAgICAgICAgICAgICAgICAgICAgICAgICAgICAgICAgICAgICAgICAgICAgICAgICAgICAgICAgICAgICAgICAgICAgICAgICAgICAgICAgICAgICAgICAgICAgICAgICAgICAgICAgICAgICAgICAgICAgICAgICAgICAgICAgICAgICAgICAgICAgICAgICAgIDw/eHBhY2tldCBlbmQ9InciPz7/4gKwSUNDX1BST0ZJTEUAAQEAAAKgbGNtcwRAAABtbnRyUkdCIFhZWiAH6QAFABAAFAAXACthY3NwQVBQTAAAAAAAAAAAAAAAAAAAAAAAAAAAAAAAAAAA9tYAAQAAAADTLWxjbXMAAAAAAAAAAAAAAAAAAAAAAAAAAAAAAAAAAAAAAAAAAAAAAAAAAAAAAAAAAAAAAA1kZXNjAAABIAAAAEBjcHJ0AAABYAAAADZ3dHB0AAABmAAAABRjaGFkAAABrAAAACxyWFlaAAAB2AAAABRiWFlaAAAB7AAAABRnWFlaAAACAAAAABRyVFJDAAACFAAAACBnVFJDAAACFAAAACBiVFJDAAACFAAAACBjaHJtAAACNAAAACRkbW5kAAACWAAAACRkbWRkAAACfAAAACRtbHVjAAAAAAAAAAEAAAAMZW5VUwAAACQAAAAcAEcASQBNAFAAIABiAHUAaQBsAHQALQBpAG4AIABzAFIARwBCbWx1YwAAAAAAAAABAAAADGVuVVMAAAAaAAAAHABQAHUAYgBsAGkAYwAgAEQAbwBtAGEAaQBuAABYWVogAAAAAAAA9tYAAQAAAADTLXNmMzIAAAAAAAEMQgAABd7///MlAAAHkwAA/ZD///uh///9ogAAA9wAAMBuWFlaIAAAAAAAAG+gAAA49QAAA5BYWVogAAAAAAAAJJ8AAA+EAAC2xFhZWiAAAAAAAABilwAAt4cAABjZcGFyYQAAAAAAAwAAAAJmZgAA8qcAAA1ZAAAT0AAACltjaHJtAAAAAAADAAAAAKPXAABUfAAATM0AAJmaAAAmZwAAD1xtbHVjAAAAAAAAAAEAAAAMZW5VUwAAAAgAAAAcAEcASQBNAFBtbHVjAAAAAAAAAAEAAAAMZW5VUwAAAAgAAAAcAHMAUgBHAEL/2wBDAAkGBwgHBgkIBwgKCgkLDRYPDQwMDRsUFRAWIB0iIiAdHx8kKDQsJCYxJx8fLT0tMTU3Ojo6Iys/RD84QzQ5Ojf/2wBDAQoKCg0MDRoPDxo3JR8lNzc3Nzc3Nzc3Nzc3Nzc3Nzc3Nzc3Nzc3Nzc3Nzc3Nzc3Nzc3Nzc3Nzc3Nzc3Nzc3Nzf/wgARCACxAGUDAREAAhEBAxEB/8QAGgAAAgMBAQAAAAAAAAAAAAAAAgQBAwUGAP/EABkBAAMBAQEAAAAAAAAAAAAAAAABAgMEBf/aAAwDAQACEAMQAAAB5S5uMzCSZCo18Pw20Ph4PBlMqMjFoJeBJ6XldJL46jXRsoEDDlmVPmIQlVG0FaAtGbxamQuRUKVEO6XjWawUSRp7rDTzGk0TRISEgmG0kI0VNd42rbQRj1FiRTtqzvmXjLSYaaIkT15DJNzICAKrZ308+xa8lGqA0kQCVc1jxkmUQ2CoF1az6ElnSCbGEEIHzMGBJeDwwdKnVrTqiysKAZly8JfNaSSnwQ2BVRevPWrVZASG3npn3xS8bVBJeF4YOqXpvLqXL55mshtURmprytYZ1E6U9WLfGFVJtoLrArEpC11EPGof6Off4p54wNibiuqUfTvrpEObo8jYjT00/r52kRkNV7Ozm1HPpCufyMq9l6og6rDrjPrtvxZjmX9G6O62/K6y5fQ9fkXRzc3t052t2I1ub0uvvDlJ87qrrkPRx6A2weDv6+Dk54Oqs4lvN1thFhHiCeFqiLXm/Z3C0rqICZ6U6t2Sm+eXnKTqdDy8EDAoG4bsz6VXbUg1mF85INV1UdIdcY/Tnm+flDYjZx6kbbSIkXBjXmEXT4dk3pR3cfPc2Ijuz3FaK0Oo1ct2o6+d14g25Oj5ejYx05z0+bIzzvjWFadoQcQUWE701jZebTHUY7V0sAXoEPA0klLJVUDWkmDaM5ki8BCMyMi2enORQqIrQuAZAQEB4TJzeEI//8QAKRAAAgIBAwIHAAIDAAAAAAAAAQIDBAAQERITFAUVICEiMTIjMzBBQv/aAAgBAQABBQIaBGK7aHWKvJJnllvPLLWHw20Bi/Ek8mistHW7qXjNM0polVnlmgePILSKPNIN/Mq+3mkQx2LttoWAwnfSvLIBJZc5I5dkcpgmbCxJ5HTnm5OvHK9yaXI0sxGxZew3qqcQloI2fnDucrtGhWxUDf8AW5GiGJYta0nASvyPqhZkk68ixzO7Lkb8GaSSQdV4k5cj6DnUK4IrAWZ5Ym0DR8JDFxT69Bw/syUt7LQMQw2xI2xvsYPQcOVKgnjvUzW1QjoN+x6TpW4jLfAjKqQBZZIeTtXfIoTJnauI0T+V1g6eHIkV3kStGEgqvFIvB0bg7xyjL2/Pw8OxWuWXk0cvczaHJcjEhq3InSDStR7gGlsaULcpZJAyQmWR4ijQ1zMzVyDHSacyeHGPJo+m2D78N5FpCxeiXLzFmeqT3ErFpKJbnOWMtIv153dss/rE/UR45LejNWM40tXtSfk9iqaCnbO+j7VD7iWr2s3vpGPcseXI4GOcjrvnI5yOcmxfcYMP60cRCP1R433/ALkGx0Q7NN2vTrdE13/GhwfFdHfgOs2520rRJcSOBlXxCt2+qLkra+HV1mD00JKcT75QjkgPW5ZdEu/Fjix7Y7+itZeHBYkDROWlm+6wifFqrxmMe8bbRs/ob6b4sW+KnbD8sjZ4nW5ZUba7E5w0P9bf14Po/wCH/8QAKhEAAgIBAgUEAQUBAAAAAAAAAAECEQMQEgQTICExFDAyQSIFM0JRUnH/2gAIAQMBAT8Bb1b0S9hss39qNzEvtjG+3Tem7RRbFFLRj6GrOXESoWMUUvflKjf3N0TdElJV2I5DybY0PVeSTG9L0vTGxQuNj6cip9KMfxI5HFV1ZX36UY2q6aMox9CEQ7roXgyv8h9KEQr6PvXdRKKkbGxwaVkVcu5txbH276IhHcyEVHqi6s/F/Y24y7HNnojB0rHcbPSTf8jJiak4/wBGSTf4sjjczkmPhd8XKxfpz87h45Y5uKHklHyRe5XrCuVbI0lRmvnySJW3ZiGcMly23/ZjSUTiL9RKidsx/DXhVeMjw8uZRxP70i4baIFqj9P+Ev8Ap6eXM2nF/vyPw20Y/jrLNOHaLPU5v9Em27ZbLZuZDNkh8Weqzf6HJt29MfjXJ51lGNdtaK1x+Nci+9YfI7HYeqQlS6KJxpkPkRg5eCXByS7E47dKIQroxxVdyEI/ZxWKpUhQaZCVeTdAnFybYsbFFLpjJoXENeCcnJ2/cXsOSQ8jL91H/8QAKREAAgIABQMEAQUAAAAAAAAAAAECEQMQEiExBCAwEzNBUSIFMkBhgf/aAAgBAgEBPwHwWWWX21mk7yooory13WUbHBfcz4ErKGU8nE4N77Hx4JFOyqzorwKVfwWxeB7CzfIvB8HxkzTeUYalZOWlidod32bm/YjDaULZKEpOxcdiyWerc9Uhj6eRdRhwfBCGuOoXS2rsmtEtJ6hrHi0Rleb/AHDyZgV6O5FJKkdR7rHyfQzD4yZPkc1Q/g2o6P2xYeJ6tnV+6a1R8I2ohxkxRT5NEfo0o0oUnHg9Sf2Nat2aI/RpRpQ1WTI8eKWTIvN5flt/hiL8X2PfssTsZPEjBXIh+pYG2/BHF9TDecpCzkNkJF2Y0JOnAcOo/ohi6cPRRqHKyuxmnKIy8nyV2PsXhfYvD//EADQQAAEDAgMGBAQFBQAAAAAAAAEAAhESIQMQMRMgIkFRYQQwMnEjM0KRUmKBkqFygqKx8P/aAAgBAQAGPwLIuDTA1O8KYvpLgJXyx+4L5Y/cF8v/ACGQI1RPVPwABDuaAnRS5AviO6oeZB7aZNGIHWjSLwp2L0RssSD3UtwXzykouOpM71LRLRc2UMBqUu1Vly+ynyDhMZ4drY0LSpA8O6nSeSjEZh1A+po35jinWFI9XPN22wy8QjPhiRNrdlYQMrK7KjF9y4sqotvy0SvS37KHNbHYZTSHe6aQxluiM4TI591IEdt6AiAxrp7o4boB7ZxSaoXAxwO/fRN+DiRN/t7puwY5trzmCB5NTnEDoAg4GWHNuo/VHyKcLGdTP4UWPxz1inKrGcJ6FCC2D/Cu5s9U6COFNfIhyAcCRzhPDMF9XK2mcPxBhjqU3Z47XD6lx+Ja13JFocHAcwmu6GUHOwfDy5wF0A5jWnqDMotZzb1hUOdFOhq16J0GDojx67gds8IsDefZOc/CwektzNJiOqipPIcAG2MotfEoioT3RadQqWlEF2icARwoS8foozIbT/cU4n3T2sDXSbhyL3NIkqGtBJ6mE5zhEnknNw6anc3JxIv2TtnFR6q7KQCZ90chlUPU61KPutntOFFBoZf8PQ9cq/q0pRWy2nD/ACnbmq1Wu7qtSr5nNpY4l/Mb5RynMTdOp2Xp5G9VkKtnoap17QjvgalcV1LdDkHYgbhsZw8P1FHDhpn6jyXC6WuFuuclQM3vcAbxdECLdgnMGVZEtcLCV6P9IvxIuY1ykqBuOa0pzp11Rc5BBmzc5/8A3dfJxTrdq+CHAfm8qVWwgOHZQ3Et/SPIHmf/xAAmEAEAAgICAgIBBQEBAAAAAAABABEhMUFREGFxgSCRobHB8NHh/9oACAEBAAE/IRbERpKSIAagwQp4VspAUc68YH637gn+A/uf5L+4katdf9IiNJmX1A2RmTKuPpratkqo6px1CaWhWIFaA/aX5YZe3vwgAZg+hvU7w+Tu5ivME8dKvYZsPSr3DyBfDIoGq1f6pTOMsaGz1iJ6uGCpfY53ZB6Ja0v14lXcRxmPM8AupovUJKHCE+oQWCqF+krMUMJZSflnQ+QSUeMNYVcUGreoxy/UflFArmJby44lD+bZVtSzA8Q2MkwlxRGoKuquOGvLZ1S1LMqncM5dsCVKiRIbEqSkuZJe3RvB4lrGvwV3Gway5qyLZgY7RCGCb0gfiz6/c9OCV/n4hkEOVwbBjDZtosv6jqXLbeoeXLD8WFgts4lqK/bkt/KpWWnLy/qwQPXhdinc0nRNpp+LSZzRWUstL112PT59eqxGXz8+B+J1MqgKqVx2L3ne6ffgLcdNqIN2Jpg76g5j5xS5d1FA4KFVC6+JShtkrhHwxTW5XbBq7n5lqY5px6SGs5jWypQUqPNRCt4vm35iIyHKcMvOmXrcjiPb38TDADgp8XEXnMuYAUWVuDLVRmk2IVXFq9oPiHs5Myz9vFRKChn9EBlemoXJoFRxAEqcwpj2VRDaWmVcD7lLRVOJ/Y7cTPIKnLWyHQdeBYPc2DNuQ66gp5WyGIQUu0MQdhRrB6mTXUaH3CyJb4XL5DAQN12dX3KkNDoY3Ba0uXVtzNfZ4NyUWdxLUl8T/wAlG0PpVDHd7lCe5sCaLZ9iZidw15U+/wD5KF9zNFhn23M3g11OIRAoT3oTlDsS5cscx7JkaUf/AGo17W3Gbz914GIZG7iXLlxfDNflP3UGi/U+RQ8AoUHJ3MzzV0KUD1uDeGFvxCunjyoc7xnwlkxgRCwAlleogwPq579jKTJhVkdkLV5h4LHX9AlnV45iQpeG6qOn6NH7TYhGyVyKlUd2H+dwqKdWjnDfv1MvhU3orH7Q0D7gcj3CCDnysJSqYgk+RzFEyx6upb2XWvr04uKutVWYq/fUScFzbNwAtPuX6jnztgQRw8zQa+pmPcOAYS0wUNfrAZQXR7L6l/UCjwSA5zKrXmDqf0zh8fibPLP/2gAMAwEAAgADAAAAENuACObZz3ZhbQiKAZK/0cn7DwAEwXu1Bgn7oL08EShXEwgN7f0IkFxw3JiMg5tUo9qOBW52lXAhFPaEG2INZUJILaz1tpYi8Y8T4Lv6yu1kSlSJxVjxZWtMaXz+coFPN+lsOEI+xkQSEl6rFXDIJIT/AP/EACcRAQACAwAABQQCAwAAAAAAAAEAERAhMSBBUWGRcaGx4YHB0fDx/9oACAEDAQE/EKDHlcshKi3wVKlYtbj5mWtSHKKvmRVUDYxcuXKYfRFXGcnCQ1BQV4AFM1VUHiI9nOMVKly2XcrxCXTPOoMrRcPWJ7xO4iHYILIAfWCmst08pRbGW2LhcIGPdTeZo1m4sDTFly5cUqCIQRfAodgusZcvClKXNRyKrj2E4i3Lly4otxUx01k3aXLBcXhSt7gvTiebBUOE60GoPIQXGGBxNEL+Dd/WGGuuoiVGlvwMBWa3NaJ17/GoutuBXvv0hOp5sOejrdcgCz7P3EK6W75LISKrcWNXLwqDXL/uOAfZ+42d1/2InZBEHc0bHfLf5gCIEINvnChkuWESts3Vo8n0IEB+fxKA6/RFoqg/MOmCWh7v9Q9vDdwfPFNmppcdeG/9HCPtnb9v8w/Ifgg9OoNcESshPefMWJax9SAcZ7sBRS/Rh6v5iZ7WDFeJBvhIAq3KlQgwMhL4TA0lRW38zhlYsZqM9lUqc7k4RuhGihv5nBgtOhjl14EXxCeV0lRD30gHL+09SkteHXk5rDwi3G4wlYOS83GDKVeExcrPcjORTtj2EOQ5HvheRy//xAAlEQEAAgMAAQQBBQEAAAAAAAABABEQITFBIFFhcTCBkaGx8NH/2gAIAQIBAT8QxfqQSkpKehLblIFSrGaBwxeX/AAXcAtGBUS5UqVgV6FCb8iCVCUsh7/UHxLS0SAkD4wB7wHkFVMtaQbMkYq6IFHqGo0AOzZWEuU94D3holy5cvCWwoN7wYHFy5cvO/eF+c2anObly87LiszpHOGXLg5V2TUF4MJ8TosBIux5qWgnFP2mwICadQhLi0SoI8Q3OkPvFp4H2vx/txyhLVhoGCGDVxbjhZSPwhaixJ0Gz5P+QV5L5VxiGr8Rl7qaaqXqwjeH8xjeHktoRKrNtB7S62kNqqB+/wCIRTxL1EaqF8e0a+JyxxHU7Gc/SLquDb7hUnXv8e07Tpj/AK+5eq5oMcwaxGT4J8cKp0T5n7wl1cTw1PjhLXqhd4rIY7hzHxYqcQuARA8pXPm4HLxKxyK1wiXOQpKk4liKI6iin6PiXyt1+mbNEO8puJKi2UETQWPm65XiK61+mGJ4Kv8AtiCJBaBWHkAxD2ABRBLGAPmCD3w1njDhajuUS/V1hnmc/h//xAAmEAEAAgICAgICAgMBAAAAAAABABEhMUFRYXGBkaGxEMHR4fDx/9oACAEBAAE/EKo45ipyKRKRibvBVV1bouMNNsSt4mMNETAAtJh9Qi4GumjJChC5EO6eoXVCGXg3BREcGL6NoiUBpEpGNjASVdJk3CsCWF0K3zEZ2CcgDXDgN6zDCDAUrSstgVMjFWWv9sU6YAKaY3FpmUAA0M4zyfMPEZnFyUS5C9gavWKbW95L7tu+8wIIKgGc3u7/ADKFlWSFFZ3ig44gGBSCi1bX3OxgAYJgLt6JsMHRCXN0kFYMq4DCC14gYC8MoB4YIoYK18ThZWlmtQGgG9N9ywqeDwH9Qvuy/UregBCYKu+JjGh0QjtC5YbbRUIvALWWarKnZd1uEsGrQMjojmr8fdhrrGhYiq2cx2C/UIQhCM+XE6xXqVlev7W/xChklnXyxKM4wMH1HDzO8e1ley5iHXg0yr60efERffIGxwTCfK2fM2LDC6KQ+IT+yAW10/wQpZBgA6ur27hEnF5Jw1Cpe0tZrxmHfLKdSk1jqVRkxuAUiOD3DYQ0La8XnuUSaCUq8XwZf44+kKw2ZqOdIWFBHCOIpQ2lyLOUvz1E2DwTHEzP1KlRIMfMxIB5G4GcQrsXkBH9G8XK1dkpU/P4Z5kLiqnP1LpSCoX8s16iJNKDTDW3mPoTRZDYvcqVEhw/EIVMmibMXqv2RVLFFnHUZ99dDniO4ZC095f9ETS2C6ISwfcKrUDc8n3Bh4zBhKlRId+oMoLOW66Onj6YystBre8ns6dRhL+tVlgYcp7pjsUlUrYqHPww4IEqJB+n9Q5VE/Ioo2NXjx11KAPWh1LcLsz8xinKriQNWnOR3GS9oChuq/6oHMJRQHzz8w6ZUxUya+oe7Ze28d49/UqmWhF7OMxm1QVVGn7YIMnuV5hIb6wFlufxDFhtYhMAMAIRa2b1aW8r41TKuwFWNWJHNVmiwafqWQmYgK80LrVFtmBiHzrtG+O0JZ8xly1HW4PAF9o9XeFIYGfC/uU9pUo9jN9Q15Xs0LZOgPj+G6fmMW7VBgLUaW1d3Xkhx1ZefCJY4xv/AGc+5RbtPTMnbEmtjj3BNpkg018yxFabK0v/ABCa6FCwwVT1X7gVEq1zr7c6gRlTM0mI8v1yMAFqvEIMoXFGnmWjgttp2YLzFVdYVLVJnCRY5tS3vAwK1PNQJmNNAFC2HK+fQyz69Vs7PHUZ6IFa0Ra8/uKJQm1hijXFR7YsXsobAiOOPMpk0BjyCsMaY9zAFCgIitVkmTLKRasIelLvzLTgpU0O6uqjDIIKtbL5NQ+IT8H8eoNwRVZenT4ZbTMPLRm/C783LzsW7TeiMncGDiwxXb687iCKOYjKp9wdZlcjO+dV04QjmJ6Iez2yx/8AV/G44ijRE9QeQ8VPwK7+OLh+Ff0EYdEByIHcBgfEIFlQZtp3E/5JdbVVloakEwZeomg76dyn/clolgVbuClHiPM8XHt3AxBsgVpK2Mc1jhxtvxAP8HjzPPnmLFAqcNJwtW/csrTl8xAJjB9xXBgDRVVAdYgZZGgNAt32VZu5eYFsRuQ/15iwBvxFizBRuWewW9xy3LgeYqjJp0eWXDmoRGh4js8fmUI9Ss0+NNLyXgsebVzEfa1gT+TqUGSthTGbOnhiwyGSz/ww6JYypyxhp7hcPDjOl4PqBNAbpHtVorkKAxQ3/ibx15laCiXQ2jXFIhEA7iIV25/cFoSNmYMFY/SM1j7ambRHLRFfLt5f9RqVjFrPUNSK0JccEt7ZHt+ZYwAzVY1/ctsY6vmEN5u8JaKaABty7gYFMIASkY3pVZby8U/rQqt4xVVG0jbleYrq75Y1WtsZS6Jgt1jdamkIoO4LWDatKX/W5nvp6mEQJzL7AbxFaCQKjAKAbPtnxxPJDULcZrCjthctX4gBQA8T++fnTZ6n7v2/iOoxjPyv4Zxn/9k=;" vertex="1" parent="1">
          <mxGeometry x="746.25" y="250.48000000000002" width="51" height="89.38" as="geometry" />
        </mxCell>
        <mxCell id="vlCZbG9oBxgesIhF5QOp-7" value="instance" style="swimlane;whiteSpace=wrap;html=1;fillColor=#60a917;fontColor=#ffffff;strokeColor=#2D7600;swimlaneFillColor=default;" vertex="1" parent="1">
          <mxGeometry x="815" y="150" width="133" height="200" as="geometry">
            <mxRectangle x="815" y="150" width="90" height="30" as="alternateBounds" />
          </mxGeometry>
        </mxCell>
        <mxCell id="vlCZbG9oBxgesIhF5QOp-8" value="" style="shape=image;verticalLabelPosition=bottom;labelBackgroundColor=default;verticalAlign=top;aspect=fixed;imageAspect=0;image=data:image/jpeg,/9j/4AAQSkZJRgABAQEBLAEsAAD/4QDGRXhpZgAASUkqAAgAAAAHABIBAwABAAAAAQAAABoBBQABAAAAYgAAABsBBQABAAAAagAAACgBAwABAAAAAgAAADEBAgANAAAAcgAAADIBAgAUAAAAgAAAAGmHBAABAAAAlAAAAAAAAAAsAQAAAQAAACwBAAABAAAAR0lNUCAyLjEwLjM4AAAyMDI1OjA1OjE2IDIyOjI1OjM5AAMAAaADAAEAAAABAAAAAqAEAAEAAABlAAAAA6AEAAEAAACxAAAAAAAAAP/hDNFodHRwOi8vbnMuYWRvYmUuY29tL3hhcC8xLjAvADw/eHBhY2tldCBiZWdpbj0i77u/IiBpZD0iVzVNME1wQ2VoaUh6cmVTek5UY3prYzlkIj8+IDx4OnhtcG1ldGEgeG1sbnM6eD0iYWRvYmU6bnM6bWV0YS8iIHg6eG1wdGs9IlhNUCBDb3JlIDQuNC4wLUV4aXYyIj4gPHJkZjpSREYgeG1sbnM6cmRmPSJodHRwOi8vd3d3LnczLm9yZy8xOTk5LzAyLzIyLXJkZi1zeW50YXgtbnMjIj4gPHJkZjpEZXNjcmlwdGlvbiByZGY6YWJvdXQ9IiIgeG1sbnM6eG1wTU09Imh0dHA6Ly9ucy5hZG9iZS5jb20veGFwLzEuMC9tbS8iIHhtbG5zOnN0RXZ0PSJodHRwOi8vbnMuYWRvYmUuY29tL3hhcC8xLjAvc1R5cGUvUmVzb3VyY2VFdmVudCMiIHhtbG5zOmRjPSJodHRwOi8vcHVybC5vcmcvZGMvZWxlbWVudHMvMS4xLyIgeG1sbnM6R0lNUD0iaHR0cDovL3d3dy5naW1wLm9yZy94bXAvIiB4bWxuczp4bXA9Imh0dHA6Ly9ucy5hZG9iZS5jb20veGFwLzEuMC8iIHhtcE1NOkRvY3VtZW50SUQ9ImdpbXA6ZG9jaWQ6Z2ltcDo5YmY3ZTUyZC1lNDliLTQ1Y2EtYmY4Yi0xNjM4NjQyOGM2ZDIiIHhtcE1NOkluc3RhbmNlSUQ9InhtcC5paWQ6NWIwZTdhZjMtNzE2My00ZmYyLTlkMDYtODg5YjA3ZDYwNWRmIiB4bXBNTTpPcmlnaW5hbERvY3VtZW50SUQ9InhtcC5kaWQ6NDhkNzE1NGYtZDZlMS00NzVhLThmOGQtMzNmNWMxZGM3MWU3IiBkYzpGb3JtYXQ9ImltYWdlL2pwZWciIEdJTVA6QVBJPSIyLjAiIEdJTVA6UGxhdGZvcm09Ik1hYyBPUyIgR0lNUDpUaW1lU3RhbXA9IjE3NDc0MjcxNDM4OTk2ODQiIEdJTVA6VmVyc2lvbj0iMi4xMC4zOCIgeG1wOkNyZWF0b3JUb29sPSJHSU1QIDIuMTAiIHhtcDpNZXRhZGF0YURhdGU9IjIwMjU6MDU6MTZUMjI6MjU6MzkrMDI6MDAiIHhtcDpNb2RpZnlEYXRlPSIyMDI1OjA1OjE2VDIyOjI1OjM5KzAyOjAwIj4gPHhtcE1NOkhpc3Rvcnk+IDxyZGY6U2VxPiA8cmRmOmxpIHN0RXZ0OmFjdGlvbj0ic2F2ZWQiIHN0RXZ0OmNoYW5nZWQ9Ii8iIHN0RXZ0Omluc3RhbmNlSUQ9InhtcC5paWQ6YjVlNWE5NTctNWUzOC00MjVmLTg5NzItNTEyOTU2MjZkMjg1IiBzdEV2dDpzb2Z0d2FyZUFnZW50PSJHaW1wIDIuMTAgKE1hYyBPUykiIHN0RXZ0OndoZW49IjIwMjUtMDUtMTZUMjI6MjU6NDMrMDI6MDAiLz4gPC9yZGY6U2VxPiA8L3htcE1NOkhpc3Rvcnk+IDwvcmRmOkRlc2NyaXB0aW9uPiA8L3JkZjpSREY+IDwveDp4bXBtZXRhPiAgICAgICAgICAgICAgICAgICAgICAgICAgICAgICAgICAgICAgICAgICAgICAgICAgICAgICAgICAgICAgICAgICAgICAgICAgICAgICAgICAgICAgICAgICAgICAgICAgICAgICAgICAgICAgICAgICAgICAgICAgICAgICAgICAgICAgICAgICAgICAgICAgICAgICAgICAgICAgICAgICAgICAgICAgICAgICAgICAgICAgICAgICAgICAgICAgICAgICAgICAgICAgICAgICAgICAgICAgICAgICAgICAgICAgICAgICAgICAgICAgICAgICAgICAgICAgICAgICAgICAgICAgICAgICAgICAgICAgICAgICAgICAgICAgICAgICAgICAgICAgICAgICAgICAgICAgICAgICAgICAgICAgICAgICAgICAgICAgICAgICAgICAgICAgICAgICAgICAgICAgICAgICAgICAgICAgICAgICAgICAgICAgICAgICAgICAgICAgICAgICAgICAgICAgICAgICAgICAgICAgICAgICAgICAgICAgICAgICAgICAgICAgICAgICAgICAgICAgICAgICAgICAgICAgICAgICAgICAgICAgICAgICAgICAgICAgICAgICAgICAgICAgICAgICAgICAgICAgICAgICAgICAgICAgICAgICAgICAgICAgICAgICAgICAgICAgICAgICAgICAgICAgICAgICAgICAgICAgICAgICAgICAgICAgICAgICAgICAgICAgICAgICAgICAgICAgICAgICAgICAgICAgICAgICAgICAgICAgICAgICAgICAgICAgICAgICAgICAgICAgICAgICAgICAgICAgICAgICAgICAgICAgICAgICAgICAgICAgICAgICAgICAgICAgICAgICAgICAgICAgICAgICAgICAgICAgICAgICAgICAgICAgICAgICAgICAgICAgICAgICAgICAgICAgICAgICAgICAgICAgICAgICAgICAgICAgICAgICAgICAgICAgICAgICAgICAgICAgICAgICAgICAgICAgICAgICAgICAgICAgICAgICAgICAgICAgICAgICAgICAgICAgICAgICAgICAgICAgICAgICAgICAgICAgICAgICAgICAgICAgICAgICAgICAgICAgICAgICAgICAgICAgICAgICAgICAgICAgICAgICAgICAgICAgICAgICAgICAgICAgICAgICAgICAgICAgICAgICAgICAgICAgICAgICAgICAgICAgICAgICAgICAgICAgICAgICAgICAgICAgICAgICAgICAgICAgICAgICAgICAgICAgICAgICAgICAgICAgICAgICAgICAgICAgICAgICAgICAgICAgICAgICAgICAgICAgICAgICAgICAgICAgICAgICAgICAgICAgICAgICAgICAgICAgICAgICAgICAgICAgICAgICAgICAgICAgICAgICAgICAgICAgICAgICAgICAgICAgICAgICAgICAgICAgICAgICAgICAgICAgICAgICAgICAgICAgICAgICAgICAgICAgICAgICAgICAgICAgICAgICAgICAgICAgICAgICAgICAgICAgICAgICAgICAgICAgICAgICAgICAgICAgICAgICAgICAgICAgICAgICAgICAgICAgICAgICAgICAgICAgICAgICAgICAgICAgICAgICAgICAgICAgICAgICAgICAgICAgICAgICAgICAgICAgICAgICAgICAgICAgICAgICAgICAgICAgICAgICAgICAgICAgICAgICAgICAgICAgICAgICAgICAgICAgICAgICAgICAgICAgICAgICAgICAgICAgICAgICAgICAgICAgICAgICAgICAgICAgICAgICAgICAgICAgICAgICAgICAgICAgICAgICAgICAgICAgICAgICAgICAgICAgICAgICAgICAgICAgICAgICAgICAgICAgICAgICAgICAgICAgICAgICAgICAgICAgICAgICAgICAgICAgICAgICAgICAgICAgICAgICAgICAgICAgICAgICAgICAgICAgICAgICAgICAgICAgICAgICAgICAgICAgICAgICAgICAgICAgICAgICAgICAgICAgICAgICAgICAgICAgICAgICAgICAgICAgICAgICAgICAgICAgICAgICAgICAgICAgICAgICAgICAgICAgICAgICAgICAgICAgICAgICAgICAgICAgICAgICAgICAgICAgICAgICAgICAgICAgICAgICAgICAgICAgICAgICAgICAgICAgICAgICAgICAgICAgICAgICAgICAgICAgICAgICAgICAgICAgICAgICAgICAgICAgICAgICAgICAgICAgICAgICAgICAgICAgICAgICAgICAgICAgICAgICAgICAgICAgICAgICAgICAgICAgICAgICAgICAgICAgICAgICAgICAgICAgICAgICAgICAgICAgICAgICAgICAgICAgICAgICAgICAgICAgICAgICAgICAgICAgICAgICAgICAgICAgICAgICAgICAgICAgICAgICAgICAgICAgICAgICAgICAgICAgICAgICAgICAgICAgICAgICAgIDw/eHBhY2tldCBlbmQ9InciPz7/4gKwSUNDX1BST0ZJTEUAAQEAAAKgbGNtcwRAAABtbnRyUkdCIFhZWiAH6QAFABAAFAAXACthY3NwQVBQTAAAAAAAAAAAAAAAAAAAAAAAAAAAAAAAAAAA9tYAAQAAAADTLWxjbXMAAAAAAAAAAAAAAAAAAAAAAAAAAAAAAAAAAAAAAAAAAAAAAAAAAAAAAAAAAAAAAA1kZXNjAAABIAAAAEBjcHJ0AAABYAAAADZ3dHB0AAABmAAAABRjaGFkAAABrAAAACxyWFlaAAAB2AAAABRiWFlaAAAB7AAAABRnWFlaAAACAAAAABRyVFJDAAACFAAAACBnVFJDAAACFAAAACBiVFJDAAACFAAAACBjaHJtAAACNAAAACRkbW5kAAACWAAAACRkbWRkAAACfAAAACRtbHVjAAAAAAAAAAEAAAAMZW5VUwAAACQAAAAcAEcASQBNAFAAIABiAHUAaQBsAHQALQBpAG4AIABzAFIARwBCbWx1YwAAAAAAAAABAAAADGVuVVMAAAAaAAAAHABQAHUAYgBsAGkAYwAgAEQAbwBtAGEAaQBuAABYWVogAAAAAAAA9tYAAQAAAADTLXNmMzIAAAAAAAEMQgAABd7///MlAAAHkwAA/ZD///uh///9ogAAA9wAAMBuWFlaIAAAAAAAAG+gAAA49QAAA5BYWVogAAAAAAAAJJ8AAA+EAAC2xFhZWiAAAAAAAABilwAAt4cAABjZcGFyYQAAAAAAAwAAAAJmZgAA8qcAAA1ZAAAT0AAACltjaHJtAAAAAAADAAAAAKPXAABUfAAATM0AAJmaAAAmZwAAD1xtbHVjAAAAAAAAAAEAAAAMZW5VUwAAAAgAAAAcAEcASQBNAFBtbHVjAAAAAAAAAAEAAAAMZW5VUwAAAAgAAAAcAHMAUgBHAEL/2wBDAAkGBwgHBgkIBwgKCgkLDRYPDQwMDRsUFRAWIB0iIiAdHx8kKDQsJCYxJx8fLT0tMTU3Ojo6Iys/RD84QzQ5Ojf/2wBDAQoKCg0MDRoPDxo3JR8lNzc3Nzc3Nzc3Nzc3Nzc3Nzc3Nzc3Nzc3Nzc3Nzc3Nzc3Nzc3Nzc3Nzc3Nzc3Nzc3Nzf/wgARCACxAGUDAREAAhEBAxEB/8QAGgAAAgMBAQAAAAAAAAAAAAAAAgQBAwUGAP/EABkBAAMBAQEAAAAAAAAAAAAAAAABAgMEBf/aAAwDAQACEAMQAAAB5S5uMzCSZCo18Pw20Ph4PBlMqMjFoJeBJ6XldJL46jXRsoEDDlmVPmIQlVG0FaAtGbxamQuRUKVEO6XjWawUSRp7rDTzGk0TRISEgmG0kI0VNd42rbQRj1FiRTtqzvmXjLSYaaIkT15DJNzICAKrZ308+xa8lGqA0kQCVc1jxkmUQ2CoF1az6ElnSCbGEEIHzMGBJeDwwdKnVrTqiysKAZly8JfNaSSnwQ2BVRevPWrVZASG3npn3xS8bVBJeF4YOqXpvLqXL55mshtURmprytYZ1E6U9WLfGFVJtoLrArEpC11EPGof6Off4p54wNibiuqUfTvrpEObo8jYjT00/r52kRkNV7Ozm1HPpCufyMq9l6og6rDrjPrtvxZjmX9G6O62/K6y5fQ9fkXRzc3t052t2I1ub0uvvDlJ87qrrkPRx6A2weDv6+Dk54Oqs4lvN1thFhHiCeFqiLXm/Z3C0rqICZ6U6t2Sm+eXnKTqdDy8EDAoG4bsz6VXbUg1mF85INV1UdIdcY/Tnm+flDYjZx6kbbSIkXBjXmEXT4dk3pR3cfPc2Ijuz3FaK0Oo1ct2o6+d14g25Oj5ejYx05z0+bIzzvjWFadoQcQUWE701jZebTHUY7V0sAXoEPA0klLJVUDWkmDaM5ki8BCMyMi2enORQqIrQuAZAQEB4TJzeEI//8QAKRAAAgIBAwIHAAIDAAAAAAAAAQIDBAAQERITFAUVICEiMTIjMzBBQv/aAAgBAQABBQIaBGK7aHWKvJJnllvPLLWHw20Bi/Ek8mistHW7qXjNM0polVnlmgePILSKPNIN/Mq+3mkQx2LttoWAwnfSvLIBJZc5I5dkcpgmbCxJ5HTnm5OvHK9yaXI0sxGxZew3qqcQloI2fnDucrtGhWxUDf8AW5GiGJYta0nASvyPqhZkk68ixzO7Lkb8GaSSQdV4k5cj6DnUK4IrAWZ5Ym0DR8JDFxT69Bw/syUt7LQMQw2xI2xvsYPQcOVKgnjvUzW1QjoN+x6TpW4jLfAjKqQBZZIeTtXfIoTJnauI0T+V1g6eHIkV3kStGEgqvFIvB0bg7xyjL2/Pw8OxWuWXk0cvczaHJcjEhq3InSDStR7gGlsaULcpZJAyQmWR4ijQ1zMzVyDHSacyeHGPJo+m2D78N5FpCxeiXLzFmeqT3ErFpKJbnOWMtIv153dss/rE/UR45LejNWM40tXtSfk9iqaCnbO+j7VD7iWr2s3vpGPcseXI4GOcjrvnI5yOcmxfcYMP60cRCP1R433/ALkGx0Q7NN2vTrdE13/GhwfFdHfgOs2520rRJcSOBlXxCt2+qLkra+HV1mD00JKcT75QjkgPW5ZdEu/Fjix7Y7+itZeHBYkDROWlm+6wifFqrxmMe8bbRs/ob6b4sW+KnbD8sjZ4nW5ZUba7E5w0P9bf14Po/wCH/8QAKhEAAgIBAgUEAQUBAAAAAAAAAAECEQMQEgQTICExFDAyQSIFM0JRUnH/2gAIAQMBAT8Bb1b0S9hss39qNzEvtjG+3Tem7RRbFFLRj6GrOXESoWMUUvflKjf3N0TdElJV2I5DybY0PVeSTG9L0vTGxQuNj6cip9KMfxI5HFV1ZX36UY2q6aMox9CEQ7roXgyv8h9KEQr6PvXdRKKkbGxwaVkVcu5txbH276IhHcyEVHqi6s/F/Y24y7HNnojB0rHcbPSTf8jJiak4/wBGSTf4sjjczkmPhd8XKxfpz87h45Y5uKHklHyRe5XrCuVbI0lRmvnySJW3ZiGcMly23/ZjSUTiL9RKidsx/DXhVeMjw8uZRxP70i4baIFqj9P+Ev8Ap6eXM2nF/vyPw20Y/jrLNOHaLPU5v9Em27ZbLZuZDNkh8Weqzf6HJt29MfjXJ51lGNdtaK1x+Nci+9YfI7HYeqQlS6KJxpkPkRg5eCXByS7E47dKIQroxxVdyEI/ZxWKpUhQaZCVeTdAnFybYsbFFLpjJoXENeCcnJ2/cXsOSQ8jL91H/8QAKREAAgIABQMEAQUAAAAAAAAAAAECEQMQEiExBCAwEzNBUSIFMkBhgf/aAAgBAgEBPwHwWWWX21mk7yooory13WUbHBfcz4ErKGU8nE4N77Hx4JFOyqzorwKVfwWxeB7CzfIvB8HxkzTeUYalZOWlidod32bm/YjDaULZKEpOxcdiyWerc9Uhj6eRdRhwfBCGuOoXS2rsmtEtJ6hrHi0Rleb/AHDyZgV6O5FJKkdR7rHyfQzD4yZPkc1Q/g2o6P2xYeJ6tnV+6a1R8I2ohxkxRT5NEfo0o0oUnHg9Sf2Nat2aI/RpRpQ1WTI8eKWTIvN5flt/hiL8X2PfssTsZPEjBXIh+pYG2/BHF9TDecpCzkNkJF2Y0JOnAcOo/ohi6cPRRqHKyuxmnKIy8nyV2PsXhfYvD//EADQQAAEDAgMGBAQFBQAAAAAAAAEAAhESIQMQMRMgIkFRYQQwMnEjM0KRUmKBkqFygqKx8P/aAAgBAQAGPwLIuDTA1O8KYvpLgJXyx+4L5Y/cF8v/ACGQI1RPVPwABDuaAnRS5AviO6oeZB7aZNGIHWjSLwp2L0RssSD3UtwXzykouOpM71LRLRc2UMBqUu1Vly+ynyDhMZ4drY0LSpA8O6nSeSjEZh1A+po35jinWFI9XPN22wy8QjPhiRNrdlYQMrK7KjF9y4sqotvy0SvS37KHNbHYZTSHe6aQxluiM4TI591IEdt6AiAxrp7o4boB7ZxSaoXAxwO/fRN+DiRN/t7puwY5trzmCB5NTnEDoAg4GWHNuo/VHyKcLGdTP4UWPxz1inKrGcJ6FCC2D/Cu5s9U6COFNfIhyAcCRzhPDMF9XK2mcPxBhjqU3Z47XD6lx+Ja13JFocHAcwmu6GUHOwfDy5wF0A5jWnqDMotZzb1hUOdFOhq16J0GDojx67gds8IsDefZOc/CwektzNJiOqipPIcAG2MotfEoioT3RadQqWlEF2icARwoS8foozIbT/cU4n3T2sDXSbhyL3NIkqGtBJ6mE5zhEnknNw6anc3JxIv2TtnFR6q7KQCZ90chlUPU61KPutntOFFBoZf8PQ9cq/q0pRWy2nD/ACnbmq1Wu7qtSr5nNpY4l/Mb5RynMTdOp2Xp5G9VkKtnoap17QjvgalcV1LdDkHYgbhsZw8P1FHDhpn6jyXC6WuFuuclQM3vcAbxdECLdgnMGVZEtcLCV6P9IvxIuY1ykqBuOa0pzp11Rc5BBmzc5/8A3dfJxTrdq+CHAfm8qVWwgOHZQ3Et/SPIHmf/xAAmEAEAAgICAgIBBQEBAAAAAAABABEhMUFREGFxgSCRobHB8NHh/9oACAEBAAE/IRbERpKSIAagwQp4VspAUc68YH637gn+A/uf5L+4katdf9IiNJmX1A2RmTKuPpratkqo6px1CaWhWIFaA/aX5YZe3vwgAZg+hvU7w+Tu5ivME8dKvYZsPSr3DyBfDIoGq1f6pTOMsaGz1iJ6uGCpfY53ZB6Ja0v14lXcRxmPM8AupovUJKHCE+oQWCqF+krMUMJZSflnQ+QSUeMNYVcUGreoxy/UflFArmJby44lD+bZVtSzA8Q2MkwlxRGoKuquOGvLZ1S1LMqncM5dsCVKiRIbEqSkuZJe3RvB4lrGvwV3Gway5qyLZgY7RCGCb0gfiz6/c9OCV/n4hkEOVwbBjDZtosv6jqXLbeoeXLD8WFgts4lqK/bkt/KpWWnLy/qwQPXhdinc0nRNpp+LSZzRWUstL112PT59eqxGXz8+B+J1MqgKqVx2L3ne6ffgLcdNqIN2Jpg76g5j5xS5d1FA4KFVC6+JShtkrhHwxTW5XbBq7n5lqY5px6SGs5jWypQUqPNRCt4vm35iIyHKcMvOmXrcjiPb38TDADgp8XEXnMuYAUWVuDLVRmk2IVXFq9oPiHs5Myz9vFRKChn9EBlemoXJoFRxAEqcwpj2VRDaWmVcD7lLRVOJ/Y7cTPIKnLWyHQdeBYPc2DNuQ66gp5WyGIQUu0MQdhRrB6mTXUaH3CyJb4XL5DAQN12dX3KkNDoY3Ba0uXVtzNfZ4NyUWdxLUl8T/wAlG0PpVDHd7lCe5sCaLZ9iZidw15U+/wD5KF9zNFhn23M3g11OIRAoT3oTlDsS5cscx7JkaUf/AGo17W3Gbz914GIZG7iXLlxfDNflP3UGi/U+RQ8AoUHJ3MzzV0KUD1uDeGFvxCunjyoc7xnwlkxgRCwAlleogwPq579jKTJhVkdkLV5h4LHX9AlnV45iQpeG6qOn6NH7TYhGyVyKlUd2H+dwqKdWjnDfv1MvhU3orH7Q0D7gcj3CCDnysJSqYgk+RzFEyx6upb2XWvr04uKutVWYq/fUScFzbNwAtPuX6jnztgQRw8zQa+pmPcOAYS0wUNfrAZQXR7L6l/UCjwSA5zKrXmDqf0zh8fibPLP/2gAMAwEAAgADAAAAENuACObZz3ZhbQiKAZK/0cn7DwAEwXu1Bgn7oL08EShXEwgN7f0IkFxw3JiMg5tUo9qOBW52lXAhFPaEG2INZUJILaz1tpYi8Y8T4Lv6yu1kSlSJxVjxZWtMaXz+coFPN+lsOEI+xkQSEl6rFXDIJIT/AP/EACcRAQACAwAABQQCAwAAAAAAAAEAERAhMSBBUWGRcaGx4YHB0fDx/9oACAEDAQE/EKDHlcshKi3wVKlYtbj5mWtSHKKvmRVUDYxcuXKYfRFXGcnCQ1BQV4AFM1VUHiI9nOMVKly2XcrxCXTPOoMrRcPWJ7xO4iHYILIAfWCmst08pRbGW2LhcIGPdTeZo1m4sDTFly5cUqCIQRfAodgusZcvClKXNRyKrj2E4i3Lly4otxUx01k3aXLBcXhSt7gvTiebBUOE60GoPIQXGGBxNEL+Dd/WGGuuoiVGlvwMBWa3NaJ17/GoutuBXvv0hOp5sOejrdcgCz7P3EK6W75LISKrcWNXLwqDXL/uOAfZ+42d1/2InZBEHc0bHfLf5gCIEINvnChkuWESts3Vo8n0IEB+fxKA6/RFoqg/MOmCWh7v9Q9vDdwfPFNmppcdeG/9HCPtnb9v8w/Ifgg9OoNcESshPefMWJax9SAcZ7sBRS/Rh6v5iZ7WDFeJBvhIAq3KlQgwMhL4TA0lRW38zhlYsZqM9lUqc7k4RuhGihv5nBgtOhjl14EXxCeV0lRD30gHL+09SkteHXk5rDwi3G4wlYOS83GDKVeExcrPcjORTtj2EOQ5HvheRy//xAAlEQEAAgMAAQQBBQEAAAAAAAABABEQITFBIFFhcTCBkaGx8NH/2gAIAQIBAT8QxfqQSkpKehLblIFSrGaBwxeX/AAXcAtGBUS5UqVgV6FCb8iCVCUsh7/UHxLS0SAkD4wB7wHkFVMtaQbMkYq6IFHqGo0AOzZWEuU94D3holy5cvCWwoN7wYHFy5cvO/eF+c2anObly87LiszpHOGXLg5V2TUF4MJ8TosBIux5qWgnFP2mwICadQhLi0SoI8Q3OkPvFp4H2vx/txyhLVhoGCGDVxbjhZSPwhaixJ0Gz5P+QV5L5VxiGr8Rl7qaaqXqwjeH8xjeHktoRKrNtB7S62kNqqB+/wCIRTxL1EaqF8e0a+JyxxHU7Gc/SLquDb7hUnXv8e07Tpj/AK+5eq5oMcwaxGT4J8cKp0T5n7wl1cTw1PjhLXqhd4rIY7hzHxYqcQuARA8pXPm4HLxKxyK1wiXOQpKk4liKI6iin6PiXyt1+mbNEO8puJKi2UETQWPm65XiK61+mGJ4Kv8AtiCJBaBWHkAxD2ABRBLGAPmCD3w1njDhajuUS/V1hnmc/h//xAAmEAEAAgICAgICAgMBAAAAAAABABEhMUFRYXGBkaGxEMHR4fDx/9oACAEBAAE/EKo45ipyKRKRibvBVV1bouMNNsSt4mMNETAAtJh9Qi4GumjJChC5EO6eoXVCGXg3BREcGL6NoiUBpEpGNjASVdJk3CsCWF0K3zEZ2CcgDXDgN6zDCDAUrSstgVMjFWWv9sU6YAKaY3FpmUAA0M4zyfMPEZnFyUS5C9gavWKbW95L7tu+8wIIKgGc3u7/ADKFlWSFFZ3ig44gGBSCi1bX3OxgAYJgLt6JsMHRCXN0kFYMq4DCC14gYC8MoB4YIoYK18ThZWlmtQGgG9N9ywqeDwH9Qvuy/UregBCYKu+JjGh0QjtC5YbbRUIvALWWarKnZd1uEsGrQMjojmr8fdhrrGhYiq2cx2C/UIQhCM+XE6xXqVlev7W/xChklnXyxKM4wMH1HDzO8e1ley5iHXg0yr60efERffIGxwTCfK2fM2LDC6KQ+IT+yAW10/wQpZBgA6ur27hEnF5Jw1Cpe0tZrxmHfLKdSk1jqVRkxuAUiOD3DYQ0La8XnuUSaCUq8XwZf44+kKw2ZqOdIWFBHCOIpQ2lyLOUvz1E2DwTHEzP1KlRIMfMxIB5G4GcQrsXkBH9G8XK1dkpU/P4Z5kLiqnP1LpSCoX8s16iJNKDTDW3mPoTRZDYvcqVEhw/EIVMmibMXqv2RVLFFnHUZ99dDniO4ZC095f9ETS2C6ISwfcKrUDc8n3Bh4zBhKlRId+oMoLOW66Onj6YystBre8ns6dRhL+tVlgYcp7pjsUlUrYqHPww4IEqJB+n9Q5VE/Ioo2NXjx11KAPWh1LcLsz8xinKriQNWnOR3GS9oChuq/6oHMJRQHzz8w6ZUxUya+oe7Ze28d49/UqmWhF7OMxm1QVVGn7YIMnuV5hIb6wFlufxDFhtYhMAMAIRa2b1aW8r41TKuwFWNWJHNVmiwafqWQmYgK80LrVFtmBiHzrtG+O0JZ8xly1HW4PAF9o9XeFIYGfC/uU9pUo9jN9Q15Xs0LZOgPj+G6fmMW7VBgLUaW1d3Xkhx1ZefCJY4xv/AGc+5RbtPTMnbEmtjj3BNpkg018yxFabK0v/ABCa6FCwwVT1X7gVEq1zr7c6gRlTM0mI8v1yMAFqvEIMoXFGnmWjgttp2YLzFVdYVLVJnCRY5tS3vAwK1PNQJmNNAFC2HK+fQyz69Vs7PHUZ6IFa0Ra8/uKJQm1hijXFR7YsXsobAiOOPMpk0BjyCsMaY9zAFCgIitVkmTLKRasIelLvzLTgpU0O6uqjDIIKtbL5NQ+IT8H8eoNwRVZenT4ZbTMPLRm/C783LzsW7TeiMncGDiwxXb687iCKOYjKp9wdZlcjO+dV04QjmJ6Iez2yx/8AV/G44ijRE9QeQ8VPwK7+OLh+Ff0EYdEByIHcBgfEIFlQZtp3E/5JdbVVloakEwZeomg76dyn/clolgVbuClHiPM8XHt3AxBsgVpK2Mc1jhxtvxAP8HjzPPnmLFAqcNJwtW/csrTl8xAJjB9xXBgDRVVAdYgZZGgNAt32VZu5eYFsRuQ/15iwBvxFizBRuWewW9xy3LgeYqjJp0eWXDmoRGh4js8fmUI9Ss0+NNLyXgsebVzEfa1gT+TqUGSthTGbOnhiwyGSz/ww6JYypyxhp7hcPDjOl4PqBNAbpHtVorkKAxQ3/ibx15laCiXQ2jXFIhEA7iIV25/cFoSNmYMFY/SM1j7ambRHLRFfLt5f9RqVjFrPUNSK0JccEt7ZHt+ZYwAzVY1/ctsY6vmEN5u8JaKaABty7gYFMIASkY3pVZby8U/rQqt4xVVG0jbleYrq75Y1WtsZS6Jgt1jdamkIoO4LWDatKX/W5nvp6mEQJzL7AbxFaCQKjAKAbPtnxxPJDULcZrCjthctX4gBQA8T++fnTZ6n7v2/iOoxjPyv4Zxn/9k=;" vertex="1" parent="vlCZbG9oBxgesIhF5QOp-7">
          <mxGeometry x="5.75" y="28.340000000000003" width="51" height="89.38" as="geometry" />
        </mxCell>
        <mxCell id="vlCZbG9oBxgesIhF5QOp-9" value="" style="shape=image;verticalLabelPosition=bottom;labelBackgroundColor=default;verticalAlign=top;aspect=fixed;imageAspect=0;image=data:image/jpeg,/9j/4AAQSkZJRgABAQEBLAEsAAD/4QDGRXhpZgAASUkqAAgAAAAHABIBAwABAAAAAQAAABoBBQABAAAAYgAAABsBBQABAAAAagAAACgBAwABAAAAAgAAADEBAgANAAAAcgAAADIBAgAUAAAAgAAAAGmHBAABAAAAlAAAAAAAAAAsAQAAAQAAACwBAAABAAAAR0lNUCAyLjEwLjM4AAAyMDI1OjA1OjE2IDIyOjI1OjM5AAMAAaADAAEAAAABAAAAAqAEAAEAAABlAAAAA6AEAAEAAACxAAAAAAAAAP/hDNFodHRwOi8vbnMuYWRvYmUuY29tL3hhcC8xLjAvADw/eHBhY2tldCBiZWdpbj0i77u/IiBpZD0iVzVNME1wQ2VoaUh6cmVTek5UY3prYzlkIj8+IDx4OnhtcG1ldGEgeG1sbnM6eD0iYWRvYmU6bnM6bWV0YS8iIHg6eG1wdGs9IlhNUCBDb3JlIDQuNC4wLUV4aXYyIj4gPHJkZjpSREYgeG1sbnM6cmRmPSJodHRwOi8vd3d3LnczLm9yZy8xOTk5LzAyLzIyLXJkZi1zeW50YXgtbnMjIj4gPHJkZjpEZXNjcmlwdGlvbiByZGY6YWJvdXQ9IiIgeG1sbnM6eG1wTU09Imh0dHA6Ly9ucy5hZG9iZS5jb20veGFwLzEuMC9tbS8iIHhtbG5zOnN0RXZ0PSJodHRwOi8vbnMuYWRvYmUuY29tL3hhcC8xLjAvc1R5cGUvUmVzb3VyY2VFdmVudCMiIHhtbG5zOmRjPSJodHRwOi8vcHVybC5vcmcvZGMvZWxlbWVudHMvMS4xLyIgeG1sbnM6R0lNUD0iaHR0cDovL3d3dy5naW1wLm9yZy94bXAvIiB4bWxuczp4bXA9Imh0dHA6Ly9ucy5hZG9iZS5jb20veGFwLzEuMC8iIHhtcE1NOkRvY3VtZW50SUQ9ImdpbXA6ZG9jaWQ6Z2ltcDo5YmY3ZTUyZC1lNDliLTQ1Y2EtYmY4Yi0xNjM4NjQyOGM2ZDIiIHhtcE1NOkluc3RhbmNlSUQ9InhtcC5paWQ6NWIwZTdhZjMtNzE2My00ZmYyLTlkMDYtODg5YjA3ZDYwNWRmIiB4bXBNTTpPcmlnaW5hbERvY3VtZW50SUQ9InhtcC5kaWQ6NDhkNzE1NGYtZDZlMS00NzVhLThmOGQtMzNmNWMxZGM3MWU3IiBkYzpGb3JtYXQ9ImltYWdlL2pwZWciIEdJTVA6QVBJPSIyLjAiIEdJTVA6UGxhdGZvcm09Ik1hYyBPUyIgR0lNUDpUaW1lU3RhbXA9IjE3NDc0MjcxNDM4OTk2ODQiIEdJTVA6VmVyc2lvbj0iMi4xMC4zOCIgeG1wOkNyZWF0b3JUb29sPSJHSU1QIDIuMTAiIHhtcDpNZXRhZGF0YURhdGU9IjIwMjU6MDU6MTZUMjI6MjU6MzkrMDI6MDAiIHhtcDpNb2RpZnlEYXRlPSIyMDI1OjA1OjE2VDIyOjI1OjM5KzAyOjAwIj4gPHhtcE1NOkhpc3Rvcnk+IDxyZGY6U2VxPiA8cmRmOmxpIHN0RXZ0OmFjdGlvbj0ic2F2ZWQiIHN0RXZ0OmNoYW5nZWQ9Ii8iIHN0RXZ0Omluc3RhbmNlSUQ9InhtcC5paWQ6YjVlNWE5NTctNWUzOC00MjVmLTg5NzItNTEyOTU2MjZkMjg1IiBzdEV2dDpzb2Z0d2FyZUFnZW50PSJHaW1wIDIuMTAgKE1hYyBPUykiIHN0RXZ0OndoZW49IjIwMjUtMDUtMTZUMjI6MjU6NDMrMDI6MDAiLz4gPC9yZGY6U2VxPiA8L3htcE1NOkhpc3Rvcnk+IDwvcmRmOkRlc2NyaXB0aW9uPiA8L3JkZjpSREY+IDwveDp4bXBtZXRhPiAgICAgICAgICAgICAgICAgICAgICAgICAgICAgICAgICAgICAgICAgICAgICAgICAgICAgICAgICAgICAgICAgICAgICAgICAgICAgICAgICAgICAgICAgICAgICAgICAgICAgICAgICAgICAgICAgICAgICAgICAgICAgICAgICAgICAgICAgICAgICAgICAgICAgICAgICAgICAgICAgICAgICAgICAgICAgICAgICAgICAgICAgICAgICAgICAgICAgICAgICAgICAgICAgICAgICAgICAgICAgICAgICAgICAgICAgICAgICAgICAgICAgICAgICAgICAgICAgICAgICAgICAgICAgICAgICAgICAgICAgICAgICAgICAgICAgICAgICAgICAgICAgICAgICAgICAgICAgICAgICAgICAgICAgICAgICAgICAgICAgICAgICAgICAgICAgICAgICAgICAgICAgICAgICAgICAgICAgICAgICAgICAgICAgICAgICAgICAgICAgICAgICAgICAgICAgICAgICAgICAgICAgICAgICAgICAgICAgICAgICAgICAgICAgICAgICAgICAgICAgICAgICAgICAgICAgICAgICAgICAgICAgICAgICAgICAgICAgICAgICAgICAgICAgICAgICAgICAgICAgICAgICAgICAgICAgICAgICAgICAgICAgICAgICAgICAgICAgICAgICAgICAgICAgICAgICAgICAgICAgICAgICAgICAgICAgICAgICAgICAgICAgICAgICAgICAgICAgICAgICAgICAgICAgICAgICAgICAgICAgICAgICAgICAgICAgICAgICAgICAgICAgICAgICAgICAgICAgICAgICAgICAgICAgICAgICAgICAgICAgICAgICAgICAgICAgICAgICAgICAgICAgICAgICAgICAgICAgICAgICAgICAgICAgICAgICAgICAgICAgICAgICAgICAgICAgICAgICAgICAgICAgICAgICAgICAgICAgICAgICAgICAgICAgICAgICAgICAgICAgICAgICAgICAgICAgICAgICAgICAgICAgICAgICAgICAgICAgICAgICAgICAgICAgICAgICAgICAgICAgICAgICAgICAgICAgICAgICAgICAgICAgICAgICAgICAgICAgICAgICAgICAgICAgICAgICAgICAgICAgICAgICAgICAgICAgICAgICAgICAgICAgICAgICAgICAgICAgICAgICAgICAgICAgICAgICAgICAgICAgICAgICAgICAgICAgICAgICAgICAgICAgICAgICAgICAgICAgICAgICAgICAgICAgICAgICAgICAgICAgICAgICAgICAgICAgICAgICAgICAgICAgICAgICAgICAgICAgICAgICAgICAgICAgICAgICAgICAgICAgICAgICAgICAgICAgICAgICAgICAgICAgICAgICAgICAgICAgICAgICAgICAgICAgICAgICAgICAgICAgICAgICAgICAgICAgICAgICAgICAgICAgICAgICAgICAgICAgICAgICAgICAgICAgICAgICAgICAgICAgICAgICAgICAgICAgICAgICAgICAgICAgICAgICAgICAgICAgICAgICAgICAgICAgICAgICAgICAgICAgICAgICAgICAgICAgICAgICAgICAgICAgICAgICAgICAgICAgICAgICAgICAgICAgICAgICAgICAgICAgICAgICAgICAgICAgICAgICAgICAgICAgICAgICAgICAgICAgICAgICAgICAgICAgICAgICAgICAgICAgICAgICAgICAgICAgICAgICAgICAgICAgICAgICAgICAgICAgICAgICAgICAgICAgICAgICAgICAgICAgICAgICAgICAgICAgICAgICAgICAgICAgICAgICAgICAgICAgICAgICAgICAgICAgICAgICAgICAgICAgICAgICAgICAgICAgICAgICAgICAgICAgICAgICAgICAgICAgICAgICAgICAgICAgICAgICAgICAgICAgICAgICAgICAgICAgICAgICAgICAgICAgICAgICAgICAgICAgICAgICAgICAgICAgICAgICAgICAgICAgICAgICAgICAgICAgICAgICAgICAgICAgICAgICAgICAgICAgICAgICAgICAgICAgICAgICAgICAgICAgICAgICAgICAgICAgICAgICAgICAgICAgICAgICAgICAgICAgICAgICAgICAgICAgICAgICAgICAgICAgICAgICAgICAgICAgICAgICAgICAgICAgICAgICAgICAgICAgICAgICAgICAgICAgICAgICAgICAgICAgICAgICAgICAgICAgICAgICAgICAgICAgICAgICAgICAgICAgICAgICAgICAgICAgICAgICAgICAgICAgICAgICAgICAgICAgICAgICAgICAgICAgICAgICAgICAgICAgICAgICAgICAgICAgICAgICAgICAgICAgICAgICAgICAgICAgICAgICAgICAgICAgICAgICAgICAgICAgICAgICAgICAgICAgICAgICAgICAgICAgICAgICAgICAgICAgICAgICAgICAgICAgICAgIDw/eHBhY2tldCBlbmQ9InciPz7/4gKwSUNDX1BST0ZJTEUAAQEAAAKgbGNtcwRAAABtbnRyUkdCIFhZWiAH6QAFABAAFAAXACthY3NwQVBQTAAAAAAAAAAAAAAAAAAAAAAAAAAAAAAAAAAA9tYAAQAAAADTLWxjbXMAAAAAAAAAAAAAAAAAAAAAAAAAAAAAAAAAAAAAAAAAAAAAAAAAAAAAAAAAAAAAAA1kZXNjAAABIAAAAEBjcHJ0AAABYAAAADZ3dHB0AAABmAAAABRjaGFkAAABrAAAACxyWFlaAAAB2AAAABRiWFlaAAAB7AAAABRnWFlaAAACAAAAABRyVFJDAAACFAAAACBnVFJDAAACFAAAACBiVFJDAAACFAAAACBjaHJtAAACNAAAACRkbW5kAAACWAAAACRkbWRkAAACfAAAACRtbHVjAAAAAAAAAAEAAAAMZW5VUwAAACQAAAAcAEcASQBNAFAAIABiAHUAaQBsAHQALQBpAG4AIABzAFIARwBCbWx1YwAAAAAAAAABAAAADGVuVVMAAAAaAAAAHABQAHUAYgBsAGkAYwAgAEQAbwBtAGEAaQBuAABYWVogAAAAAAAA9tYAAQAAAADTLXNmMzIAAAAAAAEMQgAABd7///MlAAAHkwAA/ZD///uh///9ogAAA9wAAMBuWFlaIAAAAAAAAG+gAAA49QAAA5BYWVogAAAAAAAAJJ8AAA+EAAC2xFhZWiAAAAAAAABilwAAt4cAABjZcGFyYQAAAAAAAwAAAAJmZgAA8qcAAA1ZAAAT0AAACltjaHJtAAAAAAADAAAAAKPXAABUfAAATM0AAJmaAAAmZwAAD1xtbHVjAAAAAAAAAAEAAAAMZW5VUwAAAAgAAAAcAEcASQBNAFBtbHVjAAAAAAAAAAEAAAAMZW5VUwAAAAgAAAAcAHMAUgBHAEL/2wBDAAkGBwgHBgkIBwgKCgkLDRYPDQwMDRsUFRAWIB0iIiAdHx8kKDQsJCYxJx8fLT0tMTU3Ojo6Iys/RD84QzQ5Ojf/2wBDAQoKCg0MDRoPDxo3JR8lNzc3Nzc3Nzc3Nzc3Nzc3Nzc3Nzc3Nzc3Nzc3Nzc3Nzc3Nzc3Nzc3Nzc3Nzc3Nzc3Nzf/wgARCACxAGUDAREAAhEBAxEB/8QAGgAAAgMBAQAAAAAAAAAAAAAAAgQBAwUGAP/EABkBAAMBAQEAAAAAAAAAAAAAAAABAgMEBf/aAAwDAQACEAMQAAAB5S5uMzCSZCo18Pw20Ph4PBlMqMjFoJeBJ6XldJL46jXRsoEDDlmVPmIQlVG0FaAtGbxamQuRUKVEO6XjWawUSRp7rDTzGk0TRISEgmG0kI0VNd42rbQRj1FiRTtqzvmXjLSYaaIkT15DJNzICAKrZ308+xa8lGqA0kQCVc1jxkmUQ2CoF1az6ElnSCbGEEIHzMGBJeDwwdKnVrTqiysKAZly8JfNaSSnwQ2BVRevPWrVZASG3npn3xS8bVBJeF4YOqXpvLqXL55mshtURmprytYZ1E6U9WLfGFVJtoLrArEpC11EPGof6Off4p54wNibiuqUfTvrpEObo8jYjT00/r52kRkNV7Ozm1HPpCufyMq9l6og6rDrjPrtvxZjmX9G6O62/K6y5fQ9fkXRzc3t052t2I1ub0uvvDlJ87qrrkPRx6A2weDv6+Dk54Oqs4lvN1thFhHiCeFqiLXm/Z3C0rqICZ6U6t2Sm+eXnKTqdDy8EDAoG4bsz6VXbUg1mF85INV1UdIdcY/Tnm+flDYjZx6kbbSIkXBjXmEXT4dk3pR3cfPc2Ijuz3FaK0Oo1ct2o6+d14g25Oj5ejYx05z0+bIzzvjWFadoQcQUWE701jZebTHUY7V0sAXoEPA0klLJVUDWkmDaM5ki8BCMyMi2enORQqIrQuAZAQEB4TJzeEI//8QAKRAAAgIBAwIHAAIDAAAAAAAAAQIDBAAQERITFAUVICEiMTIjMzBBQv/aAAgBAQABBQIaBGK7aHWKvJJnllvPLLWHw20Bi/Ek8mistHW7qXjNM0polVnlmgePILSKPNIN/Mq+3mkQx2LttoWAwnfSvLIBJZc5I5dkcpgmbCxJ5HTnm5OvHK9yaXI0sxGxZew3qqcQloI2fnDucrtGhWxUDf8AW5GiGJYta0nASvyPqhZkk68ixzO7Lkb8GaSSQdV4k5cj6DnUK4IrAWZ5Ym0DR8JDFxT69Bw/syUt7LQMQw2xI2xvsYPQcOVKgnjvUzW1QjoN+x6TpW4jLfAjKqQBZZIeTtXfIoTJnauI0T+V1g6eHIkV3kStGEgqvFIvB0bg7xyjL2/Pw8OxWuWXk0cvczaHJcjEhq3InSDStR7gGlsaULcpZJAyQmWR4ijQ1zMzVyDHSacyeHGPJo+m2D78N5FpCxeiXLzFmeqT3ErFpKJbnOWMtIv153dss/rE/UR45LejNWM40tXtSfk9iqaCnbO+j7VD7iWr2s3vpGPcseXI4GOcjrvnI5yOcmxfcYMP60cRCP1R433/ALkGx0Q7NN2vTrdE13/GhwfFdHfgOs2520rRJcSOBlXxCt2+qLkra+HV1mD00JKcT75QjkgPW5ZdEu/Fjix7Y7+itZeHBYkDROWlm+6wifFqrxmMe8bbRs/ob6b4sW+KnbD8sjZ4nW5ZUba7E5w0P9bf14Po/wCH/8QAKhEAAgIBAgUEAQUBAAAAAAAAAAECEQMQEgQTICExFDAyQSIFM0JRUnH/2gAIAQMBAT8Bb1b0S9hss39qNzEvtjG+3Tem7RRbFFLRj6GrOXESoWMUUvflKjf3N0TdElJV2I5DybY0PVeSTG9L0vTGxQuNj6cip9KMfxI5HFV1ZX36UY2q6aMox9CEQ7roXgyv8h9KEQr6PvXdRKKkbGxwaVkVcu5txbH276IhHcyEVHqi6s/F/Y24y7HNnojB0rHcbPSTf8jJiak4/wBGSTf4sjjczkmPhd8XKxfpz87h45Y5uKHklHyRe5XrCuVbI0lRmvnySJW3ZiGcMly23/ZjSUTiL9RKidsx/DXhVeMjw8uZRxP70i4baIFqj9P+Ev8Ap6eXM2nF/vyPw20Y/jrLNOHaLPU5v9Em27ZbLZuZDNkh8Weqzf6HJt29MfjXJ51lGNdtaK1x+Nci+9YfI7HYeqQlS6KJxpkPkRg5eCXByS7E47dKIQroxxVdyEI/ZxWKpUhQaZCVeTdAnFybYsbFFLpjJoXENeCcnJ2/cXsOSQ8jL91H/8QAKREAAgIABQMEAQUAAAAAAAAAAAECEQMQEiExBCAwEzNBUSIFMkBhgf/aAAgBAgEBPwHwWWWX21mk7yooory13WUbHBfcz4ErKGU8nE4N77Hx4JFOyqzorwKVfwWxeB7CzfIvB8HxkzTeUYalZOWlidod32bm/YjDaULZKEpOxcdiyWerc9Uhj6eRdRhwfBCGuOoXS2rsmtEtJ6hrHi0Rleb/AHDyZgV6O5FJKkdR7rHyfQzD4yZPkc1Q/g2o6P2xYeJ6tnV+6a1R8I2ohxkxRT5NEfo0o0oUnHg9Sf2Nat2aI/RpRpQ1WTI8eKWTIvN5flt/hiL8X2PfssTsZPEjBXIh+pYG2/BHF9TDecpCzkNkJF2Y0JOnAcOo/ohi6cPRRqHKyuxmnKIy8nyV2PsXhfYvD//EADQQAAEDAgMGBAQFBQAAAAAAAAEAAhESIQMQMRMgIkFRYQQwMnEjM0KRUmKBkqFygqKx8P/aAAgBAQAGPwLIuDTA1O8KYvpLgJXyx+4L5Y/cF8v/ACGQI1RPVPwABDuaAnRS5AviO6oeZB7aZNGIHWjSLwp2L0RssSD3UtwXzykouOpM71LRLRc2UMBqUu1Vly+ynyDhMZ4drY0LSpA8O6nSeSjEZh1A+po35jinWFI9XPN22wy8QjPhiRNrdlYQMrK7KjF9y4sqotvy0SvS37KHNbHYZTSHe6aQxluiM4TI591IEdt6AiAxrp7o4boB7ZxSaoXAxwO/fRN+DiRN/t7puwY5trzmCB5NTnEDoAg4GWHNuo/VHyKcLGdTP4UWPxz1inKrGcJ6FCC2D/Cu5s9U6COFNfIhyAcCRzhPDMF9XK2mcPxBhjqU3Z47XD6lx+Ja13JFocHAcwmu6GUHOwfDy5wF0A5jWnqDMotZzb1hUOdFOhq16J0GDojx67gds8IsDefZOc/CwektzNJiOqipPIcAG2MotfEoioT3RadQqWlEF2icARwoS8foozIbT/cU4n3T2sDXSbhyL3NIkqGtBJ6mE5zhEnknNw6anc3JxIv2TtnFR6q7KQCZ90chlUPU61KPutntOFFBoZf8PQ9cq/q0pRWy2nD/ACnbmq1Wu7qtSr5nNpY4l/Mb5RynMTdOp2Xp5G9VkKtnoap17QjvgalcV1LdDkHYgbhsZw8P1FHDhpn6jyXC6WuFuuclQM3vcAbxdECLdgnMGVZEtcLCV6P9IvxIuY1ykqBuOa0pzp11Rc5BBmzc5/8A3dfJxTrdq+CHAfm8qVWwgOHZQ3Et/SPIHmf/xAAmEAEAAgICAgIBBQEBAAAAAAABABEhMUFREGFxgSCRobHB8NHh/9oACAEBAAE/IRbERpKSIAagwQp4VspAUc68YH637gn+A/uf5L+4katdf9IiNJmX1A2RmTKuPpratkqo6px1CaWhWIFaA/aX5YZe3vwgAZg+hvU7w+Tu5ivME8dKvYZsPSr3DyBfDIoGq1f6pTOMsaGz1iJ6uGCpfY53ZB6Ja0v14lXcRxmPM8AupovUJKHCE+oQWCqF+krMUMJZSflnQ+QSUeMNYVcUGreoxy/UflFArmJby44lD+bZVtSzA8Q2MkwlxRGoKuquOGvLZ1S1LMqncM5dsCVKiRIbEqSkuZJe3RvB4lrGvwV3Gway5qyLZgY7RCGCb0gfiz6/c9OCV/n4hkEOVwbBjDZtosv6jqXLbeoeXLD8WFgts4lqK/bkt/KpWWnLy/qwQPXhdinc0nRNpp+LSZzRWUstL112PT59eqxGXz8+B+J1MqgKqVx2L3ne6ffgLcdNqIN2Jpg76g5j5xS5d1FA4KFVC6+JShtkrhHwxTW5XbBq7n5lqY5px6SGs5jWypQUqPNRCt4vm35iIyHKcMvOmXrcjiPb38TDADgp8XEXnMuYAUWVuDLVRmk2IVXFq9oPiHs5Myz9vFRKChn9EBlemoXJoFRxAEqcwpj2VRDaWmVcD7lLRVOJ/Y7cTPIKnLWyHQdeBYPc2DNuQ66gp5WyGIQUu0MQdhRrB6mTXUaH3CyJb4XL5DAQN12dX3KkNDoY3Ba0uXVtzNfZ4NyUWdxLUl8T/wAlG0PpVDHd7lCe5sCaLZ9iZidw15U+/wD5KF9zNFhn23M3g11OIRAoT3oTlDsS5cscx7JkaUf/AGo17W3Gbz914GIZG7iXLlxfDNflP3UGi/U+RQ8AoUHJ3MzzV0KUD1uDeGFvxCunjyoc7xnwlkxgRCwAlleogwPq579jKTJhVkdkLV5h4LHX9AlnV45iQpeG6qOn6NH7TYhGyVyKlUd2H+dwqKdWjnDfv1MvhU3orH7Q0D7gcj3CCDnysJSqYgk+RzFEyx6upb2XWvr04uKutVWYq/fUScFzbNwAtPuX6jnztgQRw8zQa+pmPcOAYS0wUNfrAZQXR7L6l/UCjwSA5zKrXmDqf0zh8fibPLP/2gAMAwEAAgADAAAAENuACObZz3ZhbQiKAZK/0cn7DwAEwXu1Bgn7oL08EShXEwgN7f0IkFxw3JiMg5tUo9qOBW52lXAhFPaEG2INZUJILaz1tpYi8Y8T4Lv6yu1kSlSJxVjxZWtMaXz+coFPN+lsOEI+xkQSEl6rFXDIJIT/AP/EACcRAQACAwAABQQCAwAAAAAAAAEAERAhMSBBUWGRcaGx4YHB0fDx/9oACAEDAQE/EKDHlcshKi3wVKlYtbj5mWtSHKKvmRVUDYxcuXKYfRFXGcnCQ1BQV4AFM1VUHiI9nOMVKly2XcrxCXTPOoMrRcPWJ7xO4iHYILIAfWCmst08pRbGW2LhcIGPdTeZo1m4sDTFly5cUqCIQRfAodgusZcvClKXNRyKrj2E4i3Lly4otxUx01k3aXLBcXhSt7gvTiebBUOE60GoPIQXGGBxNEL+Dd/WGGuuoiVGlvwMBWa3NaJ17/GoutuBXvv0hOp5sOejrdcgCz7P3EK6W75LISKrcWNXLwqDXL/uOAfZ+42d1/2InZBEHc0bHfLf5gCIEINvnChkuWESts3Vo8n0IEB+fxKA6/RFoqg/MOmCWh7v9Q9vDdwfPFNmppcdeG/9HCPtnb9v8w/Ifgg9OoNcESshPefMWJax9SAcZ7sBRS/Rh6v5iZ7WDFeJBvhIAq3KlQgwMhL4TA0lRW38zhlYsZqM9lUqc7k4RuhGihv5nBgtOhjl14EXxCeV0lRD30gHL+09SkteHXk5rDwi3G4wlYOS83GDKVeExcrPcjORTtj2EOQ5HvheRy//xAAlEQEAAgMAAQQBBQEAAAAAAAABABEQITFBIFFhcTCBkaGx8NH/2gAIAQIBAT8QxfqQSkpKehLblIFSrGaBwxeX/AAXcAtGBUS5UqVgV6FCb8iCVCUsh7/UHxLS0SAkD4wB7wHkFVMtaQbMkYq6IFHqGo0AOzZWEuU94D3holy5cvCWwoN7wYHFy5cvO/eF+c2anObly87LiszpHOGXLg5V2TUF4MJ8TosBIux5qWgnFP2mwICadQhLi0SoI8Q3OkPvFp4H2vx/txyhLVhoGCGDVxbjhZSPwhaixJ0Gz5P+QV5L5VxiGr8Rl7qaaqXqwjeH8xjeHktoRKrNtB7S62kNqqB+/wCIRTxL1EaqF8e0a+JyxxHU7Gc/SLquDb7hUnXv8e07Tpj/AK+5eq5oMcwaxGT4J8cKp0T5n7wl1cTw1PjhLXqhd4rIY7hzHxYqcQuARA8pXPm4HLxKxyK1wiXOQpKk4liKI6iin6PiXyt1+mbNEO8puJKi2UETQWPm65XiK61+mGJ4Kv8AtiCJBaBWHkAxD2ABRBLGAPmCD3w1njDhajuUS/V1hnmc/h//xAAmEAEAAgICAgICAgMBAAAAAAABABEhMUFRYXGBkaGxEMHR4fDx/9oACAEBAAE/EKo45ipyKRKRibvBVV1bouMNNsSt4mMNETAAtJh9Qi4GumjJChC5EO6eoXVCGXg3BREcGL6NoiUBpEpGNjASVdJk3CsCWF0K3zEZ2CcgDXDgN6zDCDAUrSstgVMjFWWv9sU6YAKaY3FpmUAA0M4zyfMPEZnFyUS5C9gavWKbW95L7tu+8wIIKgGc3u7/ADKFlWSFFZ3ig44gGBSCi1bX3OxgAYJgLt6JsMHRCXN0kFYMq4DCC14gYC8MoB4YIoYK18ThZWlmtQGgG9N9ywqeDwH9Qvuy/UregBCYKu+JjGh0QjtC5YbbRUIvALWWarKnZd1uEsGrQMjojmr8fdhrrGhYiq2cx2C/UIQhCM+XE6xXqVlev7W/xChklnXyxKM4wMH1HDzO8e1ley5iHXg0yr60efERffIGxwTCfK2fM2LDC6KQ+IT+yAW10/wQpZBgA6ur27hEnF5Jw1Cpe0tZrxmHfLKdSk1jqVRkxuAUiOD3DYQ0La8XnuUSaCUq8XwZf44+kKw2ZqOdIWFBHCOIpQ2lyLOUvz1E2DwTHEzP1KlRIMfMxIB5G4GcQrsXkBH9G8XK1dkpU/P4Z5kLiqnP1LpSCoX8s16iJNKDTDW3mPoTRZDYvcqVEhw/EIVMmibMXqv2RVLFFnHUZ99dDniO4ZC095f9ETS2C6ISwfcKrUDc8n3Bh4zBhKlRId+oMoLOW66Onj6YystBre8ns6dRhL+tVlgYcp7pjsUlUrYqHPww4IEqJB+n9Q5VE/Ioo2NXjx11KAPWh1LcLsz8xinKriQNWnOR3GS9oChuq/6oHMJRQHzz8w6ZUxUya+oe7Ze28d49/UqmWhF7OMxm1QVVGn7YIMnuV5hIb6wFlufxDFhtYhMAMAIRa2b1aW8r41TKuwFWNWJHNVmiwafqWQmYgK80LrVFtmBiHzrtG+O0JZ8xly1HW4PAF9o9XeFIYGfC/uU9pUo9jN9Q15Xs0LZOgPj+G6fmMW7VBgLUaW1d3Xkhx1ZefCJY4xv/AGc+5RbtPTMnbEmtjj3BNpkg018yxFabK0v/ABCa6FCwwVT1X7gVEq1zr7c6gRlTM0mI8v1yMAFqvEIMoXFGnmWjgttp2YLzFVdYVLVJnCRY5tS3vAwK1PNQJmNNAFC2HK+fQyz69Vs7PHUZ6IFa0Ra8/uKJQm1hijXFR7YsXsobAiOOPMpk0BjyCsMaY9zAFCgIitVkmTLKRasIelLvzLTgpU0O6uqjDIIKtbL5NQ+IT8H8eoNwRVZenT4ZbTMPLRm/C783LzsW7TeiMncGDiwxXb687iCKOYjKp9wdZlcjO+dV04QjmJ6Iez2yx/8AV/G44ijRE9QeQ8VPwK7+OLh+Ff0EYdEByIHcBgfEIFlQZtp3E/5JdbVVloakEwZeomg76dyn/clolgVbuClHiPM8XHt3AxBsgVpK2Mc1jhxtvxAP8HjzPPnmLFAqcNJwtW/csrTl8xAJjB9xXBgDRVVAdYgZZGgNAt32VZu5eYFsRuQ/15iwBvxFizBRuWewW9xy3LgeYqjJp0eWXDmoRGh4js8fmUI9Ss0+NNLyXgsebVzEfa1gT+TqUGSthTGbOnhiwyGSz/ww6JYypyxhp7hcPDjOl4PqBNAbpHtVorkKAxQ3/ibx15laCiXQ2jXFIhEA7iIV25/cFoSNmYMFY/SM1j7ambRHLRFfLt5f9RqVjFrPUNSK0JccEt7ZHt+ZYwAzVY1/ctsY6vmEN5u8JaKaABty7gYFMIASkY3pVZby8U/rQqt4xVVG0jbleYrq75Y1WtsZS6Jgt1jdamkIoO4LWDatKX/W5nvp6mEQJzL7AbxFaCQKjAKAbPtnxxPJDULcZrCjthctX4gBQA8T++fnTZ6n7v2/iOoxjPyv4Zxn/9k=;" vertex="1" parent="vlCZbG9oBxgesIhF5QOp-7">
          <mxGeometry x="26.25" y="48.34" width="51" height="89.38" as="geometry" />
        </mxCell>
        <mxCell id="vlCZbG9oBxgesIhF5QOp-10" value="" style="shape=image;verticalLabelPosition=bottom;labelBackgroundColor=default;verticalAlign=top;aspect=fixed;imageAspect=0;image=data:image/jpeg,/9j/4AAQSkZJRgABAQEBLAEsAAD/4QDGRXhpZgAASUkqAAgAAAAHABIBAwABAAAAAQAAABoBBQABAAAAYgAAABsBBQABAAAAagAAACgBAwABAAAAAgAAADEBAgANAAAAcgAAADIBAgAUAAAAgAAAAGmHBAABAAAAlAAAAAAAAAAsAQAAAQAAACwBAAABAAAAR0lNUCAyLjEwLjM4AAAyMDI1OjA1OjE2IDIyOjI1OjM5AAMAAaADAAEAAAABAAAAAqAEAAEAAABlAAAAA6AEAAEAAACxAAAAAAAAAP/hDNFodHRwOi8vbnMuYWRvYmUuY29tL3hhcC8xLjAvADw/eHBhY2tldCBiZWdpbj0i77u/IiBpZD0iVzVNME1wQ2VoaUh6cmVTek5UY3prYzlkIj8+IDx4OnhtcG1ldGEgeG1sbnM6eD0iYWRvYmU6bnM6bWV0YS8iIHg6eG1wdGs9IlhNUCBDb3JlIDQuNC4wLUV4aXYyIj4gPHJkZjpSREYgeG1sbnM6cmRmPSJodHRwOi8vd3d3LnczLm9yZy8xOTk5LzAyLzIyLXJkZi1zeW50YXgtbnMjIj4gPHJkZjpEZXNjcmlwdGlvbiByZGY6YWJvdXQ9IiIgeG1sbnM6eG1wTU09Imh0dHA6Ly9ucy5hZG9iZS5jb20veGFwLzEuMC9tbS8iIHhtbG5zOnN0RXZ0PSJodHRwOi8vbnMuYWRvYmUuY29tL3hhcC8xLjAvc1R5cGUvUmVzb3VyY2VFdmVudCMiIHhtbG5zOmRjPSJodHRwOi8vcHVybC5vcmcvZGMvZWxlbWVudHMvMS4xLyIgeG1sbnM6R0lNUD0iaHR0cDovL3d3dy5naW1wLm9yZy94bXAvIiB4bWxuczp4bXA9Imh0dHA6Ly9ucy5hZG9iZS5jb20veGFwLzEuMC8iIHhtcE1NOkRvY3VtZW50SUQ9ImdpbXA6ZG9jaWQ6Z2ltcDo5YmY3ZTUyZC1lNDliLTQ1Y2EtYmY4Yi0xNjM4NjQyOGM2ZDIiIHhtcE1NOkluc3RhbmNlSUQ9InhtcC5paWQ6NWIwZTdhZjMtNzE2My00ZmYyLTlkMDYtODg5YjA3ZDYwNWRmIiB4bXBNTTpPcmlnaW5hbERvY3VtZW50SUQ9InhtcC5kaWQ6NDhkNzE1NGYtZDZlMS00NzVhLThmOGQtMzNmNWMxZGM3MWU3IiBkYzpGb3JtYXQ9ImltYWdlL2pwZWciIEdJTVA6QVBJPSIyLjAiIEdJTVA6UGxhdGZvcm09Ik1hYyBPUyIgR0lNUDpUaW1lU3RhbXA9IjE3NDc0MjcxNDM4OTk2ODQiIEdJTVA6VmVyc2lvbj0iMi4xMC4zOCIgeG1wOkNyZWF0b3JUb29sPSJHSU1QIDIuMTAiIHhtcDpNZXRhZGF0YURhdGU9IjIwMjU6MDU6MTZUMjI6MjU6MzkrMDI6MDAiIHhtcDpNb2RpZnlEYXRlPSIyMDI1OjA1OjE2VDIyOjI1OjM5KzAyOjAwIj4gPHhtcE1NOkhpc3Rvcnk+IDxyZGY6U2VxPiA8cmRmOmxpIHN0RXZ0OmFjdGlvbj0ic2F2ZWQiIHN0RXZ0OmNoYW5nZWQ9Ii8iIHN0RXZ0Omluc3RhbmNlSUQ9InhtcC5paWQ6YjVlNWE5NTctNWUzOC00MjVmLTg5NzItNTEyOTU2MjZkMjg1IiBzdEV2dDpzb2Z0d2FyZUFnZW50PSJHaW1wIDIuMTAgKE1hYyBPUykiIHN0RXZ0OndoZW49IjIwMjUtMDUtMTZUMjI6MjU6NDMrMDI6MDAiLz4gPC9yZGY6U2VxPiA8L3htcE1NOkhpc3Rvcnk+IDwvcmRmOkRlc2NyaXB0aW9uPiA8L3JkZjpSREY+IDwveDp4bXBtZXRhPiAgICAgICAgICAgICAgICAgICAgICAgICAgICAgICAgICAgICAgICAgICAgICAgICAgICAgICAgICAgICAgICAgICAgICAgICAgICAgICAgICAgICAgICAgICAgICAgICAgICAgICAgICAgICAgICAgICAgICAgICAgICAgICAgICAgICAgICAgICAgICAgICAgICAgICAgICAgICAgICAgICAgICAgICAgICAgICAgICAgICAgICAgICAgICAgICAgICAgICAgICAgICAgICAgICAgICAgICAgICAgICAgICAgICAgICAgICAgICAgICAgICAgICAgICAgICAgICAgICAgICAgICAgICAgICAgICAgICAgICAgICAgICAgICAgICAgICAgICAgICAgICAgICAgICAgICAgICAgICAgICAgICAgICAgICAgICAgICAgICAgICAgICAgICAgICAgICAgICAgICAgICAgICAgICAgICAgICAgICAgICAgICAgICAgICAgICAgICAgICAgICAgICAgICAgICAgICAgICAgICAgICAgICAgICAgICAgICAgICAgICAgICAgICAgICAgICAgICAgICAgICAgICAgICAgICAgICAgICAgICAgICAgICAgICAgICAgICAgICAgICAgICAgICAgICAgICAgICAgICAgICAgICAgICAgICAgICAgICAgICAgICAgICAgICAgICAgICAgICAgICAgICAgICAgICAgICAgICAgICAgICAgICAgICAgICAgICAgICAgICAgICAgICAgICAgICAgICAgICAgICAgICAgICAgICAgICAgICAgICAgICAgICAgICAgICAgICAgICAgICAgICAgICAgICAgICAgICAgICAgICAgICAgICAgICAgICAgICAgICAgICAgICAgICAgICAgICAgICAgICAgICAgICAgICAgICAgICAgICAgICAgICAgICAgICAgICAgICAgICAgICAgICAgICAgICAgICAgICAgICAgICAgICAgICAgICAgICAgICAgICAgICAgICAgICAgICAgICAgICAgICAgICAgICAgICAgICAgICAgICAgICAgICAgICAgICAgICAgICAgICAgICAgICAgICAgICAgICAgICAgICAgICAgICAgICAgICAgICAgICAgICAgICAgICAgICAgICAgICAgICAgICAgICAgICAgICAgICAgICAgICAgICAgICAgICAgICAgICAgICAgICAgICAgICAgICAgICAgICAgICAgICAgICAgICAgICAgICAgICAgICAgICAgICAgICAgICAgICAgICAgICAgICAgICAgICAgICAgICAgICAgICAgICAgICAgICAgICAgICAgICAgICAgICAgICAgICAgICAgICAgICAgICAgICAgICAgICAgICAgICAgICAgICAgICAgICAgICAgICAgICAgICAgICAgICAgICAgICAgICAgICAgICAgICAgICAgICAgICAgICAgICAgICAgICAgICAgICAgICAgICAgICAgICAgICAgICAgICAgICAgICAgICAgICAgICAgICAgICAgICAgICAgICAgICAgICAgICAgICAgICAgICAgICAgICAgICAgICAgICAgICAgICAgICAgICAgICAgICAgICAgICAgICAgICAgICAgICAgICAgICAgICAgICAgICAgICAgICAgICAgICAgICAgICAgICAgICAgICAgICAgICAgICAgICAgICAgICAgICAgICAgICAgICAgICAgICAgICAgICAgICAgICAgICAgICAgICAgICAgICAgICAgICAgICAgICAgICAgICAgICAgICAgICAgICAgICAgICAgICAgICAgICAgICAgICAgICAgICAgICAgICAgICAgICAgICAgICAgICAgICAgICAgICAgICAgICAgICAgICAgICAgICAgICAgICAgICAgICAgICAgICAgICAgICAgICAgICAgICAgICAgICAgICAgICAgICAgICAgICAgICAgICAgICAgICAgICAgICAgICAgICAgICAgICAgICAgICAgICAgICAgICAgICAgICAgICAgICAgICAgICAgICAgICAgICAgICAgICAgICAgICAgICAgICAgICAgICAgICAgICAgICAgICAgICAgICAgICAgICAgICAgICAgICAgICAgICAgICAgICAgICAgICAgICAgICAgICAgICAgICAgICAgICAgICAgICAgICAgICAgICAgICAgICAgICAgICAgICAgICAgICAgICAgICAgICAgICAgICAgICAgICAgICAgICAgICAgICAgICAgICAgICAgICAgICAgICAgICAgICAgICAgICAgICAgICAgICAgICAgICAgICAgICAgICAgICAgICAgICAgICAgICAgICAgICAgICAgICAgICAgICAgICAgICAgICAgICAgICAgICAgICAgICAgICAgICAgICAgICAgICAgICAgICAgICAgICAgICAgICAgICAgICAgICAgICAgICAgICAgICAgICAgICAgICAgICAgICAgICAgICAgICAgICAgICAgICAgICAgICAgICAgICAgICAgICAgICAgICAgICAgICAgICAgICAgICAgICAgICAgICAgICAgIDw/eHBhY2tldCBlbmQ9InciPz7/4gKwSUNDX1BST0ZJTEUAAQEAAAKgbGNtcwRAAABtbnRyUkdCIFhZWiAH6QAFABAAFAAXACthY3NwQVBQTAAAAAAAAAAAAAAAAAAAAAAAAAAAAAAAAAAA9tYAAQAAAADTLWxjbXMAAAAAAAAAAAAAAAAAAAAAAAAAAAAAAAAAAAAAAAAAAAAAAAAAAAAAAAAAAAAAAA1kZXNjAAABIAAAAEBjcHJ0AAABYAAAADZ3dHB0AAABmAAAABRjaGFkAAABrAAAACxyWFlaAAAB2AAAABRiWFlaAAAB7AAAABRnWFlaAAACAAAAABRyVFJDAAACFAAAACBnVFJDAAACFAAAACBiVFJDAAACFAAAACBjaHJtAAACNAAAACRkbW5kAAACWAAAACRkbWRkAAACfAAAACRtbHVjAAAAAAAAAAEAAAAMZW5VUwAAACQAAAAcAEcASQBNAFAAIABiAHUAaQBsAHQALQBpAG4AIABzAFIARwBCbWx1YwAAAAAAAAABAAAADGVuVVMAAAAaAAAAHABQAHUAYgBsAGkAYwAgAEQAbwBtAGEAaQBuAABYWVogAAAAAAAA9tYAAQAAAADTLXNmMzIAAAAAAAEMQgAABd7///MlAAAHkwAA/ZD///uh///9ogAAA9wAAMBuWFlaIAAAAAAAAG+gAAA49QAAA5BYWVogAAAAAAAAJJ8AAA+EAAC2xFhZWiAAAAAAAABilwAAt4cAABjZcGFyYQAAAAAAAwAAAAJmZgAA8qcAAA1ZAAAT0AAACltjaHJtAAAAAAADAAAAAKPXAABUfAAATM0AAJmaAAAmZwAAD1xtbHVjAAAAAAAAAAEAAAAMZW5VUwAAAAgAAAAcAEcASQBNAFBtbHVjAAAAAAAAAAEAAAAMZW5VUwAAAAgAAAAcAHMAUgBHAEL/2wBDAAkGBwgHBgkIBwgKCgkLDRYPDQwMDRsUFRAWIB0iIiAdHx8kKDQsJCYxJx8fLT0tMTU3Ojo6Iys/RD84QzQ5Ojf/2wBDAQoKCg0MDRoPDxo3JR8lNzc3Nzc3Nzc3Nzc3Nzc3Nzc3Nzc3Nzc3Nzc3Nzc3Nzc3Nzc3Nzc3Nzc3Nzc3Nzc3Nzf/wgARCACxAGUDAREAAhEBAxEB/8QAGgAAAgMBAQAAAAAAAAAAAAAAAgQBAwUGAP/EABkBAAMBAQEAAAAAAAAAAAAAAAABAgMEBf/aAAwDAQACEAMQAAAB5S5uMzCSZCo18Pw20Ph4PBlMqMjFoJeBJ6XldJL46jXRsoEDDlmVPmIQlVG0FaAtGbxamQuRUKVEO6XjWawUSRp7rDTzGk0TRISEgmG0kI0VNd42rbQRj1FiRTtqzvmXjLSYaaIkT15DJNzICAKrZ308+xa8lGqA0kQCVc1jxkmUQ2CoF1az6ElnSCbGEEIHzMGBJeDwwdKnVrTqiysKAZly8JfNaSSnwQ2BVRevPWrVZASG3npn3xS8bVBJeF4YOqXpvLqXL55mshtURmprytYZ1E6U9WLfGFVJtoLrArEpC11EPGof6Off4p54wNibiuqUfTvrpEObo8jYjT00/r52kRkNV7Ozm1HPpCufyMq9l6og6rDrjPrtvxZjmX9G6O62/K6y5fQ9fkXRzc3t052t2I1ub0uvvDlJ87qrrkPRx6A2weDv6+Dk54Oqs4lvN1thFhHiCeFqiLXm/Z3C0rqICZ6U6t2Sm+eXnKTqdDy8EDAoG4bsz6VXbUg1mF85INV1UdIdcY/Tnm+flDYjZx6kbbSIkXBjXmEXT4dk3pR3cfPc2Ijuz3FaK0Oo1ct2o6+d14g25Oj5ejYx05z0+bIzzvjWFadoQcQUWE701jZebTHUY7V0sAXoEPA0klLJVUDWkmDaM5ki8BCMyMi2enORQqIrQuAZAQEB4TJzeEI//8QAKRAAAgIBAwIHAAIDAAAAAAAAAQIDBAAQERITFAUVICEiMTIjMzBBQv/aAAgBAQABBQIaBGK7aHWKvJJnllvPLLWHw20Bi/Ek8mistHW7qXjNM0polVnlmgePILSKPNIN/Mq+3mkQx2LttoWAwnfSvLIBJZc5I5dkcpgmbCxJ5HTnm5OvHK9yaXI0sxGxZew3qqcQloI2fnDucrtGhWxUDf8AW5GiGJYta0nASvyPqhZkk68ixzO7Lkb8GaSSQdV4k5cj6DnUK4IrAWZ5Ym0DR8JDFxT69Bw/syUt7LQMQw2xI2xvsYPQcOVKgnjvUzW1QjoN+x6TpW4jLfAjKqQBZZIeTtXfIoTJnauI0T+V1g6eHIkV3kStGEgqvFIvB0bg7xyjL2/Pw8OxWuWXk0cvczaHJcjEhq3InSDStR7gGlsaULcpZJAyQmWR4ijQ1zMzVyDHSacyeHGPJo+m2D78N5FpCxeiXLzFmeqT3ErFpKJbnOWMtIv153dss/rE/UR45LejNWM40tXtSfk9iqaCnbO+j7VD7iWr2s3vpGPcseXI4GOcjrvnI5yOcmxfcYMP60cRCP1R433/ALkGx0Q7NN2vTrdE13/GhwfFdHfgOs2520rRJcSOBlXxCt2+qLkra+HV1mD00JKcT75QjkgPW5ZdEu/Fjix7Y7+itZeHBYkDROWlm+6wifFqrxmMe8bbRs/ob6b4sW+KnbD8sjZ4nW5ZUba7E5w0P9bf14Po/wCH/8QAKhEAAgIBAgUEAQUBAAAAAAAAAAECEQMQEgQTICExFDAyQSIFM0JRUnH/2gAIAQMBAT8Bb1b0S9hss39qNzEvtjG+3Tem7RRbFFLRj6GrOXESoWMUUvflKjf3N0TdElJV2I5DybY0PVeSTG9L0vTGxQuNj6cip9KMfxI5HFV1ZX36UY2q6aMox9CEQ7roXgyv8h9KEQr6PvXdRKKkbGxwaVkVcu5txbH276IhHcyEVHqi6s/F/Y24y7HNnojB0rHcbPSTf8jJiak4/wBGSTf4sjjczkmPhd8XKxfpz87h45Y5uKHklHyRe5XrCuVbI0lRmvnySJW3ZiGcMly23/ZjSUTiL9RKidsx/DXhVeMjw8uZRxP70i4baIFqj9P+Ev8Ap6eXM2nF/vyPw20Y/jrLNOHaLPU5v9Em27ZbLZuZDNkh8Weqzf6HJt29MfjXJ51lGNdtaK1x+Nci+9YfI7HYeqQlS6KJxpkPkRg5eCXByS7E47dKIQroxxVdyEI/ZxWKpUhQaZCVeTdAnFybYsbFFLpjJoXENeCcnJ2/cXsOSQ8jL91H/8QAKREAAgIABQMEAQUAAAAAAAAAAAECEQMQEiExBCAwEzNBUSIFMkBhgf/aAAgBAgEBPwHwWWWX21mk7yooory13WUbHBfcz4ErKGU8nE4N77Hx4JFOyqzorwKVfwWxeB7CzfIvB8HxkzTeUYalZOWlidod32bm/YjDaULZKEpOxcdiyWerc9Uhj6eRdRhwfBCGuOoXS2rsmtEtJ6hrHi0Rleb/AHDyZgV6O5FJKkdR7rHyfQzD4yZPkc1Q/g2o6P2xYeJ6tnV+6a1R8I2ohxkxRT5NEfo0o0oUnHg9Sf2Nat2aI/RpRpQ1WTI8eKWTIvN5flt/hiL8X2PfssTsZPEjBXIh+pYG2/BHF9TDecpCzkNkJF2Y0JOnAcOo/ohi6cPRRqHKyuxmnKIy8nyV2PsXhfYvD//EADQQAAEDAgMGBAQFBQAAAAAAAAEAAhESIQMQMRMgIkFRYQQwMnEjM0KRUmKBkqFygqKx8P/aAAgBAQAGPwLIuDTA1O8KYvpLgJXyx+4L5Y/cF8v/ACGQI1RPVPwABDuaAnRS5AviO6oeZB7aZNGIHWjSLwp2L0RssSD3UtwXzykouOpM71LRLRc2UMBqUu1Vly+ynyDhMZ4drY0LSpA8O6nSeSjEZh1A+po35jinWFI9XPN22wy8QjPhiRNrdlYQMrK7KjF9y4sqotvy0SvS37KHNbHYZTSHe6aQxluiM4TI591IEdt6AiAxrp7o4boB7ZxSaoXAxwO/fRN+DiRN/t7puwY5trzmCB5NTnEDoAg4GWHNuo/VHyKcLGdTP4UWPxz1inKrGcJ6FCC2D/Cu5s9U6COFNfIhyAcCRzhPDMF9XK2mcPxBhjqU3Z47XD6lx+Ja13JFocHAcwmu6GUHOwfDy5wF0A5jWnqDMotZzb1hUOdFOhq16J0GDojx67gds8IsDefZOc/CwektzNJiOqipPIcAG2MotfEoioT3RadQqWlEF2icARwoS8foozIbT/cU4n3T2sDXSbhyL3NIkqGtBJ6mE5zhEnknNw6anc3JxIv2TtnFR6q7KQCZ90chlUPU61KPutntOFFBoZf8PQ9cq/q0pRWy2nD/ACnbmq1Wu7qtSr5nNpY4l/Mb5RynMTdOp2Xp5G9VkKtnoap17QjvgalcV1LdDkHYgbhsZw8P1FHDhpn6jyXC6WuFuuclQM3vcAbxdECLdgnMGVZEtcLCV6P9IvxIuY1ykqBuOa0pzp11Rc5BBmzc5/8A3dfJxTrdq+CHAfm8qVWwgOHZQ3Et/SPIHmf/xAAmEAEAAgICAgIBBQEBAAAAAAABABEhMUFREGFxgSCRobHB8NHh/9oACAEBAAE/IRbERpKSIAagwQp4VspAUc68YH637gn+A/uf5L+4katdf9IiNJmX1A2RmTKuPpratkqo6px1CaWhWIFaA/aX5YZe3vwgAZg+hvU7w+Tu5ivME8dKvYZsPSr3DyBfDIoGq1f6pTOMsaGz1iJ6uGCpfY53ZB6Ja0v14lXcRxmPM8AupovUJKHCE+oQWCqF+krMUMJZSflnQ+QSUeMNYVcUGreoxy/UflFArmJby44lD+bZVtSzA8Q2MkwlxRGoKuquOGvLZ1S1LMqncM5dsCVKiRIbEqSkuZJe3RvB4lrGvwV3Gway5qyLZgY7RCGCb0gfiz6/c9OCV/n4hkEOVwbBjDZtosv6jqXLbeoeXLD8WFgts4lqK/bkt/KpWWnLy/qwQPXhdinc0nRNpp+LSZzRWUstL112PT59eqxGXz8+B+J1MqgKqVx2L3ne6ffgLcdNqIN2Jpg76g5j5xS5d1FA4KFVC6+JShtkrhHwxTW5XbBq7n5lqY5px6SGs5jWypQUqPNRCt4vm35iIyHKcMvOmXrcjiPb38TDADgp8XEXnMuYAUWVuDLVRmk2IVXFq9oPiHs5Myz9vFRKChn9EBlemoXJoFRxAEqcwpj2VRDaWmVcD7lLRVOJ/Y7cTPIKnLWyHQdeBYPc2DNuQ66gp5WyGIQUu0MQdhRrB6mTXUaH3CyJb4XL5DAQN12dX3KkNDoY3Ba0uXVtzNfZ4NyUWdxLUl8T/wAlG0PpVDHd7lCe5sCaLZ9iZidw15U+/wD5KF9zNFhn23M3g11OIRAoT3oTlDsS5cscx7JkaUf/AGo17W3Gbz914GIZG7iXLlxfDNflP3UGi/U+RQ8AoUHJ3MzzV0KUD1uDeGFvxCunjyoc7xnwlkxgRCwAlleogwPq579jKTJhVkdkLV5h4LHX9AlnV45iQpeG6qOn6NH7TYhGyVyKlUd2H+dwqKdWjnDfv1MvhU3orH7Q0D7gcj3CCDnysJSqYgk+RzFEyx6upb2XWvr04uKutVWYq/fUScFzbNwAtPuX6jnztgQRw8zQa+pmPcOAYS0wUNfrAZQXR7L6l/UCjwSA5zKrXmDqf0zh8fibPLP/2gAMAwEAAgADAAAAENuACObZz3ZhbQiKAZK/0cn7DwAEwXu1Bgn7oL08EShXEwgN7f0IkFxw3JiMg5tUo9qOBW52lXAhFPaEG2INZUJILaz1tpYi8Y8T4Lv6yu1kSlSJxVjxZWtMaXz+coFPN+lsOEI+xkQSEl6rFXDIJIT/AP/EACcRAQACAwAABQQCAwAAAAAAAAEAERAhMSBBUWGRcaGx4YHB0fDx/9oACAEDAQE/EKDHlcshKi3wVKlYtbj5mWtSHKKvmRVUDYxcuXKYfRFXGcnCQ1BQV4AFM1VUHiI9nOMVKly2XcrxCXTPOoMrRcPWJ7xO4iHYILIAfWCmst08pRbGW2LhcIGPdTeZo1m4sDTFly5cUqCIQRfAodgusZcvClKXNRyKrj2E4i3Lly4otxUx01k3aXLBcXhSt7gvTiebBUOE60GoPIQXGGBxNEL+Dd/WGGuuoiVGlvwMBWa3NaJ17/GoutuBXvv0hOp5sOejrdcgCz7P3EK6W75LISKrcWNXLwqDXL/uOAfZ+42d1/2InZBEHc0bHfLf5gCIEINvnChkuWESts3Vo8n0IEB+fxKA6/RFoqg/MOmCWh7v9Q9vDdwfPFNmppcdeG/9HCPtnb9v8w/Ifgg9OoNcESshPefMWJax9SAcZ7sBRS/Rh6v5iZ7WDFeJBvhIAq3KlQgwMhL4TA0lRW38zhlYsZqM9lUqc7k4RuhGihv5nBgtOhjl14EXxCeV0lRD30gHL+09SkteHXk5rDwi3G4wlYOS83GDKVeExcrPcjORTtj2EOQ5HvheRy//xAAlEQEAAgMAAQQBBQEAAAAAAAABABEQITFBIFFhcTCBkaGx8NH/2gAIAQIBAT8QxfqQSkpKehLblIFSrGaBwxeX/AAXcAtGBUS5UqVgV6FCb8iCVCUsh7/UHxLS0SAkD4wB7wHkFVMtaQbMkYq6IFHqGo0AOzZWEuU94D3holy5cvCWwoN7wYHFy5cvO/eF+c2anObly87LiszpHOGXLg5V2TUF4MJ8TosBIux5qWgnFP2mwICadQhLi0SoI8Q3OkPvFp4H2vx/txyhLVhoGCGDVxbjhZSPwhaixJ0Gz5P+QV5L5VxiGr8Rl7qaaqXqwjeH8xjeHktoRKrNtB7S62kNqqB+/wCIRTxL1EaqF8e0a+JyxxHU7Gc/SLquDb7hUnXv8e07Tpj/AK+5eq5oMcwaxGT4J8cKp0T5n7wl1cTw1PjhLXqhd4rIY7hzHxYqcQuARA8pXPm4HLxKxyK1wiXOQpKk4liKI6iin6PiXyt1+mbNEO8puJKi2UETQWPm65XiK61+mGJ4Kv8AtiCJBaBWHkAxD2ABRBLGAPmCD3w1njDhajuUS/V1hnmc/h//xAAmEAEAAgICAgICAgMBAAAAAAABABEhMUFRYXGBkaGxEMHR4fDx/9oACAEBAAE/EKo45ipyKRKRibvBVV1bouMNNsSt4mMNETAAtJh9Qi4GumjJChC5EO6eoXVCGXg3BREcGL6NoiUBpEpGNjASVdJk3CsCWF0K3zEZ2CcgDXDgN6zDCDAUrSstgVMjFWWv9sU6YAKaY3FpmUAA0M4zyfMPEZnFyUS5C9gavWKbW95L7tu+8wIIKgGc3u7/ADKFlWSFFZ3ig44gGBSCi1bX3OxgAYJgLt6JsMHRCXN0kFYMq4DCC14gYC8MoB4YIoYK18ThZWlmtQGgG9N9ywqeDwH9Qvuy/UregBCYKu+JjGh0QjtC5YbbRUIvALWWarKnZd1uEsGrQMjojmr8fdhrrGhYiq2cx2C/UIQhCM+XE6xXqVlev7W/xChklnXyxKM4wMH1HDzO8e1ley5iHXg0yr60efERffIGxwTCfK2fM2LDC6KQ+IT+yAW10/wQpZBgA6ur27hEnF5Jw1Cpe0tZrxmHfLKdSk1jqVRkxuAUiOD3DYQ0La8XnuUSaCUq8XwZf44+kKw2ZqOdIWFBHCOIpQ2lyLOUvz1E2DwTHEzP1KlRIMfMxIB5G4GcQrsXkBH9G8XK1dkpU/P4Z5kLiqnP1LpSCoX8s16iJNKDTDW3mPoTRZDYvcqVEhw/EIVMmibMXqv2RVLFFnHUZ99dDniO4ZC095f9ETS2C6ISwfcKrUDc8n3Bh4zBhKlRId+oMoLOW66Onj6YystBre8ns6dRhL+tVlgYcp7pjsUlUrYqHPww4IEqJB+n9Q5VE/Ioo2NXjx11KAPWh1LcLsz8xinKriQNWnOR3GS9oChuq/6oHMJRQHzz8w6ZUxUya+oe7Ze28d49/UqmWhF7OMxm1QVVGn7YIMnuV5hIb6wFlufxDFhtYhMAMAIRa2b1aW8r41TKuwFWNWJHNVmiwafqWQmYgK80LrVFtmBiHzrtG+O0JZ8xly1HW4PAF9o9XeFIYGfC/uU9pUo9jN9Q15Xs0LZOgPj+G6fmMW7VBgLUaW1d3Xkhx1ZefCJY4xv/AGc+5RbtPTMnbEmtjj3BNpkg018yxFabK0v/ABCa6FCwwVT1X7gVEq1zr7c6gRlTM0mI8v1yMAFqvEIMoXFGnmWjgttp2YLzFVdYVLVJnCRY5tS3vAwK1PNQJmNNAFC2HK+fQyz69Vs7PHUZ6IFa0Ra8/uKJQm1hijXFR7YsXsobAiOOPMpk0BjyCsMaY9zAFCgIitVkmTLKRasIelLvzLTgpU0O6uqjDIIKtbL5NQ+IT8H8eoNwRVZenT4ZbTMPLRm/C783LzsW7TeiMncGDiwxXb687iCKOYjKp9wdZlcjO+dV04QjmJ6Iez2yx/8AV/G44ijRE9QeQ8VPwK7+OLh+Ff0EYdEByIHcBgfEIFlQZtp3E/5JdbVVloakEwZeomg76dyn/clolgVbuClHiPM8XHt3AxBsgVpK2Mc1jhxtvxAP8HjzPPnmLFAqcNJwtW/csrTl8xAJjB9xXBgDRVVAdYgZZGgNAt32VZu5eYFsRuQ/15iwBvxFizBRuWewW9xy3LgeYqjJp0eWXDmoRGh4js8fmUI9Ss0+NNLyXgsebVzEfa1gT+TqUGSthTGbOnhiwyGSz/ww6JYypyxhp7hcPDjOl4PqBNAbpHtVorkKAxQ3/ibx15laCiXQ2jXFIhEA7iIV25/cFoSNmYMFY/SM1j7ambRHLRFfLt5f9RqVjFrPUNSK0JccEt7ZHt+ZYwAzVY1/ctsY6vmEN5u8JaKaABty7gYFMIASkY3pVZby8U/rQqt4xVVG0jbleYrq75Y1WtsZS6Jgt1jdamkIoO4LWDatKX/W5nvp6mEQJzL7AbxFaCQKjAKAbPtnxxPJDULcZrCjthctX4gBQA8T++fnTZ6n7v2/iOoxjPyv4Zxn/9k=;" vertex="1" parent="vlCZbG9oBxgesIhF5QOp-7">
          <mxGeometry x="46.25" y="73.65" width="51" height="89.38" as="geometry" />
        </mxCell>
        <mxCell id="vlCZbG9oBxgesIhF5QOp-11" value="" style="shape=image;verticalLabelPosition=bottom;labelBackgroundColor=default;verticalAlign=top;aspect=fixed;imageAspect=0;image=data:image/jpeg,/9j/4AAQSkZJRgABAQEBLAEsAAD/4QDGRXhpZgAASUkqAAgAAAAHABIBAwABAAAAAQAAABoBBQABAAAAYgAAABsBBQABAAAAagAAACgBAwABAAAAAgAAADEBAgANAAAAcgAAADIBAgAUAAAAgAAAAGmHBAABAAAAlAAAAAAAAAAsAQAAAQAAACwBAAABAAAAR0lNUCAyLjEwLjM4AAAyMDI1OjA1OjE2IDIyOjI1OjM5AAMAAaADAAEAAAABAAAAAqAEAAEAAABlAAAAA6AEAAEAAACxAAAAAAAAAP/hDNFodHRwOi8vbnMuYWRvYmUuY29tL3hhcC8xLjAvADw/eHBhY2tldCBiZWdpbj0i77u/IiBpZD0iVzVNME1wQ2VoaUh6cmVTek5UY3prYzlkIj8+IDx4OnhtcG1ldGEgeG1sbnM6eD0iYWRvYmU6bnM6bWV0YS8iIHg6eG1wdGs9IlhNUCBDb3JlIDQuNC4wLUV4aXYyIj4gPHJkZjpSREYgeG1sbnM6cmRmPSJodHRwOi8vd3d3LnczLm9yZy8xOTk5LzAyLzIyLXJkZi1zeW50YXgtbnMjIj4gPHJkZjpEZXNjcmlwdGlvbiByZGY6YWJvdXQ9IiIgeG1sbnM6eG1wTU09Imh0dHA6Ly9ucy5hZG9iZS5jb20veGFwLzEuMC9tbS8iIHhtbG5zOnN0RXZ0PSJodHRwOi8vbnMuYWRvYmUuY29tL3hhcC8xLjAvc1R5cGUvUmVzb3VyY2VFdmVudCMiIHhtbG5zOmRjPSJodHRwOi8vcHVybC5vcmcvZGMvZWxlbWVudHMvMS4xLyIgeG1sbnM6R0lNUD0iaHR0cDovL3d3dy5naW1wLm9yZy94bXAvIiB4bWxuczp4bXA9Imh0dHA6Ly9ucy5hZG9iZS5jb20veGFwLzEuMC8iIHhtcE1NOkRvY3VtZW50SUQ9ImdpbXA6ZG9jaWQ6Z2ltcDo5YmY3ZTUyZC1lNDliLTQ1Y2EtYmY4Yi0xNjM4NjQyOGM2ZDIiIHhtcE1NOkluc3RhbmNlSUQ9InhtcC5paWQ6NWIwZTdhZjMtNzE2My00ZmYyLTlkMDYtODg5YjA3ZDYwNWRmIiB4bXBNTTpPcmlnaW5hbERvY3VtZW50SUQ9InhtcC5kaWQ6NDhkNzE1NGYtZDZlMS00NzVhLThmOGQtMzNmNWMxZGM3MWU3IiBkYzpGb3JtYXQ9ImltYWdlL2pwZWciIEdJTVA6QVBJPSIyLjAiIEdJTVA6UGxhdGZvcm09Ik1hYyBPUyIgR0lNUDpUaW1lU3RhbXA9IjE3NDc0MjcxNDM4OTk2ODQiIEdJTVA6VmVyc2lvbj0iMi4xMC4zOCIgeG1wOkNyZWF0b3JUb29sPSJHSU1QIDIuMTAiIHhtcDpNZXRhZGF0YURhdGU9IjIwMjU6MDU6MTZUMjI6MjU6MzkrMDI6MDAiIHhtcDpNb2RpZnlEYXRlPSIyMDI1OjA1OjE2VDIyOjI1OjM5KzAyOjAwIj4gPHhtcE1NOkhpc3Rvcnk+IDxyZGY6U2VxPiA8cmRmOmxpIHN0RXZ0OmFjdGlvbj0ic2F2ZWQiIHN0RXZ0OmNoYW5nZWQ9Ii8iIHN0RXZ0Omluc3RhbmNlSUQ9InhtcC5paWQ6YjVlNWE5NTctNWUzOC00MjVmLTg5NzItNTEyOTU2MjZkMjg1IiBzdEV2dDpzb2Z0d2FyZUFnZW50PSJHaW1wIDIuMTAgKE1hYyBPUykiIHN0RXZ0OndoZW49IjIwMjUtMDUtMTZUMjI6MjU6NDMrMDI6MDAiLz4gPC9yZGY6U2VxPiA8L3htcE1NOkhpc3Rvcnk+IDwvcmRmOkRlc2NyaXB0aW9uPiA8L3JkZjpSREY+IDwveDp4bXBtZXRhPiAgICAgICAgICAgICAgICAgICAgICAgICAgICAgICAgICAgICAgICAgICAgICAgICAgICAgICAgICAgICAgICAgICAgICAgICAgICAgICAgICAgICAgICAgICAgICAgICAgICAgICAgICAgICAgICAgICAgICAgICAgICAgICAgICAgICAgICAgICAgICAgICAgICAgICAgICAgICAgICAgICAgICAgICAgICAgICAgICAgICAgICAgICAgICAgICAgICAgICAgICAgICAgICAgICAgICAgICAgICAgICAgICAgICAgICAgICAgICAgICAgICAgICAgICAgICAgICAgICAgICAgICAgICAgICAgICAgICAgICAgICAgICAgICAgICAgICAgICAgICAgICAgICAgICAgICAgICAgICAgICAgICAgICAgICAgICAgICAgICAgICAgICAgICAgICAgICAgICAgICAgICAgICAgICAgICAgICAgICAgICAgICAgICAgICAgICAgICAgICAgICAgICAgICAgICAgICAgICAgICAgICAgICAgICAgICAgICAgICAgICAgICAgICAgICAgICAgICAgICAgICAgICAgICAgICAgICAgICAgICAgICAgICAgICAgICAgICAgICAgICAgICAgICAgICAgICAgICAgICAgICAgICAgICAgICAgICAgICAgICAgICAgICAgICAgICAgICAgICAgICAgICAgICAgICAgICAgICAgICAgICAgICAgICAgICAgICAgICAgICAgICAgICAgICAgICAgICAgICAgICAgICAgICAgICAgICAgICAgICAgICAgICAgICAgICAgICAgICAgICAgICAgICAgICAgICAgICAgICAgICAgICAgICAgICAgICAgICAgICAgICAgICAgICAgICAgICAgICAgICAgICAgICAgICAgICAgICAgICAgICAgICAgICAgICAgICAgICAgICAgICAgICAgICAgICAgICAgICAgICAgICAgICAgICAgICAgICAgICAgICAgICAgICAgICAgICAgICAgICAgICAgICAgICAgICAgICAgICAgICAgICAgICAgICAgICAgICAgICAgICAgICAgICAgICAgICAgICAgICAgICAgICAgICAgICAgICAgICAgICAgICAgICAgICAgICAgICAgICAgICAgICAgICAgICAgICAgICAgICAgICAgICAgICAgICAgICAgICAgICAgICAgICAgICAgICAgICAgICAgICAgICAgICAgICAgICAgICAgICAgICAgICAgICAgICAgICAgICAgICAgICAgICAgICAgICAgICAgICAgICAgICAgICAgICAgICAgICAgICAgICAgICAgICAgICAgICAgICAgICAgICAgICAgICAgICAgICAgICAgICAgICAgICAgICAgICAgICAgICAgICAgICAgICAgICAgICAgICAgICAgICAgICAgICAgICAgICAgICAgICAgICAgICAgICAgICAgICAgICAgICAgICAgICAgICAgICAgICAgICAgICAgICAgICAgICAgICAgICAgICAgICAgICAgICAgICAgICAgICAgICAgICAgICAgICAgICAgICAgICAgICAgICAgICAgICAgICAgICAgICAgICAgICAgICAgICAgICAgICAgICAgICAgICAgICAgICAgICAgICAgICAgICAgICAgICAgICAgICAgICAgICAgICAgICAgICAgICAgICAgICAgICAgICAgICAgICAgICAgICAgICAgICAgICAgICAgICAgICAgICAgICAgICAgICAgICAgICAgICAgICAgICAgICAgICAgICAgICAgICAgICAgICAgICAgICAgICAgICAgICAgICAgICAgICAgICAgICAgICAgICAgICAgICAgICAgICAgICAgICAgICAgICAgICAgICAgICAgICAgICAgICAgICAgICAgICAgICAgICAgICAgICAgICAgICAgICAgICAgICAgICAgICAgICAgICAgICAgICAgICAgICAgICAgICAgICAgICAgICAgICAgICAgICAgICAgICAgICAgICAgICAgICAgICAgICAgICAgICAgICAgICAgICAgICAgICAgICAgICAgICAgICAgICAgICAgICAgICAgICAgICAgICAgICAgICAgICAgICAgICAgICAgICAgICAgICAgICAgICAgICAgICAgICAgICAgICAgICAgICAgICAgICAgICAgICAgICAgICAgICAgICAgICAgICAgICAgICAgICAgICAgICAgICAgICAgICAgICAgICAgICAgICAgICAgICAgICAgICAgICAgICAgICAgICAgICAgICAgICAgICAgICAgICAgICAgICAgICAgICAgICAgICAgICAgICAgICAgICAgICAgICAgICAgICAgICAgICAgICAgICAgICAgICAgICAgICAgICAgICAgICAgICAgICAgICAgICAgICAgICAgICAgICAgICAgICAgICAgICAgICAgICAgICAgICAgICAgICAgICAgICAgICAgICAgICAgICAgICAgICAgICAgICAgICAgICAgICAgICAgICAgICAgICAgICAgICAgICAgICAgICAgICAgIDw/eHBhY2tldCBlbmQ9InciPz7/4gKwSUNDX1BST0ZJTEUAAQEAAAKgbGNtcwRAAABtbnRyUkdCIFhZWiAH6QAFABAAFAAXACthY3NwQVBQTAAAAAAAAAAAAAAAAAAAAAAAAAAAAAAAAAAA9tYAAQAAAADTLWxjbXMAAAAAAAAAAAAAAAAAAAAAAAAAAAAAAAAAAAAAAAAAAAAAAAAAAAAAAAAAAAAAAA1kZXNjAAABIAAAAEBjcHJ0AAABYAAAADZ3dHB0AAABmAAAABRjaGFkAAABrAAAACxyWFlaAAAB2AAAABRiWFlaAAAB7AAAABRnWFlaAAACAAAAABRyVFJDAAACFAAAACBnVFJDAAACFAAAACBiVFJDAAACFAAAACBjaHJtAAACNAAAACRkbW5kAAACWAAAACRkbWRkAAACfAAAACRtbHVjAAAAAAAAAAEAAAAMZW5VUwAAACQAAAAcAEcASQBNAFAAIABiAHUAaQBsAHQALQBpAG4AIABzAFIARwBCbWx1YwAAAAAAAAABAAAADGVuVVMAAAAaAAAAHABQAHUAYgBsAGkAYwAgAEQAbwBtAGEAaQBuAABYWVogAAAAAAAA9tYAAQAAAADTLXNmMzIAAAAAAAEMQgAABd7///MlAAAHkwAA/ZD///uh///9ogAAA9wAAMBuWFlaIAAAAAAAAG+gAAA49QAAA5BYWVogAAAAAAAAJJ8AAA+EAAC2xFhZWiAAAAAAAABilwAAt4cAABjZcGFyYQAAAAAAAwAAAAJmZgAA8qcAAA1ZAAAT0AAACltjaHJtAAAAAAADAAAAAKPXAABUfAAATM0AAJmaAAAmZwAAD1xtbHVjAAAAAAAAAAEAAAAMZW5VUwAAAAgAAAAcAEcASQBNAFBtbHVjAAAAAAAAAAEAAAAMZW5VUwAAAAgAAAAcAHMAUgBHAEL/2wBDAAkGBwgHBgkIBwgKCgkLDRYPDQwMDRsUFRAWIB0iIiAdHx8kKDQsJCYxJx8fLT0tMTU3Ojo6Iys/RD84QzQ5Ojf/2wBDAQoKCg0MDRoPDxo3JR8lNzc3Nzc3Nzc3Nzc3Nzc3Nzc3Nzc3Nzc3Nzc3Nzc3Nzc3Nzc3Nzc3Nzc3Nzc3Nzc3Nzf/wgARCACxAGUDAREAAhEBAxEB/8QAGgAAAgMBAQAAAAAAAAAAAAAAAgQBAwUGAP/EABkBAAMBAQEAAAAAAAAAAAAAAAABAgMEBf/aAAwDAQACEAMQAAAB5S5uMzCSZCo18Pw20Ph4PBlMqMjFoJeBJ6XldJL46jXRsoEDDlmVPmIQlVG0FaAtGbxamQuRUKVEO6XjWawUSRp7rDTzGk0TRISEgmG0kI0VNd42rbQRj1FiRTtqzvmXjLSYaaIkT15DJNzICAKrZ308+xa8lGqA0kQCVc1jxkmUQ2CoF1az6ElnSCbGEEIHzMGBJeDwwdKnVrTqiysKAZly8JfNaSSnwQ2BVRevPWrVZASG3npn3xS8bVBJeF4YOqXpvLqXL55mshtURmprytYZ1E6U9WLfGFVJtoLrArEpC11EPGof6Off4p54wNibiuqUfTvrpEObo8jYjT00/r52kRkNV7Ozm1HPpCufyMq9l6og6rDrjPrtvxZjmX9G6O62/K6y5fQ9fkXRzc3t052t2I1ub0uvvDlJ87qrrkPRx6A2weDv6+Dk54Oqs4lvN1thFhHiCeFqiLXm/Z3C0rqICZ6U6t2Sm+eXnKTqdDy8EDAoG4bsz6VXbUg1mF85INV1UdIdcY/Tnm+flDYjZx6kbbSIkXBjXmEXT4dk3pR3cfPc2Ijuz3FaK0Oo1ct2o6+d14g25Oj5ejYx05z0+bIzzvjWFadoQcQUWE701jZebTHUY7V0sAXoEPA0klLJVUDWkmDaM5ki8BCMyMi2enORQqIrQuAZAQEB4TJzeEI//8QAKRAAAgIBAwIHAAIDAAAAAAAAAQIDBAAQERITFAUVICEiMTIjMzBBQv/aAAgBAQABBQIaBGK7aHWKvJJnllvPLLWHw20Bi/Ek8mistHW7qXjNM0polVnlmgePILSKPNIN/Mq+3mkQx2LttoWAwnfSvLIBJZc5I5dkcpgmbCxJ5HTnm5OvHK9yaXI0sxGxZew3qqcQloI2fnDucrtGhWxUDf8AW5GiGJYta0nASvyPqhZkk68ixzO7Lkb8GaSSQdV4k5cj6DnUK4IrAWZ5Ym0DR8JDFxT69Bw/syUt7LQMQw2xI2xvsYPQcOVKgnjvUzW1QjoN+x6TpW4jLfAjKqQBZZIeTtXfIoTJnauI0T+V1g6eHIkV3kStGEgqvFIvB0bg7xyjL2/Pw8OxWuWXk0cvczaHJcjEhq3InSDStR7gGlsaULcpZJAyQmWR4ijQ1zMzVyDHSacyeHGPJo+m2D78N5FpCxeiXLzFmeqT3ErFpKJbnOWMtIv153dss/rE/UR45LejNWM40tXtSfk9iqaCnbO+j7VD7iWr2s3vpGPcseXI4GOcjrvnI5yOcmxfcYMP60cRCP1R433/ALkGx0Q7NN2vTrdE13/GhwfFdHfgOs2520rRJcSOBlXxCt2+qLkra+HV1mD00JKcT75QjkgPW5ZdEu/Fjix7Y7+itZeHBYkDROWlm+6wifFqrxmMe8bbRs/ob6b4sW+KnbD8sjZ4nW5ZUba7E5w0P9bf14Po/wCH/8QAKhEAAgIBAgUEAQUBAAAAAAAAAAECEQMQEgQTICExFDAyQSIFM0JRUnH/2gAIAQMBAT8Bb1b0S9hss39qNzEvtjG+3Tem7RRbFFLRj6GrOXESoWMUUvflKjf3N0TdElJV2I5DybY0PVeSTG9L0vTGxQuNj6cip9KMfxI5HFV1ZX36UY2q6aMox9CEQ7roXgyv8h9KEQr6PvXdRKKkbGxwaVkVcu5txbH276IhHcyEVHqi6s/F/Y24y7HNnojB0rHcbPSTf8jJiak4/wBGSTf4sjjczkmPhd8XKxfpz87h45Y5uKHklHyRe5XrCuVbI0lRmvnySJW3ZiGcMly23/ZjSUTiL9RKidsx/DXhVeMjw8uZRxP70i4baIFqj9P+Ev8Ap6eXM2nF/vyPw20Y/jrLNOHaLPU5v9Em27ZbLZuZDNkh8Weqzf6HJt29MfjXJ51lGNdtaK1x+Nci+9YfI7HYeqQlS6KJxpkPkRg5eCXByS7E47dKIQroxxVdyEI/ZxWKpUhQaZCVeTdAnFybYsbFFLpjJoXENeCcnJ2/cXsOSQ8jL91H/8QAKREAAgIABQMEAQUAAAAAAAAAAAECEQMQEiExBCAwEzNBUSIFMkBhgf/aAAgBAgEBPwHwWWWX21mk7yooory13WUbHBfcz4ErKGU8nE4N77Hx4JFOyqzorwKVfwWxeB7CzfIvB8HxkzTeUYalZOWlidod32bm/YjDaULZKEpOxcdiyWerc9Uhj6eRdRhwfBCGuOoXS2rsmtEtJ6hrHi0Rleb/AHDyZgV6O5FJKkdR7rHyfQzD4yZPkc1Q/g2o6P2xYeJ6tnV+6a1R8I2ohxkxRT5NEfo0o0oUnHg9Sf2Nat2aI/RpRpQ1WTI8eKWTIvN5flt/hiL8X2PfssTsZPEjBXIh+pYG2/BHF9TDecpCzkNkJF2Y0JOnAcOo/ohi6cPRRqHKyuxmnKIy8nyV2PsXhfYvD//EADQQAAEDAgMGBAQFBQAAAAAAAAEAAhESIQMQMRMgIkFRYQQwMnEjM0KRUmKBkqFygqKx8P/aAAgBAQAGPwLIuDTA1O8KYvpLgJXyx+4L5Y/cF8v/ACGQI1RPVPwABDuaAnRS5AviO6oeZB7aZNGIHWjSLwp2L0RssSD3UtwXzykouOpM71LRLRc2UMBqUu1Vly+ynyDhMZ4drY0LSpA8O6nSeSjEZh1A+po35jinWFI9XPN22wy8QjPhiRNrdlYQMrK7KjF9y4sqotvy0SvS37KHNbHYZTSHe6aQxluiM4TI591IEdt6AiAxrp7o4boB7ZxSaoXAxwO/fRN+DiRN/t7puwY5trzmCB5NTnEDoAg4GWHNuo/VHyKcLGdTP4UWPxz1inKrGcJ6FCC2D/Cu5s9U6COFNfIhyAcCRzhPDMF9XK2mcPxBhjqU3Z47XD6lx+Ja13JFocHAcwmu6GUHOwfDy5wF0A5jWnqDMotZzb1hUOdFOhq16J0GDojx67gds8IsDefZOc/CwektzNJiOqipPIcAG2MotfEoioT3RadQqWlEF2icARwoS8foozIbT/cU4n3T2sDXSbhyL3NIkqGtBJ6mE5zhEnknNw6anc3JxIv2TtnFR6q7KQCZ90chlUPU61KPutntOFFBoZf8PQ9cq/q0pRWy2nD/ACnbmq1Wu7qtSr5nNpY4l/Mb5RynMTdOp2Xp5G9VkKtnoap17QjvgalcV1LdDkHYgbhsZw8P1FHDhpn6jyXC6WuFuuclQM3vcAbxdECLdgnMGVZEtcLCV6P9IvxIuY1ykqBuOa0pzp11Rc5BBmzc5/8A3dfJxTrdq+CHAfm8qVWwgOHZQ3Et/SPIHmf/xAAmEAEAAgICAgIBBQEBAAAAAAABABEhMUFREGFxgSCRobHB8NHh/9oACAEBAAE/IRbERpKSIAagwQp4VspAUc68YH637gn+A/uf5L+4katdf9IiNJmX1A2RmTKuPpratkqo6px1CaWhWIFaA/aX5YZe3vwgAZg+hvU7w+Tu5ivME8dKvYZsPSr3DyBfDIoGq1f6pTOMsaGz1iJ6uGCpfY53ZB6Ja0v14lXcRxmPM8AupovUJKHCE+oQWCqF+krMUMJZSflnQ+QSUeMNYVcUGreoxy/UflFArmJby44lD+bZVtSzA8Q2MkwlxRGoKuquOGvLZ1S1LMqncM5dsCVKiRIbEqSkuZJe3RvB4lrGvwV3Gway5qyLZgY7RCGCb0gfiz6/c9OCV/n4hkEOVwbBjDZtosv6jqXLbeoeXLD8WFgts4lqK/bkt/KpWWnLy/qwQPXhdinc0nRNpp+LSZzRWUstL112PT59eqxGXz8+B+J1MqgKqVx2L3ne6ffgLcdNqIN2Jpg76g5j5xS5d1FA4KFVC6+JShtkrhHwxTW5XbBq7n5lqY5px6SGs5jWypQUqPNRCt4vm35iIyHKcMvOmXrcjiPb38TDADgp8XEXnMuYAUWVuDLVRmk2IVXFq9oPiHs5Myz9vFRKChn9EBlemoXJoFRxAEqcwpj2VRDaWmVcD7lLRVOJ/Y7cTPIKnLWyHQdeBYPc2DNuQ66gp5WyGIQUu0MQdhRrB6mTXUaH3CyJb4XL5DAQN12dX3KkNDoY3Ba0uXVtzNfZ4NyUWdxLUl8T/wAlG0PpVDHd7lCe5sCaLZ9iZidw15U+/wD5KF9zNFhn23M3g11OIRAoT3oTlDsS5cscx7JkaUf/AGo17W3Gbz914GIZG7iXLlxfDNflP3UGi/U+RQ8AoUHJ3MzzV0KUD1uDeGFvxCunjyoc7xnwlkxgRCwAlleogwPq579jKTJhVkdkLV5h4LHX9AlnV45iQpeG6qOn6NH7TYhGyVyKlUd2H+dwqKdWjnDfv1MvhU3orH7Q0D7gcj3CCDnysJSqYgk+RzFEyx6upb2XWvr04uKutVWYq/fUScFzbNwAtPuX6jnztgQRw8zQa+pmPcOAYS0wUNfrAZQXR7L6l/UCjwSA5zKrXmDqf0zh8fibPLP/2gAMAwEAAgADAAAAENuACObZz3ZhbQiKAZK/0cn7DwAEwXu1Bgn7oL08EShXEwgN7f0IkFxw3JiMg5tUo9qOBW52lXAhFPaEG2INZUJILaz1tpYi8Y8T4Lv6yu1kSlSJxVjxZWtMaXz+coFPN+lsOEI+xkQSEl6rFXDIJIT/AP/EACcRAQACAwAABQQCAwAAAAAAAAEAERAhMSBBUWGRcaGx4YHB0fDx/9oACAEDAQE/EKDHlcshKi3wVKlYtbj5mWtSHKKvmRVUDYxcuXKYfRFXGcnCQ1BQV4AFM1VUHiI9nOMVKly2XcrxCXTPOoMrRcPWJ7xO4iHYILIAfWCmst08pRbGW2LhcIGPdTeZo1m4sDTFly5cUqCIQRfAodgusZcvClKXNRyKrj2E4i3Lly4otxUx01k3aXLBcXhSt7gvTiebBUOE60GoPIQXGGBxNEL+Dd/WGGuuoiVGlvwMBWa3NaJ17/GoutuBXvv0hOp5sOejrdcgCz7P3EK6W75LISKrcWNXLwqDXL/uOAfZ+42d1/2InZBEHc0bHfLf5gCIEINvnChkuWESts3Vo8n0IEB+fxKA6/RFoqg/MOmCWh7v9Q9vDdwfPFNmppcdeG/9HCPtnb9v8w/Ifgg9OoNcESshPefMWJax9SAcZ7sBRS/Rh6v5iZ7WDFeJBvhIAq3KlQgwMhL4TA0lRW38zhlYsZqM9lUqc7k4RuhGihv5nBgtOhjl14EXxCeV0lRD30gHL+09SkteHXk5rDwi3G4wlYOS83GDKVeExcrPcjORTtj2EOQ5HvheRy//xAAlEQEAAgMAAQQBBQEAAAAAAAABABEQITFBIFFhcTCBkaGx8NH/2gAIAQIBAT8QxfqQSkpKehLblIFSrGaBwxeX/AAXcAtGBUS5UqVgV6FCb8iCVCUsh7/UHxLS0SAkD4wB7wHkFVMtaQbMkYq6IFHqGo0AOzZWEuU94D3holy5cvCWwoN7wYHFy5cvO/eF+c2anObly87LiszpHOGXLg5V2TUF4MJ8TosBIux5qWgnFP2mwICadQhLi0SoI8Q3OkPvFp4H2vx/txyhLVhoGCGDVxbjhZSPwhaixJ0Gz5P+QV5L5VxiGr8Rl7qaaqXqwjeH8xjeHktoRKrNtB7S62kNqqB+/wCIRTxL1EaqF8e0a+JyxxHU7Gc/SLquDb7hUnXv8e07Tpj/AK+5eq5oMcwaxGT4J8cKp0T5n7wl1cTw1PjhLXqhd4rIY7hzHxYqcQuARA8pXPm4HLxKxyK1wiXOQpKk4liKI6iin6PiXyt1+mbNEO8puJKi2UETQWPm65XiK61+mGJ4Kv8AtiCJBaBWHkAxD2ABRBLGAPmCD3w1njDhajuUS/V1hnmc/h//xAAmEAEAAgICAgICAgMBAAAAAAABABEhMUFRYXGBkaGxEMHR4fDx/9oACAEBAAE/EKo45ipyKRKRibvBVV1bouMNNsSt4mMNETAAtJh9Qi4GumjJChC5EO6eoXVCGXg3BREcGL6NoiUBpEpGNjASVdJk3CsCWF0K3zEZ2CcgDXDgN6zDCDAUrSstgVMjFWWv9sU6YAKaY3FpmUAA0M4zyfMPEZnFyUS5C9gavWKbW95L7tu+8wIIKgGc3u7/ADKFlWSFFZ3ig44gGBSCi1bX3OxgAYJgLt6JsMHRCXN0kFYMq4DCC14gYC8MoB4YIoYK18ThZWlmtQGgG9N9ywqeDwH9Qvuy/UregBCYKu+JjGh0QjtC5YbbRUIvALWWarKnZd1uEsGrQMjojmr8fdhrrGhYiq2cx2C/UIQhCM+XE6xXqVlev7W/xChklnXyxKM4wMH1HDzO8e1ley5iHXg0yr60efERffIGxwTCfK2fM2LDC6KQ+IT+yAW10/wQpZBgA6ur27hEnF5Jw1Cpe0tZrxmHfLKdSk1jqVRkxuAUiOD3DYQ0La8XnuUSaCUq8XwZf44+kKw2ZqOdIWFBHCOIpQ2lyLOUvz1E2DwTHEzP1KlRIMfMxIB5G4GcQrsXkBH9G8XK1dkpU/P4Z5kLiqnP1LpSCoX8s16iJNKDTDW3mPoTRZDYvcqVEhw/EIVMmibMXqv2RVLFFnHUZ99dDniO4ZC095f9ETS2C6ISwfcKrUDc8n3Bh4zBhKlRId+oMoLOW66Onj6YystBre8ns6dRhL+tVlgYcp7pjsUlUrYqHPww4IEqJB+n9Q5VE/Ioo2NXjx11KAPWh1LcLsz8xinKriQNWnOR3GS9oChuq/6oHMJRQHzz8w6ZUxUya+oe7Ze28d49/UqmWhF7OMxm1QVVGn7YIMnuV5hIb6wFlufxDFhtYhMAMAIRa2b1aW8r41TKuwFWNWJHNVmiwafqWQmYgK80LrVFtmBiHzrtG+O0JZ8xly1HW4PAF9o9XeFIYGfC/uU9pUo9jN9Q15Xs0LZOgPj+G6fmMW7VBgLUaW1d3Xkhx1ZefCJY4xv/AGc+5RbtPTMnbEmtjj3BNpkg018yxFabK0v/ABCa6FCwwVT1X7gVEq1zr7c6gRlTM0mI8v1yMAFqvEIMoXFGnmWjgttp2YLzFVdYVLVJnCRY5tS3vAwK1PNQJmNNAFC2HK+fQyz69Vs7PHUZ6IFa0Ra8/uKJQm1hijXFR7YsXsobAiOOPMpk0BjyCsMaY9zAFCgIitVkmTLKRasIelLvzLTgpU0O6uqjDIIKtbL5NQ+IT8H8eoNwRVZenT4ZbTMPLRm/C783LzsW7TeiMncGDiwxXb687iCKOYjKp9wdZlcjO+dV04QjmJ6Iez2yx/8AV/G44ijRE9QeQ8VPwK7+OLh+Ff0EYdEByIHcBgfEIFlQZtp3E/5JdbVVloakEwZeomg76dyn/clolgVbuClHiPM8XHt3AxBsgVpK2Mc1jhxtvxAP8HjzPPnmLFAqcNJwtW/csrTl8xAJjB9xXBgDRVVAdYgZZGgNAt32VZu5eYFsRuQ/15iwBvxFizBRuWewW9xy3LgeYqjJp0eWXDmoRGh4js8fmUI9Ss0+NNLyXgsebVzEfa1gT+TqUGSthTGbOnhiwyGSz/ww6JYypyxhp7hcPDjOl4PqBNAbpHtVorkKAxQ3/ibx15laCiXQ2jXFIhEA7iIV25/cFoSNmYMFY/SM1j7ambRHLRFfLt5f9RqVjFrPUNSK0JccEt7ZHt+ZYwAzVY1/ctsY6vmEN5u8JaKaABty7gYFMIASkY3pVZby8U/rQqt4xVVG0jbleYrq75Y1WtsZS6Jgt1jdamkIoO4LWDatKX/W5nvp6mEQJzL7AbxFaCQKjAKAbPtnxxPJDULcZrCjthctX4gBQA8T++fnTZ6n7v2/iOoxjPyv4Zxn/9k=;imageBorder=light-dark(#FF0000,#FF0000);strokeWidth=3;" vertex="1" parent="vlCZbG9oBxgesIhF5QOp-7">
          <mxGeometry x="62.25" y="88.34" width="51" height="89.38" as="geometry" />
        </mxCell>
        <mxCell id="vlCZbG9oBxgesIhF5QOp-12" value="" style="shape=image;verticalLabelPosition=bottom;labelBackgroundColor=default;verticalAlign=top;aspect=fixed;imageAspect=0;image=data:image/jpeg,/9j/4AAQSkZJRgABAQEBLAEsAAD/4QDGRXhpZgAASUkqAAgAAAAHABIBAwABAAAAAQAAABoBBQABAAAAYgAAABsBBQABAAAAagAAACgBAwABAAAAAgAAADEBAgANAAAAcgAAADIBAgAUAAAAgAAAAGmHBAABAAAAlAAAAAAAAAAsAQAAAQAAACwBAAABAAAAR0lNUCAyLjEwLjM4AAAyMDI1OjA1OjE2IDIyOjI1OjM5AAMAAaADAAEAAAABAAAAAqAEAAEAAABlAAAAA6AEAAEAAACxAAAAAAAAAP/hDNFodHRwOi8vbnMuYWRvYmUuY29tL3hhcC8xLjAvADw/eHBhY2tldCBiZWdpbj0i77u/IiBpZD0iVzVNME1wQ2VoaUh6cmVTek5UY3prYzlkIj8+IDx4OnhtcG1ldGEgeG1sbnM6eD0iYWRvYmU6bnM6bWV0YS8iIHg6eG1wdGs9IlhNUCBDb3JlIDQuNC4wLUV4aXYyIj4gPHJkZjpSREYgeG1sbnM6cmRmPSJodHRwOi8vd3d3LnczLm9yZy8xOTk5LzAyLzIyLXJkZi1zeW50YXgtbnMjIj4gPHJkZjpEZXNjcmlwdGlvbiByZGY6YWJvdXQ9IiIgeG1sbnM6eG1wTU09Imh0dHA6Ly9ucy5hZG9iZS5jb20veGFwLzEuMC9tbS8iIHhtbG5zOnN0RXZ0PSJodHRwOi8vbnMuYWRvYmUuY29tL3hhcC8xLjAvc1R5cGUvUmVzb3VyY2VFdmVudCMiIHhtbG5zOmRjPSJodHRwOi8vcHVybC5vcmcvZGMvZWxlbWVudHMvMS4xLyIgeG1sbnM6R0lNUD0iaHR0cDovL3d3dy5naW1wLm9yZy94bXAvIiB4bWxuczp4bXA9Imh0dHA6Ly9ucy5hZG9iZS5jb20veGFwLzEuMC8iIHhtcE1NOkRvY3VtZW50SUQ9ImdpbXA6ZG9jaWQ6Z2ltcDo5YmY3ZTUyZC1lNDliLTQ1Y2EtYmY4Yi0xNjM4NjQyOGM2ZDIiIHhtcE1NOkluc3RhbmNlSUQ9InhtcC5paWQ6NWIwZTdhZjMtNzE2My00ZmYyLTlkMDYtODg5YjA3ZDYwNWRmIiB4bXBNTTpPcmlnaW5hbERvY3VtZW50SUQ9InhtcC5kaWQ6NDhkNzE1NGYtZDZlMS00NzVhLThmOGQtMzNmNWMxZGM3MWU3IiBkYzpGb3JtYXQ9ImltYWdlL2pwZWciIEdJTVA6QVBJPSIyLjAiIEdJTVA6UGxhdGZvcm09Ik1hYyBPUyIgR0lNUDpUaW1lU3RhbXA9IjE3NDc0MjcxNDM4OTk2ODQiIEdJTVA6VmVyc2lvbj0iMi4xMC4zOCIgeG1wOkNyZWF0b3JUb29sPSJHSU1QIDIuMTAiIHhtcDpNZXRhZGF0YURhdGU9IjIwMjU6MDU6MTZUMjI6MjU6MzkrMDI6MDAiIHhtcDpNb2RpZnlEYXRlPSIyMDI1OjA1OjE2VDIyOjI1OjM5KzAyOjAwIj4gPHhtcE1NOkhpc3Rvcnk+IDxyZGY6U2VxPiA8cmRmOmxpIHN0RXZ0OmFjdGlvbj0ic2F2ZWQiIHN0RXZ0OmNoYW5nZWQ9Ii8iIHN0RXZ0Omluc3RhbmNlSUQ9InhtcC5paWQ6YjVlNWE5NTctNWUzOC00MjVmLTg5NzItNTEyOTU2MjZkMjg1IiBzdEV2dDpzb2Z0d2FyZUFnZW50PSJHaW1wIDIuMTAgKE1hYyBPUykiIHN0RXZ0OndoZW49IjIwMjUtMDUtMTZUMjI6MjU6NDMrMDI6MDAiLz4gPC9yZGY6U2VxPiA8L3htcE1NOkhpc3Rvcnk+IDwvcmRmOkRlc2NyaXB0aW9uPiA8L3JkZjpSREY+IDwveDp4bXBtZXRhPiAgICAgICAgICAgICAgICAgICAgICAgICAgICAgICAgICAgICAgICAgICAgICAgICAgICAgICAgICAgICAgICAgICAgICAgICAgICAgICAgICAgICAgICAgICAgICAgICAgICAgICAgICAgICAgICAgICAgICAgICAgICAgICAgICAgICAgICAgICAgICAgICAgICAgICAgICAgICAgICAgICAgICAgICAgICAgICAgICAgICAgICAgICAgICAgICAgICAgICAgICAgICAgICAgICAgICAgICAgICAgICAgICAgICAgICAgICAgICAgICAgICAgICAgICAgICAgICAgICAgICAgICAgICAgICAgICAgICAgICAgICAgICAgICAgICAgICAgICAgICAgICAgICAgICAgICAgICAgICAgICAgICAgICAgICAgICAgICAgICAgICAgICAgICAgICAgICAgICAgICAgICAgICAgICAgICAgICAgICAgICAgICAgICAgICAgICAgICAgICAgICAgICAgICAgICAgICAgICAgICAgICAgICAgICAgICAgICAgICAgICAgICAgICAgICAgICAgICAgICAgICAgICAgICAgICAgICAgICAgICAgICAgICAgICAgICAgICAgICAgICAgICAgICAgICAgICAgICAgICAgICAgICAgICAgICAgICAgICAgICAgICAgICAgICAgICAgICAgICAgICAgICAgICAgICAgICAgICAgICAgICAgICAgICAgICAgICAgICAgICAgICAgICAgICAgICAgICAgICAgICAgICAgICAgICAgICAgICAgICAgICAgICAgICAgICAgICAgICAgICAgICAgICAgICAgICAgICAgICAgICAgICAgICAgICAgICAgICAgICAgICAgICAgICAgICAgICAgICAgICAgICAgICAgICAgICAgICAgICAgICAgICAgICAgICAgICAgICAgICAgICAgICAgICAgICAgICAgICAgICAgICAgICAgICAgICAgICAgICAgICAgICAgICAgICAgICAgICAgICAgICAgICAgICAgICAgICAgICAgICAgICAgICAgICAgICAgICAgICAgICAgICAgICAgICAgICAgICAgICAgICAgICAgICAgICAgICAgICAgICAgICAgICAgICAgICAgICAgICAgICAgICAgICAgICAgICAgICAgICAgICAgICAgICAgICAgICAgICAgICAgICAgICAgICAgICAgICAgICAgICAgICAgICAgICAgICAgICAgICAgICAgICAgICAgICAgICAgICAgICAgICAgICAgICAgICAgICAgICAgICAgICAgICAgICAgICAgICAgICAgICAgICAgICAgICAgICAgICAgICAgICAgICAgICAgICAgICAgICAgICAgICAgICAgICAgICAgICAgICAgICAgICAgICAgICAgICAgICAgICAgICAgICAgICAgICAgICAgICAgICAgICAgICAgICAgICAgICAgICAgICAgICAgICAgICAgICAgICAgICAgICAgICAgICAgICAgICAgICAgICAgICAgICAgICAgICAgICAgICAgICAgICAgICAgICAgICAgICAgICAgICAgICAgICAgICAgICAgICAgICAgICAgICAgICAgICAgICAgICAgICAgICAgICAgICAgICAgICAgICAgICAgICAgICAgICAgICAgICAgICAgICAgICAgICAgICAgICAgICAgICAgICAgICAgICAgICAgICAgICAgICAgICAgICAgICAgICAgICAgICAgICAgICAgICAgICAgICAgICAgICAgICAgICAgICAgICAgICAgICAgICAgICAgICAgICAgICAgICAgICAgICAgICAgICAgICAgICAgICAgICAgICAgICAgICAgICAgICAgICAgICAgICAgICAgICAgICAgICAgICAgICAgICAgICAgICAgICAgICAgICAgICAgICAgICAgICAgICAgICAgICAgICAgICAgICAgICAgICAgICAgICAgICAgICAgICAgICAgICAgICAgICAgICAgICAgICAgICAgICAgICAgICAgICAgICAgICAgICAgICAgICAgICAgICAgICAgICAgICAgICAgICAgICAgICAgICAgICAgICAgICAgICAgICAgICAgICAgICAgICAgICAgICAgICAgICAgICAgICAgICAgICAgICAgICAgICAgICAgICAgICAgICAgICAgICAgICAgICAgICAgICAgICAgICAgICAgICAgICAgICAgICAgICAgICAgICAgICAgICAgICAgICAgICAgICAgICAgICAgICAgICAgICAgICAgICAgICAgICAgICAgICAgICAgICAgICAgICAgICAgICAgICAgICAgICAgICAgICAgICAgICAgICAgICAgICAgICAgICAgICAgICAgICAgICAgICAgICAgICAgICAgICAgICAgICAgICAgICAgICAgICAgICAgICAgICAgICAgICAgICAgICAgICAgICAgICAgICAgICAgICAgICAgICAgICAgICAgICAgICAgICAgICAgICAgICAgICAgICAgICAgICAgICAgICAgICAgICAgICAgICAgICAgIDw/eHBhY2tldCBlbmQ9InciPz7/4gKwSUNDX1BST0ZJTEUAAQEAAAKgbGNtcwRAAABtbnRyUkdCIFhZWiAH6QAFABAAFAAXACthY3NwQVBQTAAAAAAAAAAAAAAAAAAAAAAAAAAAAAAAAAAA9tYAAQAAAADTLWxjbXMAAAAAAAAAAAAAAAAAAAAAAAAAAAAAAAAAAAAAAAAAAAAAAAAAAAAAAAAAAAAAAA1kZXNjAAABIAAAAEBjcHJ0AAABYAAAADZ3dHB0AAABmAAAABRjaGFkAAABrAAAACxyWFlaAAAB2AAAABRiWFlaAAAB7AAAABRnWFlaAAACAAAAABRyVFJDAAACFAAAACBnVFJDAAACFAAAACBiVFJDAAACFAAAACBjaHJtAAACNAAAACRkbW5kAAACWAAAACRkbWRkAAACfAAAACRtbHVjAAAAAAAAAAEAAAAMZW5VUwAAACQAAAAcAEcASQBNAFAAIABiAHUAaQBsAHQALQBpAG4AIABzAFIARwBCbWx1YwAAAAAAAAABAAAADGVuVVMAAAAaAAAAHABQAHUAYgBsAGkAYwAgAEQAbwBtAGEAaQBuAABYWVogAAAAAAAA9tYAAQAAAADTLXNmMzIAAAAAAAEMQgAABd7///MlAAAHkwAA/ZD///uh///9ogAAA9wAAMBuWFlaIAAAAAAAAG+gAAA49QAAA5BYWVogAAAAAAAAJJ8AAA+EAAC2xFhZWiAAAAAAAABilwAAt4cAABjZcGFyYQAAAAAAAwAAAAJmZgAA8qcAAA1ZAAAT0AAACltjaHJtAAAAAAADAAAAAKPXAABUfAAATM0AAJmaAAAmZwAAD1xtbHVjAAAAAAAAAAEAAAAMZW5VUwAAAAgAAAAcAEcASQBNAFBtbHVjAAAAAAAAAAEAAAAMZW5VUwAAAAgAAAAcAHMAUgBHAEL/2wBDAAkGBwgHBgkIBwgKCgkLDRYPDQwMDRsUFRAWIB0iIiAdHx8kKDQsJCYxJx8fLT0tMTU3Ojo6Iys/RD84QzQ5Ojf/2wBDAQoKCg0MDRoPDxo3JR8lNzc3Nzc3Nzc3Nzc3Nzc3Nzc3Nzc3Nzc3Nzc3Nzc3Nzc3Nzc3Nzc3Nzc3Nzc3Nzc3Nzf/wgARCACxAGUDAREAAhEBAxEB/8QAGgAAAgMBAQAAAAAAAAAAAAAAAgQBAwUGAP/EABkBAAMBAQEAAAAAAAAAAAAAAAABAgMEBf/aAAwDAQACEAMQAAAB5S5uMzCSZCo18Pw20Ph4PBlMqMjFoJeBJ6XldJL46jXRsoEDDlmVPmIQlVG0FaAtGbxamQuRUKVEO6XjWawUSRp7rDTzGk0TRISEgmG0kI0VNd42rbQRj1FiRTtqzvmXjLSYaaIkT15DJNzICAKrZ308+xa8lGqA0kQCVc1jxkmUQ2CoF1az6ElnSCbGEEIHzMGBJeDwwdKnVrTqiysKAZly8JfNaSSnwQ2BVRevPWrVZASG3npn3xS8bVBJeF4YOqXpvLqXL55mshtURmprytYZ1E6U9WLfGFVJtoLrArEpC11EPGof6Off4p54wNibiuqUfTvrpEObo8jYjT00/r52kRkNV7Ozm1HPpCufyMq9l6og6rDrjPrtvxZjmX9G6O62/K6y5fQ9fkXRzc3t052t2I1ub0uvvDlJ87qrrkPRx6A2weDv6+Dk54Oqs4lvN1thFhHiCeFqiLXm/Z3C0rqICZ6U6t2Sm+eXnKTqdDy8EDAoG4bsz6VXbUg1mF85INV1UdIdcY/Tnm+flDYjZx6kbbSIkXBjXmEXT4dk3pR3cfPc2Ijuz3FaK0Oo1ct2o6+d14g25Oj5ejYx05z0+bIzzvjWFadoQcQUWE701jZebTHUY7V0sAXoEPA0klLJVUDWkmDaM5ki8BCMyMi2enORQqIrQuAZAQEB4TJzeEI//8QAKRAAAgIBAwIHAAIDAAAAAAAAAQIDBAAQERITFAUVICEiMTIjMzBBQv/aAAgBAQABBQIaBGK7aHWKvJJnllvPLLWHw20Bi/Ek8mistHW7qXjNM0polVnlmgePILSKPNIN/Mq+3mkQx2LttoWAwnfSvLIBJZc5I5dkcpgmbCxJ5HTnm5OvHK9yaXI0sxGxZew3qqcQloI2fnDucrtGhWxUDf8AW5GiGJYta0nASvyPqhZkk68ixzO7Lkb8GaSSQdV4k5cj6DnUK4IrAWZ5Ym0DR8JDFxT69Bw/syUt7LQMQw2xI2xvsYPQcOVKgnjvUzW1QjoN+x6TpW4jLfAjKqQBZZIeTtXfIoTJnauI0T+V1g6eHIkV3kStGEgqvFIvB0bg7xyjL2/Pw8OxWuWXk0cvczaHJcjEhq3InSDStR7gGlsaULcpZJAyQmWR4ijQ1zMzVyDHSacyeHGPJo+m2D78N5FpCxeiXLzFmeqT3ErFpKJbnOWMtIv153dss/rE/UR45LejNWM40tXtSfk9iqaCnbO+j7VD7iWr2s3vpGPcseXI4GOcjrvnI5yOcmxfcYMP60cRCP1R433/ALkGx0Q7NN2vTrdE13/GhwfFdHfgOs2520rRJcSOBlXxCt2+qLkra+HV1mD00JKcT75QjkgPW5ZdEu/Fjix7Y7+itZeHBYkDROWlm+6wifFqrxmMe8bbRs/ob6b4sW+KnbD8sjZ4nW5ZUba7E5w0P9bf14Po/wCH/8QAKhEAAgIBAgUEAQUBAAAAAAAAAAECEQMQEgQTICExFDAyQSIFM0JRUnH/2gAIAQMBAT8Bb1b0S9hss39qNzEvtjG+3Tem7RRbFFLRj6GrOXESoWMUUvflKjf3N0TdElJV2I5DybY0PVeSTG9L0vTGxQuNj6cip9KMfxI5HFV1ZX36UY2q6aMox9CEQ7roXgyv8h9KEQr6PvXdRKKkbGxwaVkVcu5txbH276IhHcyEVHqi6s/F/Y24y7HNnojB0rHcbPSTf8jJiak4/wBGSTf4sjjczkmPhd8XKxfpz87h45Y5uKHklHyRe5XrCuVbI0lRmvnySJW3ZiGcMly23/ZjSUTiL9RKidsx/DXhVeMjw8uZRxP70i4baIFqj9P+Ev8Ap6eXM2nF/vyPw20Y/jrLNOHaLPU5v9Em27ZbLZuZDNkh8Weqzf6HJt29MfjXJ51lGNdtaK1x+Nci+9YfI7HYeqQlS6KJxpkPkRg5eCXByS7E47dKIQroxxVdyEI/ZxWKpUhQaZCVeTdAnFybYsbFFLpjJoXENeCcnJ2/cXsOSQ8jL91H/8QAKREAAgIABQMEAQUAAAAAAAAAAAECEQMQEiExBCAwEzNBUSIFMkBhgf/aAAgBAgEBPwHwWWWX21mk7yooory13WUbHBfcz4ErKGU8nE4N77Hx4JFOyqzorwKVfwWxeB7CzfIvB8HxkzTeUYalZOWlidod32bm/YjDaULZKEpOxcdiyWerc9Uhj6eRdRhwfBCGuOoXS2rsmtEtJ6hrHi0Rleb/AHDyZgV6O5FJKkdR7rHyfQzD4yZPkc1Q/g2o6P2xYeJ6tnV+6a1R8I2ohxkxRT5NEfo0o0oUnHg9Sf2Nat2aI/RpRpQ1WTI8eKWTIvN5flt/hiL8X2PfssTsZPEjBXIh+pYG2/BHF9TDecpCzkNkJF2Y0JOnAcOo/ohi6cPRRqHKyuxmnKIy8nyV2PsXhfYvD//EADQQAAEDAgMGBAQFBQAAAAAAAAEAAhESIQMQMRMgIkFRYQQwMnEjM0KRUmKBkqFygqKx8P/aAAgBAQAGPwLIuDTA1O8KYvpLgJXyx+4L5Y/cF8v/ACGQI1RPVPwABDuaAnRS5AviO6oeZB7aZNGIHWjSLwp2L0RssSD3UtwXzykouOpM71LRLRc2UMBqUu1Vly+ynyDhMZ4drY0LSpA8O6nSeSjEZh1A+po35jinWFI9XPN22wy8QjPhiRNrdlYQMrK7KjF9y4sqotvy0SvS37KHNbHYZTSHe6aQxluiM4TI591IEdt6AiAxrp7o4boB7ZxSaoXAxwO/fRN+DiRN/t7puwY5trzmCB5NTnEDoAg4GWHNuo/VHyKcLGdTP4UWPxz1inKrGcJ6FCC2D/Cu5s9U6COFNfIhyAcCRzhPDMF9XK2mcPxBhjqU3Z47XD6lx+Ja13JFocHAcwmu6GUHOwfDy5wF0A5jWnqDMotZzb1hUOdFOhq16J0GDojx67gds8IsDefZOc/CwektzNJiOqipPIcAG2MotfEoioT3RadQqWlEF2icARwoS8foozIbT/cU4n3T2sDXSbhyL3NIkqGtBJ6mE5zhEnknNw6anc3JxIv2TtnFR6q7KQCZ90chlUPU61KPutntOFFBoZf8PQ9cq/q0pRWy2nD/ACnbmq1Wu7qtSr5nNpY4l/Mb5RynMTdOp2Xp5G9VkKtnoap17QjvgalcV1LdDkHYgbhsZw8P1FHDhpn6jyXC6WuFuuclQM3vcAbxdECLdgnMGVZEtcLCV6P9IvxIuY1ykqBuOa0pzp11Rc5BBmzc5/8A3dfJxTrdq+CHAfm8qVWwgOHZQ3Et/SPIHmf/xAAmEAEAAgICAgIBBQEBAAAAAAABABEhMUFREGFxgSCRobHB8NHh/9oACAEBAAE/IRbERpKSIAagwQp4VspAUc68YH637gn+A/uf5L+4katdf9IiNJmX1A2RmTKuPpratkqo6px1CaWhWIFaA/aX5YZe3vwgAZg+hvU7w+Tu5ivME8dKvYZsPSr3DyBfDIoGq1f6pTOMsaGz1iJ6uGCpfY53ZB6Ja0v14lXcRxmPM8AupovUJKHCE+oQWCqF+krMUMJZSflnQ+QSUeMNYVcUGreoxy/UflFArmJby44lD+bZVtSzA8Q2MkwlxRGoKuquOGvLZ1S1LMqncM5dsCVKiRIbEqSkuZJe3RvB4lrGvwV3Gway5qyLZgY7RCGCb0gfiz6/c9OCV/n4hkEOVwbBjDZtosv6jqXLbeoeXLD8WFgts4lqK/bkt/KpWWnLy/qwQPXhdinc0nRNpp+LSZzRWUstL112PT59eqxGXz8+B+J1MqgKqVx2L3ne6ffgLcdNqIN2Jpg76g5j5xS5d1FA4KFVC6+JShtkrhHwxTW5XbBq7n5lqY5px6SGs5jWypQUqPNRCt4vm35iIyHKcMvOmXrcjiPb38TDADgp8XEXnMuYAUWVuDLVRmk2IVXFq9oPiHs5Myz9vFRKChn9EBlemoXJoFRxAEqcwpj2VRDaWmVcD7lLRVOJ/Y7cTPIKnLWyHQdeBYPc2DNuQ66gp5WyGIQUu0MQdhRrB6mTXUaH3CyJb4XL5DAQN12dX3KkNDoY3Ba0uXVtzNfZ4NyUWdxLUl8T/wAlG0PpVDHd7lCe5sCaLZ9iZidw15U+/wD5KF9zNFhn23M3g11OIRAoT3oTlDsS5cscx7JkaUf/AGo17W3Gbz914GIZG7iXLlxfDNflP3UGi/U+RQ8AoUHJ3MzzV0KUD1uDeGFvxCunjyoc7xnwlkxgRCwAlleogwPq579jKTJhVkdkLV5h4LHX9AlnV45iQpeG6qOn6NH7TYhGyVyKlUd2H+dwqKdWjnDfv1MvhU3orH7Q0D7gcj3CCDnysJSqYgk+RzFEyx6upb2XWvr04uKutVWYq/fUScFzbNwAtPuX6jnztgQRw8zQa+pmPcOAYS0wUNfrAZQXR7L6l/UCjwSA5zKrXmDqf0zh8fibPLP/2gAMAwEAAgADAAAAENuACObZz3ZhbQiKAZK/0cn7DwAEwXu1Bgn7oL08EShXEwgN7f0IkFxw3JiMg5tUo9qOBW52lXAhFPaEG2INZUJILaz1tpYi8Y8T4Lv6yu1kSlSJxVjxZWtMaXz+coFPN+lsOEI+xkQSEl6rFXDIJIT/AP/EACcRAQACAwAABQQCAwAAAAAAAAEAERAhMSBBUWGRcaGx4YHB0fDx/9oACAEDAQE/EKDHlcshKi3wVKlYtbj5mWtSHKKvmRVUDYxcuXKYfRFXGcnCQ1BQV4AFM1VUHiI9nOMVKly2XcrxCXTPOoMrRcPWJ7xO4iHYILIAfWCmst08pRbGW2LhcIGPdTeZo1m4sDTFly5cUqCIQRfAodgusZcvClKXNRyKrj2E4i3Lly4otxUx01k3aXLBcXhSt7gvTiebBUOE60GoPIQXGGBxNEL+Dd/WGGuuoiVGlvwMBWa3NaJ17/GoutuBXvv0hOp5sOejrdcgCz7P3EK6W75LISKrcWNXLwqDXL/uOAfZ+42d1/2InZBEHc0bHfLf5gCIEINvnChkuWESts3Vo8n0IEB+fxKA6/RFoqg/MOmCWh7v9Q9vDdwfPFNmppcdeG/9HCPtnb9v8w/Ifgg9OoNcESshPefMWJax9SAcZ7sBRS/Rh6v5iZ7WDFeJBvhIAq3KlQgwMhL4TA0lRW38zhlYsZqM9lUqc7k4RuhGihv5nBgtOhjl14EXxCeV0lRD30gHL+09SkteHXk5rDwi3G4wlYOS83GDKVeExcrPcjORTtj2EOQ5HvheRy//xAAlEQEAAgMAAQQBBQEAAAAAAAABABEQITFBIFFhcTCBkaGx8NH/2gAIAQIBAT8QxfqQSkpKehLblIFSrGaBwxeX/AAXcAtGBUS5UqVgV6FCb8iCVCUsh7/UHxLS0SAkD4wB7wHkFVMtaQbMkYq6IFHqGo0AOzZWEuU94D3holy5cvCWwoN7wYHFy5cvO/eF+c2anObly87LiszpHOGXLg5V2TUF4MJ8TosBIux5qWgnFP2mwICadQhLi0SoI8Q3OkPvFp4H2vx/txyhLVhoGCGDVxbjhZSPwhaixJ0Gz5P+QV5L5VxiGr8Rl7qaaqXqwjeH8xjeHktoRKrNtB7S62kNqqB+/wCIRTxL1EaqF8e0a+JyxxHU7Gc/SLquDb7hUnXv8e07Tpj/AK+5eq5oMcwaxGT4J8cKp0T5n7wl1cTw1PjhLXqhd4rIY7hzHxYqcQuARA8pXPm4HLxKxyK1wiXOQpKk4liKI6iin6PiXyt1+mbNEO8puJKi2UETQWPm65XiK61+mGJ4Kv8AtiCJBaBWHkAxD2ABRBLGAPmCD3w1njDhajuUS/V1hnmc/h//xAAmEAEAAgICAgICAgMBAAAAAAABABEhMUFRYXGBkaGxEMHR4fDx/9oACAEBAAE/EKo45ipyKRKRibvBVV1bouMNNsSt4mMNETAAtJh9Qi4GumjJChC5EO6eoXVCGXg3BREcGL6NoiUBpEpGNjASVdJk3CsCWF0K3zEZ2CcgDXDgN6zDCDAUrSstgVMjFWWv9sU6YAKaY3FpmUAA0M4zyfMPEZnFyUS5C9gavWKbW95L7tu+8wIIKgGc3u7/ADKFlWSFFZ3ig44gGBSCi1bX3OxgAYJgLt6JsMHRCXN0kFYMq4DCC14gYC8MoB4YIoYK18ThZWlmtQGgG9N9ywqeDwH9Qvuy/UregBCYKu+JjGh0QjtC5YbbRUIvALWWarKnZd1uEsGrQMjojmr8fdhrrGhYiq2cx2C/UIQhCM+XE6xXqVlev7W/xChklnXyxKM4wMH1HDzO8e1ley5iHXg0yr60efERffIGxwTCfK2fM2LDC6KQ+IT+yAW10/wQpZBgA6ur27hEnF5Jw1Cpe0tZrxmHfLKdSk1jqVRkxuAUiOD3DYQ0La8XnuUSaCUq8XwZf44+kKw2ZqOdIWFBHCOIpQ2lyLOUvz1E2DwTHEzP1KlRIMfMxIB5G4GcQrsXkBH9G8XK1dkpU/P4Z5kLiqnP1LpSCoX8s16iJNKDTDW3mPoTRZDYvcqVEhw/EIVMmibMXqv2RVLFFnHUZ99dDniO4ZC095f9ETS2C6ISwfcKrUDc8n3Bh4zBhKlRId+oMoLOW66Onj6YystBre8ns6dRhL+tVlgYcp7pjsUlUrYqHPww4IEqJB+n9Q5VE/Ioo2NXjx11KAPWh1LcLsz8xinKriQNWnOR3GS9oChuq/6oHMJRQHzz8w6ZUxUya+oe7Ze28d49/UqmWhF7OMxm1QVVGn7YIMnuV5hIb6wFlufxDFhtYhMAMAIRa2b1aW8r41TKuwFWNWJHNVmiwafqWQmYgK80LrVFtmBiHzrtG+O0JZ8xly1HW4PAF9o9XeFIYGfC/uU9pUo9jN9Q15Xs0LZOgPj+G6fmMW7VBgLUaW1d3Xkhx1ZefCJY4xv/AGc+5RbtPTMnbEmtjj3BNpkg018yxFabK0v/ABCa6FCwwVT1X7gVEq1zr7c6gRlTM0mI8v1yMAFqvEIMoXFGnmWjgttp2YLzFVdYVLVJnCRY5tS3vAwK1PNQJmNNAFC2HK+fQyz69Vs7PHUZ6IFa0Ra8/uKJQm1hijXFR7YsXsobAiOOPMpk0BjyCsMaY9zAFCgIitVkmTLKRasIelLvzLTgpU0O6uqjDIIKtbL5NQ+IT8H8eoNwRVZenT4ZbTMPLRm/C783LzsW7TeiMncGDiwxXb687iCKOYjKp9wdZlcjO+dV04QjmJ6Iez2yx/8AV/G44ijRE9QeQ8VPwK7+OLh+Ff0EYdEByIHcBgfEIFlQZtp3E/5JdbVVloakEwZeomg76dyn/clolgVbuClHiPM8XHt3AxBsgVpK2Mc1jhxtvxAP8HjzPPnmLFAqcNJwtW/csrTl8xAJjB9xXBgDRVVAdYgZZGgNAt32VZu5eYFsRuQ/15iwBvxFizBRuWewW9xy3LgeYqjJp0eWXDmoRGh4js8fmUI9Ss0+NNLyXgsebVzEfa1gT+TqUGSthTGbOnhiwyGSz/ww6JYypyxhp7hcPDjOl4PqBNAbpHtVorkKAxQ3/ibx15laCiXQ2jXFIhEA7iIV25/cFoSNmYMFY/SM1j7ambRHLRFfLt5f9RqVjFrPUNSK0JccEt7ZHt+ZYwAzVY1/ctsY6vmEN5u8JaKaABty7gYFMIASkY3pVZby8U/rQqt4xVVG0jbleYrq75Y1WtsZS6Jgt1jdamkIoO4LWDatKX/W5nvp6mEQJzL7AbxFaCQKjAKAbPtnxxPJDULcZrCjthctX4gBQA8T++fnTZ6n7v2/iOoxjPyv4Zxn/9k=;" vertex="1" parent="vlCZbG9oBxgesIhF5QOp-7">
          <mxGeometry x="76.25" y="100.47999999999999" width="51" height="89.38" as="geometry" />
        </mxCell>
        <mxCell id="vlCZbG9oBxgesIhF5QOp-14" value="" style="shape=flexArrow;endArrow=classic;html=1;rounded=0;startArrow=block;" edge="1" parent="1">
          <mxGeometry width="50" height="50" relative="1" as="geometry">
            <mxPoint x="240" y="490" as="sourcePoint" />
            <mxPoint x="400" y="250" as="targetPoint" />
          </mxGeometry>
        </mxCell>
        <mxCell id="vlCZbG9oBxgesIhF5QOp-15" value="WebSockets" style="edgeLabel;html=1;align=center;verticalAlign=middle;resizable=0;points=[];" vertex="1" connectable="0" parent="vlCZbG9oBxgesIhF5QOp-14">
          <mxGeometry x="-0.1038" y="-3" relative="1" as="geometry">
            <mxPoint as="offset" />
          </mxGeometry>
        </mxCell>
        <mxCell id="vlCZbG9oBxgesIhF5QOp-16" value="" style="shape=flexArrow;endArrow=classic;html=1;rounded=0;startArrow=block;entryX=0.25;entryY=1;entryDx=0;entryDy=0;" edge="1" parent="1" target="vlCZbG9oBxgesIhF5QOp-2">
          <mxGeometry width="50" height="50" relative="1" as="geometry">
            <mxPoint x="490" y="247" as="sourcePoint" />
            <mxPoint x="680" y="277.20500000000015" as="targetPoint" />
          </mxGeometry>
        </mxCell>
        <mxCell id="vlCZbG9oBxgesIhF5QOp-17" value="WebSockets" style="edgeLabel;html=1;align=center;verticalAlign=middle;resizable=0;points=[];" vertex="1" connectable="0" parent="vlCZbG9oBxgesIhF5QOp-16">
          <mxGeometry x="-0.1038" y="-3" relative="1" as="geometry">
            <mxPoint x="35" y="6" as="offset" />
          </mxGeometry>
        </mxCell>
        <mxCell id="vlCZbG9oBxgesIhF5QOp-20" value="" style="shape=flexArrow;endArrow=classic;html=1;rounded=0;" edge="1" parent="1">
          <mxGeometry width="50" height="50" relative="1" as="geometry">
            <mxPoint x="240" y="590" as="sourcePoint" />
            <mxPoint x="410" y="820" as="targetPoint" />
          </mxGeometry>
        </mxCell>
        <mxCell id="vlCZbG9oBxgesIhF5QOp-21" value="HTTPS" style="edgeLabel;html=1;align=center;verticalAlign=middle;resizable=0;points=[];" vertex="1" connectable="0" parent="vlCZbG9oBxgesIhF5QOp-20">
          <mxGeometry x="-0.1902" relative="1" as="geometry">
            <mxPoint x="1" y="7" as="offset" />
          </mxGeometry>
        </mxCell>
        <mxCell id="vlCZbG9oBxgesIhF5QOp-22" value="" style="shape=flexArrow;endArrow=none;html=1;rounded=0;startFill=0;startArrow=block;" edge="1" parent="1">
          <mxGeometry width="50" height="50" relative="1" as="geometry">
            <mxPoint x="270" y="580" as="sourcePoint" />
            <mxPoint x="410" y="765" as="targetPoint" />
          </mxGeometry>
        </mxCell>
        <mxCell id="vlCZbG9oBxgesIhF5QOp-23" value="HTTPS" style="edgeLabel;html=1;align=center;verticalAlign=middle;resizable=0;points=[];" vertex="1" connectable="0" parent="vlCZbG9oBxgesIhF5QOp-22">
          <mxGeometry x="-0.1902" relative="1" as="geometry">
            <mxPoint x="1" y="7" as="offset" />
          </mxGeometry>
        </mxCell>
        <mxCell id="vlCZbG9oBxgesIhF5QOp-24" value="" style="shape=flexArrow;endArrow=classic;html=1;rounded=0;entryX=0;entryY=0.5;entryDx=0;entryDy=0;" edge="1" parent="1">
          <mxGeometry width="50" height="50" relative="1" as="geometry">
            <mxPoint x="490" y="835.5" as="sourcePoint" />
            <mxPoint x="650.5" y="835" as="targetPoint" />
          </mxGeometry>
        </mxCell>
        <mxCell id="vlCZbG9oBxgesIhF5QOp-25" value="HTTPS" style="edgeLabel;html=1;align=center;verticalAlign=middle;resizable=0;points=[];" vertex="1" connectable="0" parent="vlCZbG9oBxgesIhF5QOp-24">
          <mxGeometry x="-0.1902" relative="1" as="geometry">
            <mxPoint x="-5" as="offset" />
          </mxGeometry>
        </mxCell>
        <mxCell id="vlCZbG9oBxgesIhF5QOp-26" value="" style="shape=flexArrow;endArrow=none;html=1;rounded=0;entryX=0;entryY=0.5;entryDx=0;entryDy=0;startFill=0;startArrow=block;" edge="1" parent="1">
          <mxGeometry width="50" height="50" relative="1" as="geometry">
            <mxPoint x="490" y="809.5" as="sourcePoint" />
            <mxPoint x="651" y="809.5" as="targetPoint" />
          </mxGeometry>
        </mxCell>
        <mxCell id="vlCZbG9oBxgesIhF5QOp-27" value="HTTPS" style="edgeLabel;html=1;align=center;verticalAlign=middle;resizable=0;points=[];" vertex="1" connectable="0" parent="vlCZbG9oBxgesIhF5QOp-26">
          <mxGeometry x="-0.1902" relative="1" as="geometry">
            <mxPoint x="-4" y="1" as="offset" />
          </mxGeometry>
        </mxCell>
        <mxCell id="vlCZbG9oBxgesIhF5QOp-29" value="" style="endArrow=classic;html=1;rounded=0;exitX=1;exitY=0.25;exitDx=0;exitDy=0;entryX=0.5;entryY=1;entryDx=0;entryDy=0;" edge="1" parent="1" source="ra2lqkI8AQWUZ4xN18l0-17" target="ra2lqkI8AQWUZ4xN18l0-26">
          <mxGeometry width="50" height="50" relative="1" as="geometry">
            <mxPoint x="800" y="640" as="sourcePoint" />
            <mxPoint x="850" y="590" as="targetPoint" />
          </mxGeometry>
        </mxCell>
        <mxCell id="vlCZbG9oBxgesIhF5QOp-30" value="Matchmaking" style="edgeLabel;html=1;align=center;verticalAlign=middle;resizable=0;points=[];" vertex="1" connectable="0" parent="vlCZbG9oBxgesIhF5QOp-29">
          <mxGeometry x="0.2721" relative="1" as="geometry">
            <mxPoint x="-18" y="22" as="offset" />
          </mxGeometry>
        </mxCell>
        <mxCell id="vlCZbG9oBxgesIhF5QOp-31" value="" style="endArrow=classic;html=1;rounded=0;entryX=0.5;entryY=1;entryDx=0;entryDy=0;exitX=0.5;exitY=0;exitDx=0;exitDy=0;" edge="1" parent="1" source="ra2lqkI8AQWUZ4xN18l0-17" target="ra2lqkI8AQWUZ4xN18l0-24">
          <mxGeometry width="50" height="50" relative="1" as="geometry">
            <mxPoint x="701" y="762.5" as="sourcePoint" />
            <mxPoint x="844" y="567.5" as="targetPoint" />
          </mxGeometry>
        </mxCell>
        <mxCell id="vlCZbG9oBxgesIhF5QOp-32" value="Claim Table" style="edgeLabel;html=1;align=center;verticalAlign=middle;resizable=0;points=[];" vertex="1" connectable="0" parent="vlCZbG9oBxgesIhF5QOp-31">
          <mxGeometry x="0.2721" relative="1" as="geometry">
            <mxPoint x="-13" y="30" as="offset" />
          </mxGeometry>
        </mxCell>
        <mxCell id="vlCZbG9oBxgesIhF5QOp-33" value="" style="endArrow=classic;html=1;rounded=0;entryX=0.5;entryY=1;entryDx=0;entryDy=0;fillColor=#60a917;strokeColor=light-dark(#009900,#009900);" edge="1" parent="1" target="ra2lqkI8AQWUZ4xN18l0-32">
          <mxGeometry width="50" height="50" relative="1" as="geometry">
            <mxPoint x="800" y="490" as="sourcePoint" />
            <mxPoint x="850" y="355.5" as="targetPoint" />
          </mxGeometry>
        </mxCell>
        <mxCell id="vlCZbG9oBxgesIhF5QOp-34" value="Spawns/Terminates" style="edgeLabel;html=1;align=center;verticalAlign=middle;resizable=0;points=[];fontColor=light-dark(#009900,#009900);" vertex="1" connectable="0" parent="vlCZbG9oBxgesIhF5QOp-33">
          <mxGeometry x="0.2721" relative="1" as="geometry">
            <mxPoint x="-3" y="-11" as="offset" />
          </mxGeometry>
        </mxCell>
        <mxCell id="vlCZbG9oBxgesIhF5QOp-35" value="" style="endArrow=classic;html=1;rounded=0;entryX=0.588;entryY=-0.012;entryDx=0;entryDy=0;exitX=0;exitY=1;exitDx=0;exitDy=0;entryPerimeter=0;fillColor=#008a00;strokeColor=light-dark(#FF0000,#FF0000);" edge="1" parent="1" source="vlCZbG9oBxgesIhF5QOp-11" target="ra2lqkI8AQWUZ4xN18l0-24">
          <mxGeometry width="50" height="50" relative="1" as="geometry">
            <mxPoint x="903" y="550" as="sourcePoint" />
            <mxPoint x="840" y="410" as="targetPoint" />
          </mxGeometry>
        </mxCell>
        <mxCell id="vlCZbG9oBxgesIhF5QOp-36" value="Registers/Deregisters" style="edgeLabel;html=1;align=center;verticalAlign=middle;resizable=0;points=[];fontColor=light-dark(#FF0000,#FF0000);" vertex="1" connectable="0" parent="vlCZbG9oBxgesIhF5QOp-35">
          <mxGeometry x="0.2721" relative="1" as="geometry">
            <mxPoint x="53" y="-38" as="offset" />
          </mxGeometry>
        </mxCell>
        <mxCell id="vlCZbG9oBxgesIhF5QOp-39" value="" style="endArrow=classic;html=1;rounded=0;exitX=0;exitY=0.5;exitDx=0;exitDy=0;startArrow=classic;startFill=1;dashed=1;" edge="1" parent="1" source="ra2lqkI8AQWUZ4xN18l0-24" target="ra2lqkI8AQWUZ4xN18l0-5">
          <mxGeometry width="50" height="50" relative="1" as="geometry">
            <mxPoint x="800" y="640" as="sourcePoint" />
            <mxPoint x="850" y="590" as="targetPoint" />
          </mxGeometry>
        </mxCell>
        <mxCell id="vlCZbG9oBxgesIhF5QOp-40" value="Syncs" style="edgeLabel;html=1;align=center;verticalAlign=middle;resizable=0;points=[];" vertex="1" connectable="0" parent="vlCZbG9oBxgesIhF5QOp-39">
          <mxGeometry x="0.0212" y="2" relative="1" as="geometry">
            <mxPoint as="offset" />
          </mxGeometry>
        </mxCell>
        <mxCell id="vlCZbG9oBxgesIhF5QOp-43" value="" style="sketch=0;verticalLabelPosition=bottom;sketch=0;aspect=fixed;html=1;verticalAlign=top;strokeColor=none;fillColor=#000000;align=center;outlineConnect=0;pointerEvents=1;shape=mxgraph.citrix2.authentication_radius;" vertex="1" parent="1">
          <mxGeometry x="432.59" y="178.33999999999997" width="40.83" height="40.83" as="geometry" />
        </mxCell>
        <mxCell id="vlCZbG9oBxgesIhF5QOp-44" value="Auth" style="sketch=0;verticalLabelPosition=bottom;sketch=0;aspect=fixed;html=1;verticalAlign=top;strokeColor=none;fillColor=#000000;align=center;outlineConnect=0;pointerEvents=1;shape=mxgraph.citrix2.authentication_radius;" vertex="1" parent="1">
          <mxGeometry x="427" y="785" width="50" height="50" as="geometry" />
        </mxCell>
      </root>
    </mxGraphModel>
  </diagram>
</mxfile>
